<svg xmlns="http://www.w3.org/2000/svg" xmlns:xlink="http://www.w3.org/1999/xlink" width="500" zoomAndPan="magnify" viewBox="0 0 375 374.999991" height="500" preserveAspectRatio="xMidYMid meet" version="1.0"><defs><clipPath id="6ed8d7d04d"><path d="M 0 117 L 235 117 L 235 353.859375 L 0 353.859375 Z M 0 117 " clip-rule="nonzero"/></clipPath><clipPath id="30c5d8c205"><path d="M 116 20.859375 L 205 20.859375 L 205 106 L 116 106 Z M 116 20.859375 " clip-rule="nonzero"/></clipPath></defs><path fill="#67a3e2" d="M 234.09375 205.160156 C 229.277344 205.160156 224.75 203.105469 221.5625 199.449219 L 190.34375 163.578125 C 183.074219 155.230469 182.664062 142.828125 189.390625 134.730469 C 193.539062 129.742188 199.597656 126.839844 206.019531 126.765625 C 212.589844 126.761719 218.585938 129.488281 222.742188 134.261719 L 232.191406 145.109375 L 267.269531 96.78125 C 273.777344 87.820312 285.761719 84.621094 295.167969 89.363281 C 300.960938 92.28125 305.148438 97.53125 306.667969 103.761719 C 308.175781 110.007812 306.882812 116.5625 303.121094 121.757812 L 247.558594 198.296875 C 244.5625 202.417969 239.933594 204.914062 234.84375 205.140625 C 234.597656 205.148438 234.339844 205.160156 234.09375 205.160156 Z M 206.265625 139.089844 C 203.320312 139.128906 200.730469 140.375 198.867188 142.609375 C 195.960938 146.109375 196.289062 151.644531 199.636719 155.484375 L 230.859375 191.355469 C 232.054688 192.71875 233.578125 192.808594 234.292969 192.828125 C 235.070312 192.789062 236.523438 192.515625 237.574219 191.058594 L 293.136719 114.519531 C 294.78125 112.257812 295.34375 109.394531 294.6875 106.671875 C 294.019531 103.917969 292.222656 101.679688 289.628906 100.375 C 285.558594 98.328125 280.238281 99.902344 277.246094 104.023438 L 237.613281 158.621094 C 236.507812 160.140625 234.773438 161.078125 232.894531 161.160156 C 230.984375 161.175781 229.203125 160.457031 227.976562 159.046875 L 213.449219 142.359375 C 211.636719 140.28125 209.019531 139.089844 206.265625 139.089844 Z M 206.265625 139.089844 " fill-opacity="1" fill-rule="nonzero"/><path fill="#67a3e2" d="M 158.265625 303.484375 C 153.402344 303.484375 148.835938 301.589844 145.402344 298.15625 L 118.476562 271.230469 L 91.550781 298.15625 C 84.6875 305.019531 72.703125 305.027344 65.828125 298.15625 L 55.996094 288.328125 C 48.910156 281.230469 48.910156 269.691406 55.996094 262.605469 L 82.921875 235.675781 L 55.996094 208.75 C 52.558594 205.316406 50.667969 200.75 50.667969 195.886719 C 50.667969 191.027344 52.558594 186.460938 55.996094 183.027344 L 65.828125 173.195312 C 72.703125 166.320312 84.6875 166.328125 91.546875 173.195312 L 118.476562 200.125 L 136.828125 181.777344 C 138.304688 180.292969 140.425781 179.644531 142.472656 180.105469 C 144.519531 180.542969 146.203125 181.984375 146.949219 183.9375 C 151.386719 195.570312 157.777344 206.242188 165.957031 215.644531 C 168.074219 218.085938 167.945312 221.757812 165.660156 224.046875 L 154.03125 235.675781 L 180.957031 262.605469 C 188.042969 269.691406 188.042969 281.234375 180.957031 288.328125 L 171.125 298.15625 C 167.6875 301.589844 163.121094 303.484375 158.265625 303.484375 Z M 118.476562 256.351562 C 120.054688 256.351562 121.628906 256.953125 122.832031 258.15625 L 154.117188 289.441406 C 156.324219 291.648438 160.191406 291.664062 162.40625 289.441406 L 172.238281 279.613281 C 174.519531 277.324219 174.527344 273.605469 172.238281 271.324219 L 140.953125 240.035156 C 138.546875 237.625 138.546875 233.726562 140.953125 231.320312 L 152.976562 219.296875 C 147.519531 212.367188 142.878906 204.886719 139.101562 196.933594 L 122.832031 213.199219 C 120.425781 215.609375 116.523438 215.609375 114.117188 213.199219 L 82.832031 181.914062 C 80.546875 179.613281 76.8125 179.628906 74.542969 181.914062 L 64.710938 191.742188 C 62.425781 194.03125 62.425781 197.746094 64.710938 200.035156 L 95.996094 231.320312 C 98.402344 233.726562 98.402344 237.625 95.996094 240.035156 L 64.710938 271.320312 C 62.425781 273.605469 62.433594 277.324219 64.710938 279.613281 L 74.542969 289.441406 C 76.765625 291.664062 80.625 291.644531 82.832031 289.441406 L 114.117188 258.15625 C 115.320312 256.953125 116.894531 256.351562 118.476562 256.351562 Z M 118.476562 256.351562 " fill-opacity="1" fill-rule="nonzero"/><g clip-path="url(#6ed8d7d04d)"><path fill="#67a3e2" d="M 118.476562 354.152344 C 53.152344 354.152344 0.0078125 301.003906 0.0078125 235.675781 C 0.0078125 170.351562 53.152344 117.207031 118.476562 117.207031 C 124.078125 117.207031 130.046875 117.710938 136.75 118.75 C 138.402344 119.007812 139.878906 119.925781 140.84375 121.292969 C 141.804688 122.664062 142.175781 124.363281 141.855469 126.011719 C 140.546875 132.777344 139.886719 139.554688 139.886719 146.160156 C 139.886719 198.773438 177.640625 242.792969 229.65625 250.820312 C 231.308594 251.078125 232.785156 251.992188 233.757812 253.359375 C 234.71875 254.730469 235.089844 256.425781 234.765625 258.074219 C 224.101562 313.746094 175.191406 354.152344 118.476562 354.152344 Z M 118.476562 129.53125 C 59.953125 129.53125 12.335938 177.148438 12.335938 235.675781 C 12.335938 294.207031 59.953125 341.824219 118.476562 341.824219 C 167.207031 341.824219 209.492188 308.535156 221.316406 261.828125 C 166.605469 250.34375 127.558594 202.699219 127.558594 146.15625 C 127.558594 140.878906 127.9375 135.503906 128.683594 130.113281 C 125.054688 129.726562 121.683594 129.53125 118.476562 129.53125 Z M 118.476562 129.53125 " fill-opacity="1" fill-rule="nonzero"/></g><path fill="#67a3e2" d="M 245.929688 264.53125 C 180.660156 264.53125 127.558594 211.429688 127.558594 146.15625 C 127.558594 128.957031 131.277344 112.230469 138.609375 96.429688 C 139.332031 94.882812 140.664062 93.703125 142.285156 93.167969 L 152.199219 86.082031 C 157.101562 82.535156 163.644531 82.539062 168.53125 86.085938 L 177.945312 92.921875 C 178.539062 93.371094 179.171875 93.363281 179.78125 92.921875 C 180.390625 92.480469 180.578125 91.894531 180.351562 91.179688 L 176.757812 80.113281 C 174.886719 74.375 176.910156 68.136719 181.789062 64.585938 L 191.210938 57.742188 C 191.8125 57.304688 192.007812 56.722656 191.78125 56.011719 C 191.550781 55.292969 191.050781 54.929688 190.304688 54.925781 C 187.519531 54.90625 185.089844 53.023438 184.382812 50.328125 C 183.675781 47.628906 184.863281 44.796875 187.289062 43.414062 C 205.160156 33.183594 225.441406 27.777344 245.929688 27.777344 C 311.203125 27.777344 364.308594 80.886719 364.308594 146.15625 C 364.308594 162.585938 360.953125 178.554688 354.332031 193.628906 C 353.355469 195.867188 351.140625 197.3125 348.691406 197.3125 C 342.246094 197.3125 336.933594 193.457031 335.070312 187.71875 L 331.476562 176.648438 C 331.003906 175.214844 328.964844 175.230469 328.5 176.648438 L 324.902344 187.71875 C 323.042969 193.457031 317.726562 197.3125 311.691406 197.3125 L 300.0625 197.3125 C 299.308594 197.3125 298.804688 197.675781 298.570312 198.390625 C 298.339844 199.109375 298.53125 199.695312 299.140625 200.136719 L 308.554688 206.976562 C 313.441406 210.527344 315.464844 216.765625 313.59375 222.507812 L 310 233.570312 C 309.917969 233.839844 309.660156 234.640625 310.570312 235.300781 C 312.199219 236.5 313.136719 238.421875 313.082031 240.445312 C 313.015625 242.472656 311.972656 244.332031 310.273438 245.4375 C 291.042969 257.929688 268.789062 264.53125 245.929688 264.53125 Z M 148.875 103.648438 C 142.914062 117.207031 139.886719 131.5 139.886719 146.15625 C 139.886719 204.632812 187.457031 252.203125 245.929688 252.203125 C 264.324219 252.203125 282.277344 247.429688 298.234375 238.34375 C 297.359375 235.644531 297.335938 232.667969 298.273438 229.769531 C 298.28125 229.761719 301.875 218.699219 301.875 218.699219 C 302.085938 218.050781 301.859375 217.351562 301.304688 216.949219 L 291.902344 210.113281 C 286.941406 206.515625 284.957031 200.417969 286.84375 194.589844 C 288.738281 188.753906 293.929688 184.984375 300.0625 184.984375 L 311.691406 184.984375 C 312.375 184.984375 312.96875 184.554688 313.183594 183.90625 L 316.78125 172.839844 C 318.671875 167.011719 323.859375 163.246094 329.988281 163.246094 C 336.113281 163.246094 341.296875 167.011719 343.191406 172.839844 L 345.953125 181.332031 C 349.957031 170.027344 351.980469 158.226562 351.980469 146.15625 C 351.980469 87.683594 304.402344 40.105469 245.929688 40.105469 C 230.914062 40.105469 216.027344 43.347656 202.335938 49.546875 C 202.816406 50.386719 203.210938 51.285156 203.511719 52.246094 C 205.382812 58.054688 203.394531 64.132812 198.449219 67.71875 L 189.035156 74.558594 C 188.5 74.949219 188.265625 75.65625 188.472656 76.300781 L 192.070312 87.371094 C 193.964844 93.199219 191.988281 99.292969 187.027344 102.894531 C 182.070312 106.5 175.65625 106.503906 170.695312 102.898438 L 161.277344 96.058594 C 160.738281 95.660156 160.007812 95.652344 159.453125 96.054688 L 150.039062 102.898438 C 149.664062 103.167969 149.277344 103.417969 148.875 103.648438 Z M 148.875 103.648438 " fill-opacity="1" fill-rule="nonzero"/><path fill="#67a3e2" d="M 348.480469 247.996094 C 345.640625 247.996094 342.800781 247.097656 340.320312 245.296875 L 330.898438 238.453125 C 330.359375 238.054688 329.628906 238.046875 329.074219 238.449219 L 319.660156 245.296875 C 314.6875 248.890625 308.28125 248.894531 303.320312 245.289062 C 298.363281 241.6875 296.386719 235.589844 298.28125 229.765625 L 301.878906 218.699219 C 302.085938 218.050781 301.863281 217.351562 301.308594 216.949219 L 291.902344 210.113281 C 286.941406 206.515625 284.960938 200.417969 286.847656 194.589844 C 288.738281 188.753906 293.933594 184.984375 300.066406 184.984375 L 311.695312 184.984375 C 312.375 184.984375 312.96875 184.554688 313.1875 183.90625 L 316.78125 172.839844 C 318.667969 167.007812 323.859375 163.246094 329.992188 163.246094 C 336.113281 163.246094 341.308594 167.007812 343.195312 172.84375 L 346.789062 183.90625 C 347.003906 184.554688 347.597656 184.984375 348.273438 184.984375 L 359.910156 184.984375 C 366.042969 184.984375 371.226562 188.753906 373.121094 194.582031 C 375.015625 200.410156 373.035156 206.507812 368.082031 210.113281 C 368.074219 210.113281 358.660156 216.953125 358.660156 216.953125 C 358.113281 217.351562 357.882812 218.050781 358.089844 218.699219 L 361.683594 229.761719 C 363.585938 235.585938 361.613281 241.683594 356.652344 245.285156 C 354.171875 247.09375 351.332031 247.996094 348.480469 247.996094 Z M 329.984375 225.816406 C 332.847656 225.816406 335.703125 226.703125 338.152344 228.480469 L 347.566406 235.316406 C 348.160156 235.769531 348.792969 235.757812 349.40625 235.316406 C 350.007812 234.878906 350.199219 234.289062 349.964844 233.578125 L 346.371094 222.507812 C 344.5 216.773438 346.53125 210.527344 351.410156 206.980469 L 360.824219 200.136719 C 361.433594 199.695312 361.628906 199.109375 361.394531 198.390625 C 361.160156 197.671875 360.664062 197.3125 359.910156 197.3125 L 348.273438 197.3125 C 342.246094 197.3125 336.933594 193.457031 335.070312 187.71875 L 331.476562 176.652344 C 331 175.207031 328.964844 175.226562 328.496094 176.648438 L 324.902344 187.71875 C 323.039062 193.457031 317.726562 197.3125 311.691406 197.3125 L 300.0625 197.3125 C 299.308594 197.3125 298.800781 197.679688 298.570312 198.390625 C 298.335938 199.109375 298.53125 199.695312 299.140625 200.136719 L 308.554688 206.976562 C 313.441406 210.527344 315.464844 216.765625 313.59375 222.507812 L 310 233.574219 C 309.765625 234.289062 309.957031 234.878906 310.570312 235.316406 C 311.179688 235.757812 311.804688 235.757812 312.414062 235.316406 L 321.820312 228.476562 C 324.269531 226.703125 327.125 225.816406 329.984375 225.816406 Z M 329.984375 225.816406 " fill-opacity="1" fill-rule="nonzero"/><g clip-path="url(#30c5d8c205)"><path fill="#67a3e2" d="M 141.871094 105.601562 C 139.019531 105.601562 136.179688 104.699219 133.699219 102.890625 C 128.738281 99.289062 126.765625 93.191406 128.667969 87.367188 L 132.261719 76.300781 C 132.464844 75.664062 132.238281 74.953125 131.6875 74.554688 L 122.277344 67.71875 C 117.320312 64.113281 115.335938 58.015625 117.230469 52.183594 C 119.125 46.359375 124.308594 42.589844 130.441406 42.589844 L 142.078125 42.589844 C 142.753906 42.589844 143.347656 42.15625 143.5625 41.511719 L 147.160156 30.445312 C 149.054688 24.617188 154.238281 20.847656 160.359375 20.847656 C 166.492188 20.847656 171.675781 24.617188 173.570312 30.445312 L 177.167969 41.511719 C 177.382812 42.15625 177.976562 42.589844 178.660156 42.589844 L 190.289062 42.589844 C 196.421875 42.589844 201.613281 46.359375 203.507812 52.195312 C 205.394531 58.023438 203.410156 64.117188 198.453125 67.71875 L 189.039062 74.558594 C 188.5 74.949219 188.265625 75.65625 188.476562 76.300781 L 192.070312 87.371094 C 193.964844 93.199219 191.992188 99.292969 187.03125 102.894531 C 182.070312 106.5 175.660156 106.503906 170.699219 102.898438 L 161.277344 96.058594 C 160.738281 95.660156 160.007812 95.652344 159.457031 96.054688 L 150.042969 102.898438 C 147.550781 104.699219 144.710938 105.601562 141.871094 105.601562 Z M 160.359375 83.421875 C 163.226562 83.421875 166.082031 84.308594 168.53125 86.085938 L 177.945312 92.921875 C 178.539062 93.371094 179.171875 93.367188 179.785156 92.921875 C 180.394531 92.484375 180.578125 91.894531 180.351562 91.183594 L 176.757812 80.117188 C 174.886719 74.378906 176.910156 68.136719 181.792969 64.589844 L 191.210938 57.742188 C 191.824219 57.300781 192.015625 56.714844 191.78125 56 C 191.550781 55.285156 191.042969 54.917969 190.289062 54.917969 L 178.660156 54.917969 C 172.625 54.917969 167.3125 51.0625 165.449219 45.324219 L 161.855469 34.257812 C 161.398438 32.835938 159.34375 32.820312 158.878906 34.257812 L 155.28125 45.324219 C 153.421875 51.0625 148.105469 54.917969 142.078125 54.917969 L 130.445312 54.917969 C 129.6875 54.917969 129.191406 55.28125 128.957031 56 C 128.726562 56.71875 128.917969 57.300781 129.527344 57.746094 L 138.933594 64.582031 C 143.816406 68.132812 145.835938 74.367188 143.992188 80.097656 L 140.386719 91.183594 C 140.15625 91.902344 140.347656 92.484375 140.949219 92.921875 C 141.558594 93.367188 142.1875 93.367188 142.796875 92.921875 L 152.203125 86.082031 C 154.644531 84.308594 157.503906 83.421875 160.359375 83.421875 Z M 160.359375 83.421875 " fill-opacity="1" fill-rule="nonzero"/></g></svg>