<svg xmlns="http://www.w3.org/2000/svg" xmlns:xlink="http://www.w3.org/1999/xlink" width="500" zoomAndPan="magnify" viewBox="0 0 375 374.999991" height="500" preserveAspectRatio="xMidYMid meet" version="1.0"><defs><clipPath id="966bd2e000"><path d="M 21 18.75 L 354 18.75 L 354 356.25 L 21 356.25 Z M 21 18.75 " clip-rule="nonzero"/></clipPath></defs><g clip-path="url(#966bd2e000)"><path fill="#67a3e2" d="M 346.097656 117.414062 L 111.828125 117.414062 L 342.03125 73.917969 C 342.488281 73.832031 342.929688 73.703125 343.359375 73.53125 C 343.789062 73.359375 344.195312 73.148438 344.582031 72.898438 C 344.972656 72.644531 345.328125 72.355469 345.660156 72.035156 C 345.992188 71.710938 346.289062 71.359375 346.546875 70.976562 C 346.808594 70.597656 347.03125 70.191406 347.214844 69.769531 C 347.394531 69.34375 347.535156 68.902344 347.628906 68.453125 C 347.722656 68 347.773438 67.542969 347.777344 67.078125 C 347.785156 66.617188 347.742188 66.160156 347.65625 65.703125 L 339.796875 24.261719 C 339.710938 23.808594 339.585938 23.367188 339.414062 22.9375 C 339.242188 22.507812 339.027344 22.097656 338.777344 21.710938 C 338.523438 21.324219 338.238281 20.964844 337.914062 20.632812 C 337.589844 20.304688 337.238281 20.007812 336.855469 19.746094 C 336.476562 19.484375 336.074219 19.265625 335.648438 19.082031 C 335.222656 18.902344 334.785156 18.761719 334.332031 18.667969 C 333.878906 18.570312 333.421875 18.523438 332.960938 18.515625 C 332.496094 18.511719 332.039062 18.550781 331.585938 18.636719 L 27.59375 76.082031 C 27.140625 76.167969 26.699219 76.296875 26.269531 76.46875 C 25.839844 76.640625 25.433594 76.851562 25.042969 77.101562 C 24.65625 77.355469 24.296875 77.644531 23.96875 77.964844 C 23.636719 78.289062 23.339844 78.640625 23.078125 79.023438 C 22.816406 79.402344 22.597656 79.808594 22.414062 80.230469 C 22.234375 80.65625 22.09375 81.097656 22 81.546875 C 21.90625 82 21.855469 82.457031 21.847656 82.921875 C 21.84375 83.382812 21.886719 83.839844 21.96875 84.296875 L 29.675781 125.078125 L 29.675781 323.441406 C 29.679688 324.523438 29.730469 325.601562 29.839844 326.679688 C 29.945312 327.753906 30.105469 328.824219 30.316406 329.882812 C 30.53125 330.945312 30.792969 331.992188 31.109375 333.027344 C 31.421875 334.0625 31.789062 335.078125 32.203125 336.078125 C 32.617188 337.074219 33.078125 338.050781 33.589844 339.003906 C 34.101562 339.957031 34.65625 340.886719 35.257812 341.785156 C 35.859375 342.683594 36.5 343.550781 37.1875 344.386719 C 37.875 345.222656 38.597656 346.023438 39.363281 346.789062 C 40.128906 347.550781 40.929688 348.277344 41.765625 348.964844 C 42.601562 349.648438 43.46875 350.292969 44.367188 350.894531 C 45.265625 351.496094 46.191406 352.050781 47.144531 352.5625 C 48.101562 353.074219 49.074219 353.535156 50.074219 353.949219 C 51.074219 354.363281 52.089844 354.726562 53.125 355.042969 C 54.160156 355.359375 55.207031 355.621094 56.269531 355.832031 C 57.328125 356.046875 58.398438 356.203125 59.472656 356.3125 C 60.550781 356.417969 61.628906 356.472656 62.710938 356.476562 L 320.054688 356.476562 C 321.132812 356.472656 322.210938 356.417969 323.289062 356.3125 C 324.363281 356.203125 325.433594 356.046875 326.492188 355.832031 C 327.550781 355.621094 328.601562 355.359375 329.632812 355.042969 C 330.667969 354.726562 331.683594 354.363281 332.683594 353.949219 C 333.683594 353.535156 334.65625 353.070312 335.609375 352.5625 C 336.5625 352.050781 337.488281 351.496094 338.386719 350.894531 C 339.285156 350.292969 340.152344 349.648438 340.988281 348.960938 C 341.824219 348.277344 342.625 347.550781 343.386719 346.785156 C 344.152344 346.019531 344.878906 345.21875 345.5625 344.382812 C 346.25 343.546875 346.890625 342.679688 347.492188 341.78125 C 348.09375 340.882812 348.648438 339.957031 349.15625 339.003906 C 349.667969 338.050781 350.128906 337.074219 350.542969 336.074219 C 350.957031 335.074219 351.320312 334.058594 351.632812 333.023438 C 351.949219 331.988281 352.210938 330.941406 352.421875 329.882812 C 352.632812 328.820312 352.792969 327.753906 352.898438 326.679688 C 353.003906 325.601562 353.058594 324.523438 353.058594 323.441406 L 353.058594 124.445312 C 353.058594 123.984375 353.011719 123.53125 352.925781 123.082031 C 352.835938 122.628906 352.703125 122.195312 352.53125 121.769531 C 352.355469 121.34375 352.140625 120.941406 351.886719 120.558594 C 351.632812 120.175781 351.347656 119.824219 351.023438 119.496094 C 350.699219 119.171875 350.347656 118.878906 349.96875 118.621094 C 349.589844 118.363281 349.1875 118.148438 348.765625 117.96875 C 348.34375 117.789062 347.90625 117.652344 347.457031 117.558594 C 347.007812 117.464844 346.554688 117.417969 346.097656 117.414062 Z M 339.066406 159.601562 L 321.742188 159.601562 L 302.996094 131.476562 L 339.066406 131.476562 Z M 265.492188 159.601562 L 246.746094 131.476562 L 286.121094 131.476562 L 304.867188 159.601562 Z M 209.242188 159.601562 L 190.496094 131.476562 L 229.871094 131.476562 L 248.617188 159.601562 Z M 152.992188 159.601562 L 134.246094 131.476562 L 173.621094 131.476562 L 192.367188 159.601562 Z M 96.742188 159.601562 L 77.996094 131.476562 L 117.371094 131.476562 L 136.117188 159.601562 Z M 109.410156 75 L 133.0625 99.160156 L 94.390625 106.457031 L 70.78125 82.242188 Z M 164.691406 64.566406 L 188.34375 88.640625 L 149.671875 95.953125 L 126.019531 71.792969 Z M 219.957031 54.117188 L 243.59375 78.277344 L 204.953125 85.574219 L 181.296875 61.359375 Z M 275.234375 43.683594 L 298.875 67.773438 L 260.203125 75.070312 L 236.5625 50.910156 Z M 43.753906 131.476562 L 61.09375 131.476562 L 79.835938 159.601562 L 43.753906 159.601562 Z M 332.527344 61.414062 L 315.46875 64.636719 L 291.84375 40.460938 L 327.28125 33.769531 Z M 54.089844 85.320312 L 77.8125 109.523438 L 42.359375 116.230469 L 37.117188 88.585938 Z M 320.125 342.414062 L 62.722656 342.414062 C 62.101562 342.410156 61.484375 342.378906 60.863281 342.320312 C 60.246094 342.257812 59.632812 342.164062 59.023438 342.042969 C 58.414062 341.921875 57.8125 341.769531 57.21875 341.589844 C 56.625 341.410156 56.042969 341.199219 55.46875 340.960938 C 54.894531 340.722656 54.335938 340.457031 53.785156 340.164062 C 53.238281 339.871094 52.707031 339.550781 52.191406 339.207031 C 51.675781 338.863281 51.175781 338.492188 50.695312 338.097656 C 50.214844 337.703125 49.757812 337.289062 49.316406 336.847656 C 48.878906 336.410156 48.460938 335.949219 48.066406 335.46875 C 47.671875 334.988281 47.304688 334.492188 46.957031 333.976562 C 46.613281 333.457031 46.292969 332.925781 46 332.378906 C 45.707031 331.832031 45.441406 331.269531 45.203125 330.699219 C 44.964844 330.125 44.757812 329.539062 44.578125 328.945312 C 44.394531 328.351562 44.242188 327.75 44.121094 327.140625 C 44 326.53125 43.910156 325.917969 43.847656 325.300781 C 43.785156 324.683594 43.753906 324.0625 43.753906 323.441406 L 43.753906 173.664062 L 339.066406 173.664062 L 339.066406 323.441406 C 339.066406 324.0625 339.035156 324.683594 338.972656 325.300781 C 338.914062 325.917969 338.824219 326.53125 338.703125 327.140625 C 338.582031 327.75 338.429688 328.351562 338.25 328.945312 C 338.070312 329.539062 337.863281 330.121094 337.625 330.695312 C 337.386719 331.269531 337.121094 331.828125 336.828125 332.378906 C 336.539062 332.925781 336.21875 333.457031 335.875 333.972656 C 335.53125 334.488281 335.160156 334.988281 334.765625 335.46875 C 334.375 335.949219 333.957031 336.40625 333.519531 336.847656 C 333.082031 337.285156 332.621094 337.703125 332.140625 338.097656 C 331.664062 338.492188 331.164062 338.859375 330.648438 339.207031 C 330.132812 339.550781 329.601562 339.871094 329.054688 340.164062 C 328.507812 340.457031 327.949219 340.722656 327.375 340.960938 C 326.800781 341.199219 326.21875 341.40625 325.625 341.589844 C 325.03125 341.769531 324.429688 341.921875 323.820312 342.042969 C 323.210938 342.164062 322.597656 342.257812 321.980469 342.320312 C 321.363281 342.378906 320.746094 342.410156 320.125 342.414062 Z M 320.125 342.414062 " fill-opacity="1" fill-rule="nonzero"/></g><path fill="#67a3e2" d="M 166.898438 202.785156 C 166.363281 202.464844 165.796875 202.222656 165.199219 202.050781 C 164.601562 201.882812 163.992188 201.792969 163.371094 201.785156 C 162.746094 201.777344 162.136719 201.851562 161.53125 202.007812 C 160.929688 202.164062 160.359375 202.394531 159.816406 202.699219 C 159.277344 203.007812 158.785156 203.378906 158.34375 203.816406 C 157.898438 204.253906 157.523438 204.742188 157.207031 205.277344 C 156.894531 205.816406 156.65625 206.382812 156.496094 206.984375 C 156.332031 207.585938 156.253906 208.195312 156.253906 208.820312 L 156.253906 307.257812 C 156.253906 307.71875 156.296875 308.175781 156.386719 308.628906 C 156.476562 309.082031 156.613281 309.519531 156.789062 309.945312 C 156.964844 310.375 157.179688 310.777344 157.4375 311.164062 C 157.695312 311.546875 157.984375 311.902344 158.3125 312.226562 C 158.640625 312.554688 158.992188 312.847656 159.378906 313.101562 C 159.761719 313.359375 160.167969 313.574219 160.59375 313.753906 C 161.019531 313.929688 161.460938 314.0625 161.914062 314.152344 C 162.367188 314.242188 162.824219 314.289062 163.285156 314.289062 C 164.582031 314.285156 165.789062 313.945312 166.898438 313.273438 L 248.925781 264.054688 C 249.183594 263.902344 249.429688 263.730469 249.667969 263.542969 C 249.90625 263.355469 250.128906 263.152344 250.339844 262.9375 C 250.550781 262.71875 250.746094 262.488281 250.925781 262.25 C 251.109375 262.007812 251.273438 261.753906 251.421875 261.492188 C 251.570312 261.230469 251.703125 260.957031 251.816406 260.679688 C 251.929688 260.398438 252.023438 260.113281 252.101562 259.820312 C 252.179688 259.527344 252.234375 259.230469 252.273438 258.933594 C 252.3125 258.632812 252.332031 258.332031 252.332031 258.03125 C 252.332031 257.726562 252.3125 257.425781 252.273438 257.128906 C 252.234375 256.828125 252.179688 256.53125 252.101562 256.242188 C 252.023438 255.949219 251.929688 255.664062 251.816406 255.382812 C 251.703125 255.101562 251.570312 254.832031 251.421875 254.570312 C 251.273438 254.304688 251.109375 254.054688 250.925781 253.8125 C 250.746094 253.570312 250.550781 253.339844 250.339844 253.125 C 250.128906 252.910156 249.90625 252.707031 249.667969 252.519531 C 249.429688 252.332031 249.183594 252.160156 248.925781 252.003906 Z M 170.316406 294.824219 L 170.316406 221.25 L 231.65625 258.050781 Z M 170.316406 294.824219 " fill-opacity="1" fill-rule="nonzero"/></svg>