<svg xmlns="http://www.w3.org/2000/svg" xmlns:xlink="http://www.w3.org/1999/xlink" width="500" zoomAndPan="magnify" viewBox="0 0 375 374.999991" height="500" preserveAspectRatio="xMidYMid meet" version="1.0"><path fill="#67a3e2" d="M 137.78125 135.015625 L 128.472656 135.015625 L 128.472656 125.707031 C 128.46875 124.746094 128.375 123.792969 128.1875 122.851562 C 128 121.910156 127.722656 120.996094 127.355469 120.109375 C 126.988281 119.222656 126.535156 118.382812 126.003906 117.582031 C 125.46875 116.785156 124.863281 116.046875 124.183594 115.367188 C 123.503906 114.6875 122.765625 114.082031 121.96875 113.546875 C 121.171875 113.015625 120.328125 112.5625 119.441406 112.195312 C 118.554688 111.828125 117.640625 111.550781 116.699219 111.359375 C 115.757812 111.171875 114.804688 111.078125 113.847656 111.078125 L 97.886719 111.078125 C 96.925781 111.078125 95.976562 111.171875 95.03125 111.359375 C 94.089844 111.550781 93.175781 111.828125 92.289062 112.195312 C 91.402344 112.5625 90.5625 113.015625 89.761719 113.546875 C 88.964844 114.082031 88.226562 114.6875 87.546875 115.367188 C 86.867188 116.046875 86.261719 116.785156 85.730469 117.582031 C 85.195312 118.382812 84.746094 119.222656 84.378906 120.109375 C 84.007812 120.996094 83.730469 121.910156 83.542969 122.851562 C 83.355469 123.792969 83.261719 124.746094 83.261719 125.707031 L 83.261719 135.015625 L 73.949219 135.015625 C 72.988281 135.019531 72.039062 135.113281 71.097656 135.300781 C 70.15625 135.488281 69.242188 135.765625 68.355469 136.136719 C 67.46875 136.503906 66.625 136.953125 65.828125 137.488281 C 65.027344 138.019531 64.289062 138.625 63.613281 139.304688 C 62.933594 139.984375 62.328125 140.722656 61.792969 141.519531 C 61.257812 142.320312 60.808594 143.160156 60.441406 144.046875 C 60.074219 144.933594 59.796875 145.847656 59.605469 146.789062 C 59.417969 147.730469 59.324219 148.683594 59.324219 149.644531 L 59.324219 165.601562 C 59.324219 166.5625 59.417969 167.511719 59.605469 168.453125 C 59.796875 169.394531 60.074219 170.308594 60.441406 171.195312 C 60.808594 172.082031 61.257812 172.925781 61.792969 173.722656 C 62.328125 174.523438 62.933594 175.261719 63.613281 175.941406 C 64.289062 176.617188 65.027344 177.226562 65.828125 177.757812 C 66.625 178.292969 67.46875 178.742188 68.355469 179.109375 C 69.242188 179.476562 70.15625 179.757812 71.097656 179.945312 C 72.039062 180.132812 72.988281 180.226562 73.949219 180.226562 L 83.261719 180.226562 L 83.261719 189.539062 C 83.261719 190.5 83.355469 191.449219 83.542969 192.390625 C 83.730469 193.332031 84.011719 194.246094 84.378906 195.132812 C 84.746094 196.019531 85.195312 196.863281 85.730469 197.660156 C 86.265625 198.460938 86.871094 199.199219 87.546875 199.875 C 88.226562 200.554688 88.964844 201.160156 89.765625 201.695312 C 90.5625 202.230469 91.40625 202.679688 92.292969 203.046875 C 93.179688 203.414062 94.09375 203.691406 95.035156 203.882812 C 95.976562 204.070312 96.925781 204.164062 97.886719 204.164062 L 113.847656 204.164062 C 114.804688 204.164062 115.757812 204.070312 116.699219 203.882812 C 117.640625 203.691406 118.554688 203.414062 119.441406 203.046875 C 120.328125 202.679688 121.167969 202.230469 121.96875 201.695312 C 122.765625 201.160156 123.503906 200.554688 124.183594 199.875 C 124.863281 199.199219 125.46875 198.460938 126 197.660156 C 126.535156 196.863281 126.984375 196.019531 127.355469 195.132812 C 127.722656 194.246094 128 193.332031 128.1875 192.390625 C 128.375 191.449219 128.46875 190.5 128.472656 189.539062 L 128.472656 180.226562 L 137.78125 180.226562 C 138.742188 180.226562 139.695312 180.132812 140.636719 179.945312 C 141.578125 179.757812 142.492188 179.476562 143.378906 179.109375 C 144.265625 178.742188 145.105469 178.292969 145.90625 177.757812 C 146.703125 177.226562 147.441406 176.617188 148.121094 175.941406 C 148.796875 175.261719 149.40625 174.523438 149.9375 173.722656 C 150.472656 172.925781 150.921875 172.082031 151.289062 171.195312 C 151.660156 170.308594 151.9375 169.394531 152.125 168.453125 C 152.3125 167.511719 152.40625 166.5625 152.410156 165.601562 L 152.410156 149.644531 C 152.40625 148.683594 152.3125 147.730469 152.125 146.789062 C 151.9375 145.847656 151.660156 144.933594 151.289062 144.046875 C 150.921875 143.160156 150.472656 142.320312 149.9375 141.519531 C 149.40625 140.722656 148.796875 139.984375 148.121094 139.304688 C 147.441406 138.625 146.703125 138.019531 145.90625 137.488281 C 145.105469 136.953125 144.265625 136.503906 143.378906 136.136719 C 142.492188 135.765625 141.578125 135.488281 140.636719 135.300781 C 139.695312 135.113281 138.742188 135.019531 137.78125 135.015625 Z M 139.109375 165.601562 C 139.109375 165.777344 139.078125 165.949219 139.011719 166.109375 C 138.941406 166.273438 138.847656 166.417969 138.722656 166.542969 C 138.597656 166.667969 138.453125 166.761719 138.292969 166.828125 C 138.128906 166.898438 137.960938 166.929688 137.78125 166.929688 L 121.824219 166.929688 C 121.386719 166.929688 120.953125 166.972656 120.527344 167.058594 C 120.097656 167.144531 119.679688 167.269531 119.277344 167.4375 C 118.875 167.605469 118.492188 167.808594 118.128906 168.050781 C 117.765625 168.292969 117.429688 168.570312 117.121094 168.878906 C 116.8125 169.1875 116.535156 169.523438 116.292969 169.886719 C 116.050781 170.25 115.847656 170.632812 115.679688 171.035156 C 115.511719 171.4375 115.386719 171.855469 115.300781 172.28125 C 115.214844 172.710938 115.171875 173.144531 115.171875 173.578125 L 115.171875 189.539062 C 115.171875 189.714844 115.140625 189.886719 115.074219 190.046875 C 115.003906 190.210938 114.910156 190.355469 114.785156 190.480469 C 114.660156 190.601562 114.515625 190.699219 114.355469 190.765625 C 114.191406 190.832031 114.023438 190.867188 113.847656 190.867188 L 97.886719 190.867188 C 97.710938 190.867188 97.539062 190.832031 97.378906 190.765625 C 97.214844 190.699219 97.070312 190.601562 96.945312 190.480469 C 96.820312 190.355469 96.726562 190.210938 96.660156 190.046875 C 96.589844 189.886719 96.558594 189.714844 96.558594 189.539062 L 96.558594 173.578125 C 96.558594 173.144531 96.515625 172.710938 96.429688 172.28125 C 96.34375 171.855469 96.21875 171.4375 96.050781 171.035156 C 95.882812 170.632812 95.679688 170.25 95.4375 169.886719 C 95.195312 169.523438 94.917969 169.1875 94.609375 168.878906 C 94.300781 168.570312 93.964844 168.292969 93.601562 168.050781 C 93.238281 167.808594 92.855469 167.605469 92.453125 167.4375 C 92.050781 167.269531 91.632812 167.144531 91.207031 167.058594 C 90.777344 166.972656 90.34375 166.929688 89.910156 166.929688 L 73.949219 166.929688 C 73.773438 166.929688 73.601562 166.898438 73.441406 166.828125 C 73.277344 166.761719 73.132812 166.667969 73.011719 166.542969 C 72.886719 166.417969 72.789062 166.273438 72.722656 166.109375 C 72.65625 165.949219 72.621094 165.777344 72.621094 165.601562 L 72.621094 149.644531 C 72.621094 149.464844 72.65625 149.296875 72.722656 149.132812 C 72.789062 148.972656 72.886719 148.828125 73.011719 148.703125 C 73.132812 148.578125 73.277344 148.484375 73.441406 148.414062 C 73.601562 148.347656 73.773438 148.316406 73.949219 148.316406 L 89.910156 148.316406 C 90.34375 148.316406 90.777344 148.273438 91.207031 148.1875 C 91.632812 148.101562 92.050781 147.976562 92.453125 147.808594 C 92.855469 147.640625 93.238281 147.4375 93.601562 147.195312 C 93.964844 146.953125 94.300781 146.675781 94.609375 146.367188 C 94.917969 146.058594 95.195312 145.722656 95.4375 145.359375 C 95.679688 144.996094 95.882812 144.613281 96.050781 144.210938 C 96.21875 143.808594 96.34375 143.390625 96.429688 142.964844 C 96.515625 142.535156 96.558594 142.101562 96.558594 141.664062 L 96.558594 125.707031 C 96.558594 125.53125 96.589844 125.359375 96.660156 125.195312 C 96.726562 125.035156 96.820312 124.890625 96.945312 124.765625 C 97.070312 124.640625 97.214844 124.542969 97.378906 124.476562 C 97.539062 124.410156 97.710938 124.375 97.886719 124.375 L 113.847656 124.375 C 114.023438 124.375 114.191406 124.410156 114.355469 124.476562 C 114.515625 124.542969 114.660156 124.640625 114.785156 124.765625 C 114.910156 124.890625 115.003906 125.035156 115.074219 125.195312 C 115.140625 125.359375 115.171875 125.53125 115.171875 125.707031 L 115.171875 141.664062 C 115.171875 142.101562 115.214844 142.535156 115.300781 142.964844 C 115.386719 143.390625 115.511719 143.808594 115.679688 144.210938 C 115.847656 144.613281 116.050781 144.996094 116.292969 145.359375 C 116.535156 145.722656 116.8125 146.058594 117.121094 146.367188 C 117.429688 146.675781 117.765625 146.953125 118.128906 147.195312 C 118.492188 147.4375 118.875 147.640625 119.277344 147.808594 C 119.679688 147.976562 120.097656 148.101562 120.523438 148.1875 C 120.953125 148.273438 121.386719 148.316406 121.824219 148.316406 L 137.78125 148.316406 C 137.960938 148.316406 138.128906 148.347656 138.292969 148.414062 C 138.453125 148.484375 138.597656 148.578125 138.722656 148.703125 C 138.847656 148.828125 138.941406 148.972656 139.011719 149.132812 C 139.078125 149.296875 139.109375 149.464844 139.109375 149.644531 Z M 139.109375 165.601562 " fill-opacity="1" fill-rule="nonzero"/><path fill="#67a3e2" d="M 267.441406 173.847656 C 266.714844 173.835938 265.992188 173.863281 265.269531 173.925781 C 264.546875 173.988281 263.832031 174.085938 263.121094 174.21875 C 262.40625 174.351562 261.703125 174.519531 261.007812 174.71875 C 260.3125 174.921875 259.625 175.15625 258.953125 175.421875 C 258.28125 175.691406 257.621094 175.992188 256.976562 176.324219 C 256.335938 176.660156 255.707031 177.023438 255.101562 177.414062 C 254.492188 177.808594 253.90625 178.230469 253.339844 178.683594 C 252.773438 179.136719 252.230469 179.613281 251.707031 180.117188 C 251.1875 180.621094 250.695312 181.152344 250.226562 181.703125 C 249.757812 182.257812 249.320312 182.832031 248.90625 183.429688 C 248.496094 184.023438 248.113281 184.640625 247.761719 185.273438 C 247.410156 185.90625 247.089844 186.554688 246.800781 187.21875 C 246.511719 187.882812 246.257812 188.5625 246.035156 189.25 C 245.8125 189.941406 245.625 190.640625 245.472656 191.347656 C 245.320312 192.054688 245.199219 192.769531 245.117188 193.488281 C 245.03125 194.210938 244.984375 194.929688 244.972656 195.65625 C 244.957031 196.378906 244.980469 197.101562 245.039062 197.824219 C 245.097656 198.546875 245.1875 199.265625 245.316406 199.980469 C 245.445312 200.691406 245.605469 201.398438 245.804688 202.09375 C 246 202.792969 246.230469 203.476562 246.496094 204.152344 C 246.757812 204.828125 247.054688 205.488281 247.382812 206.132812 C 247.714844 206.777344 248.074219 207.40625 248.460938 208.015625 C 248.851562 208.628906 249.273438 209.21875 249.71875 209.789062 C 250.167969 210.355469 250.640625 210.902344 251.144531 211.425781 C 251.644531 211.949219 252.171875 212.445312 252.722656 212.917969 C 253.269531 213.390625 253.84375 213.832031 254.4375 214.25 C 255.03125 214.664062 255.640625 215.050781 256.273438 215.40625 C 256.902344 215.761719 257.550781 216.085938 258.214844 216.378906 C 258.878906 216.671875 259.550781 216.929688 260.242188 217.15625 C 260.929688 217.382812 261.628906 217.574219 262.335938 217.734375 C 263.042969 217.890625 263.753906 218.015625 264.472656 218.101562 C 265.191406 218.191406 265.914062 218.246094 266.640625 218.261719 C 295.84375 217.722656 296.957031 175.097656 267.441406 173.847656 Z M 266.902344 204.96875 C 266.320312 204.953125 265.746094 204.886719 265.179688 204.757812 C 264.613281 204.632812 264.0625 204.453125 263.53125 204.222656 C 263 203.988281 262.496094 203.707031 262.019531 203.375 C 261.539062 203.046875 261.101562 202.671875 260.695312 202.253906 C 260.292969 201.835938 259.933594 201.382812 259.617188 200.894531 C 259.304688 200.40625 259.039062 199.894531 258.824219 199.355469 C 258.609375 198.816406 258.445312 198.261719 258.339844 197.691406 C 258.234375 197.117188 258.183594 196.542969 258.191406 195.960938 C 258.195312 195.382812 258.257812 194.808594 258.375 194.238281 C 258.496094 193.671875 258.667969 193.117188 258.894531 192.582031 C 259.121094 192.046875 259.394531 191.539062 259.71875 191.058594 C 260.046875 190.578125 260.414062 190.132812 260.828125 189.726562 C 261.238281 189.316406 261.6875 188.949219 262.171875 188.628906 C 262.65625 188.308594 263.164062 188.035156 263.703125 187.816406 C 264.238281 187.59375 264.792969 187.425781 265.363281 187.3125 C 265.929688 187.199219 266.507812 187.140625 267.085938 187.140625 C 267.667969 187.152344 268.242188 187.222656 268.808594 187.347656 C 269.375 187.476562 269.921875 187.65625 270.453125 187.886719 C 270.984375 188.121094 271.488281 188.402344 271.964844 188.734375 C 272.441406 189.066406 272.882812 189.441406 273.285156 189.855469 C 273.691406 190.273438 274.050781 190.726562 274.363281 191.214844 C 274.679688 191.703125 274.945312 192.214844 275.160156 192.753906 C 275.375 193.292969 275.535156 193.847656 275.640625 194.417969 C 275.746094 194.988281 275.796875 195.566406 275.789062 196.144531 C 275.785156 196.726562 275.722656 197.300781 275.605469 197.867188 C 275.488281 198.4375 275.3125 198.988281 275.089844 199.523438 C 274.863281 200.058594 274.585938 200.566406 274.261719 201.046875 C 273.9375 201.527344 273.566406 201.972656 273.15625 202.378906 C 272.746094 202.789062 272.296875 203.15625 271.8125 203.476562 C 271.328125 203.796875 270.820312 204.070312 270.285156 204.289062 C 269.746094 204.511719 269.195312 204.679688 268.625 204.792969 C 268.054688 204.90625 267.480469 204.964844 266.902344 204.96875 Z M 266.902344 204.96875 " fill-opacity="1" fill-rule="nonzero"/><path fill="#67a3e2" d="M 229.078125 135.34375 C 199.648438 135.59375 199.140625 179.214844 228.621094 179.632812 C 229.339844 179.628906 230.058594 179.589844 230.773438 179.515625 C 231.488281 179.445312 232.195312 179.335938 232.902344 179.195312 C 233.605469 179.054688 234.300781 178.878906 234.988281 178.667969 C 235.675781 178.457031 236.351562 178.214844 237.015625 177.941406 C 237.679688 177.664062 238.328125 177.355469 238.960938 177.019531 C 239.59375 176.679688 240.210938 176.3125 240.808594 175.914062 C 241.40625 175.515625 241.984375 175.089844 242.539062 174.632812 C 243.097656 174.179688 243.628906 173.699219 244.140625 173.191406 C 244.648438 172.683594 245.132812 172.15625 245.589844 171.601562 C 246.046875 171.046875 246.476562 170.472656 246.878906 169.878906 C 247.28125 169.28125 247.65625 168.667969 247.996094 168.035156 C 248.339844 167.40625 248.648438 166.757812 248.929688 166.097656 C 249.210938 165.433594 249.457031 164.761719 249.667969 164.074219 C 249.882812 163.386719 250.0625 162.691406 250.210938 161.988281 C 250.355469 161.285156 250.46875 160.578125 250.542969 159.863281 C 250.621094 159.148438 250.664062 158.433594 250.671875 157.714844 C 250.679688 156.996094 250.652344 156.277344 250.589844 155.5625 C 250.527344 154.847656 250.429688 154.136719 250.296875 153.429688 C 250.167969 152.722656 250 152.023438 249.800781 151.332031 C 249.601562 150.644531 249.367188 149.964844 249.101562 149.296875 C 248.835938 148.628906 248.539062 147.976562 248.210938 147.335938 C 247.882812 146.699219 247.523438 146.078125 247.132812 145.472656 C 246.742188 144.871094 246.324219 144.285156 245.878906 143.722656 C 245.429688 143.160156 244.957031 142.621094 244.460938 142.101562 C 243.960938 141.585938 243.4375 141.09375 242.890625 140.628906 C 242.34375 140.164062 241.777344 139.722656 241.1875 139.3125 C 240.597656 138.902344 239.988281 138.523438 239.363281 138.171875 C 238.734375 137.820312 238.09375 137.5 237.433594 137.210938 C 236.777344 136.921875 236.105469 136.664062 235.425781 136.441406 C 234.742188 136.214844 234.050781 136.027344 233.347656 135.871094 C 232.648438 135.710938 231.9375 135.589844 231.226562 135.503906 C 230.511719 135.414062 229.796875 135.363281 229.078125 135.34375 Z M 228.421875 166.328125 C 227.851562 166.304688 227.285156 166.222656 226.730469 166.085938 C 226.171875 165.949219 225.632812 165.761719 225.113281 165.519531 C 224.59375 165.277344 224.101562 164.988281 223.640625 164.652344 C 223.175781 164.316406 222.75 163.9375 222.359375 163.519531 C 221.96875 163.097656 221.621094 162.644531 221.320312 162.160156 C 221.015625 161.671875 220.765625 161.160156 220.5625 160.625 C 220.359375 160.089844 220.207031 159.539062 220.113281 158.972656 C 220.015625 158.410156 219.976562 157.839844 219.992188 157.265625 C 220.003906 156.695312 220.074219 156.128906 220.199219 155.570312 C 220.324219 155.007812 220.5 154.46875 220.730469 153.941406 C 220.960938 153.417969 221.238281 152.917969 221.566406 152.449219 C 221.890625 151.976562 222.261719 151.542969 222.671875 151.144531 C 223.082031 150.742188 223.527344 150.386719 224.007812 150.074219 C 224.488281 149.761719 224.996094 149.5 225.527344 149.285156 C 226.058594 149.070312 226.605469 148.910156 227.167969 148.800781 C 227.730469 148.695312 228.296875 148.640625 228.871094 148.644531 C 229.460938 148.644531 230.042969 148.707031 230.621094 148.824219 C 231.195312 148.941406 231.757812 149.117188 232.296875 149.347656 C 232.839844 149.578125 233.355469 149.859375 233.839844 150.195312 C 234.324219 150.527344 234.773438 150.90625 235.183594 151.328125 C 235.59375 151.75 235.957031 152.207031 236.277344 152.703125 C 236.597656 153.199219 236.863281 153.722656 237.078125 154.269531 C 237.292969 154.816406 237.449219 155.382812 237.550781 155.960938 C 237.652344 156.542969 237.695312 157.125 237.683594 157.714844 C 237.667969 158.304688 237.59375 158.886719 237.460938 159.460938 C 237.332031 160.035156 237.144531 160.589844 236.902344 161.125 C 236.660156 161.664062 236.367188 162.171875 236.023438 162.648438 C 235.683594 163.128906 235.292969 163.566406 234.863281 163.96875 C 234.433594 164.371094 233.964844 164.726562 233.464844 165.03125 C 232.960938 165.339844 232.433594 165.597656 231.882812 165.800781 C 231.328125 166 230.761719 166.148438 230.179688 166.238281 C 229.597656 166.328125 229.011719 166.355469 228.421875 166.328125 Z M 228.421875 166.328125 " fill-opacity="1" fill-rule="nonzero"/><path fill="#67a3e2" d="M 305.742188 135.34375 C 276.363281 136.09375 275.71875 178.941406 305.433594 179.632812 C 334.617188 179.148438 334.636719 136.296875 305.742188 135.34375 Z M 305.21875 166.328125 C 304.644531 166.316406 304.070312 166.246094 303.507812 166.117188 C 302.945312 165.992188 302.398438 165.808594 301.871094 165.578125 C 301.339844 165.34375 300.839844 165.058594 300.367188 164.726562 C 299.894531 164.394531 299.457031 164.023438 299.058594 163.605469 C 298.660156 163.1875 298.304688 162.734375 297.992188 162.246094 C 297.683594 161.761719 297.421875 161.246094 297.210938 160.710938 C 297 160.171875 296.84375 159.617188 296.742188 159.050781 C 296.640625 158.480469 296.59375 157.90625 296.605469 157.328125 C 296.613281 156.753906 296.679688 156.179688 296.804688 155.617188 C 296.925781 155.050781 297.101562 154.503906 297.332031 153.972656 C 297.5625 153.445312 297.839844 152.941406 298.167969 152.464844 C 298.496094 151.988281 298.867188 151.550781 299.28125 151.148438 C 299.695312 150.746094 300.144531 150.386719 300.628906 150.070312 C 301.113281 149.753906 301.625 149.492188 302.160156 149.277344 C 302.695312 149.0625 303.25 148.902344 303.816406 148.792969 C 304.386719 148.6875 304.957031 148.636719 305.535156 148.644531 C 306.113281 148.65625 306.683594 148.726562 307.246094 148.855469 C 307.8125 148.980469 308.355469 149.164062 308.886719 149.394531 C 309.414062 149.628906 309.914062 149.914062 310.386719 150.246094 C 310.859375 150.578125 311.296875 150.949219 311.695312 151.367188 C 312.097656 151.785156 312.453125 152.238281 312.761719 152.726562 C 313.074219 153.210938 313.335938 153.726562 313.542969 154.261719 C 313.753906 154.800781 313.910156 155.355469 314.011719 155.921875 C 314.117188 156.492188 314.160156 157.066406 314.152344 157.644531 C 314.140625 158.21875 314.074219 158.792969 313.953125 159.355469 C 313.828125 159.921875 313.652344 160.46875 313.425781 161 C 313.195312 161.527344 312.917969 162.03125 312.589844 162.507812 C 312.261719 162.984375 311.890625 163.421875 311.476562 163.824219 C 311.058594 164.226562 310.609375 164.585938 310.125 164.902344 C 309.640625 165.21875 309.132812 165.480469 308.59375 165.695312 C 308.058594 165.910156 307.507812 166.070312 306.9375 166.179688 C 306.371094 166.285156 305.796875 166.335938 305.21875 166.328125 Z M 305.21875 166.328125 " fill-opacity="1" fill-rule="nonzero"/><path fill="#67a3e2" d="M 266.824219 141.53125 C 267.546875 141.527344 268.269531 141.492188 268.992188 141.417969 C 269.714844 141.34375 270.429688 141.238281 271.140625 141.097656 C 271.851562 140.953125 272.550781 140.777344 273.246094 140.566406 C 273.9375 140.355469 274.621094 140.113281 275.289062 139.835938 C 275.960938 139.558594 276.617188 139.25 277.253906 138.910156 C 277.894531 138.570312 278.515625 138.199219 279.121094 137.800781 C 279.722656 137.398438 280.308594 136.96875 280.871094 136.511719 C 281.429688 136.054688 281.96875 135.570312 282.484375 135.058594 C 283 134.550781 283.488281 134.015625 283.953125 133.457031 C 284.414062 132.902344 284.847656 132.324219 285.253906 131.722656 C 285.664062 131.121094 286.039062 130.503906 286.386719 129.867188 C 286.730469 129.230469 287.046875 128.578125 287.328125 127.914062 C 287.613281 127.246094 287.863281 126.566406 288.082031 125.875 C 288.296875 125.183594 288.480469 124.484375 288.628906 123.773438 C 288.777344 123.0625 288.890625 122.347656 288.972656 121.628906 C 289.050781 120.910156 289.09375 120.1875 289.101562 119.460938 C 289.113281 118.738281 289.085938 118.011719 289.023438 117.292969 C 288.964844 116.570312 288.867188 115.851562 288.734375 115.140625 C 288.605469 114.425781 288.4375 113.722656 288.238281 113.023438 C 288.039062 112.328125 287.808594 111.644531 287.539062 110.96875 C 287.273438 110.296875 286.976562 109.636719 286.644531 108.992188 C 286.3125 108.34375 285.953125 107.71875 285.5625 107.109375 C 285.167969 106.5 284.75 105.910156 284.300781 105.339844 C 283.851562 104.773438 283.375 104.226562 282.875 103.703125 C 282.371094 103.179688 281.84375 102.683594 281.296875 102.210938 C 280.746094 101.742188 280.171875 101.296875 279.578125 100.882812 C 278.984375 100.464844 278.371094 100.078125 277.742188 99.722656 C 277.109375 99.367188 276.464844 99.042969 275.800781 98.75 C 275.136719 98.457031 274.460938 98.195312 273.773438 97.96875 C 273.085938 97.742188 272.390625 97.546875 271.683594 97.386719 C 270.976562 97.226562 270.261719 97.101562 269.542969 97.011719 C 268.824219 96.921875 268.101562 96.867188 267.378906 96.847656 C 266.652344 96.847656 265.929688 96.886719 265.210938 96.957031 C 264.488281 97.03125 263.773438 97.136719 263.0625 97.28125 C 262.351562 97.421875 261.648438 97.597656 260.957031 97.808594 C 260.261719 98.019531 259.578125 98.261719 258.910156 98.539062 C 258.242188 98.816406 257.585938 99.125 256.945312 99.464844 C 256.304688 99.804688 255.683594 100.175781 255.082031 100.578125 C 254.476562 100.976562 253.894531 101.40625 253.332031 101.863281 C 252.769531 102.324219 252.230469 102.804688 251.714844 103.316406 C 251.203125 103.828125 250.710938 104.359375 250.25 104.917969 C 249.785156 105.476562 249.351562 106.054688 248.945312 106.652344 C 248.539062 107.253906 248.160156 107.871094 247.816406 108.507812 C 247.46875 109.144531 247.152344 109.796875 246.871094 110.464844 C 246.589844 111.132812 246.339844 111.8125 246.121094 112.503906 C 245.902344 113.195312 245.722656 113.894531 245.574219 114.601562 C 245.421875 115.3125 245.308594 116.027344 245.230469 116.746094 C 245.152344 117.46875 245.105469 118.191406 245.097656 118.914062 C 245.089844 119.640625 245.113281 120.363281 245.175781 121.085938 C 245.238281 121.808594 245.332031 122.523438 245.464844 123.238281 C 245.597656 123.949219 245.761719 124.65625 245.960938 125.351562 C 246.160156 126.046875 246.394531 126.734375 246.660156 127.40625 C 246.925781 128.082031 247.226562 128.742188 247.554688 129.386719 C 247.886719 130.03125 248.25 130.660156 248.640625 131.269531 C 249.03125 131.878906 249.453125 132.46875 249.902344 133.035156 C 250.351562 133.605469 250.824219 134.152344 251.328125 134.671875 C 251.828125 135.195312 252.355469 135.691406 252.90625 136.164062 C 253.457031 136.636719 254.027344 137.078125 254.621094 137.496094 C 255.214844 137.910156 255.828125 138.296875 256.460938 138.652344 C 257.089844 139.007812 257.738281 139.335938 258.398438 139.628906 C 259.0625 139.921875 259.738281 140.179688 260.425781 140.410156 C 261.113281 140.636719 261.8125 140.828125 262.519531 140.988281 C 263.226562 141.148438 263.9375 141.273438 264.65625 141.363281 C 265.378906 141.453125 266.097656 141.507812 266.824219 141.53125 Z M 260.882812 112.808594 C 261.515625 112.203125 262.222656 111.703125 263 111.304688 C 263.78125 110.90625 264.597656 110.628906 265.460938 110.472656 C 266.320312 110.3125 267.1875 110.28125 268.054688 110.378906 C 268.925781 110.472656 269.761719 110.691406 270.570312 111.03125 C 271.375 111.371094 272.117188 111.820312 272.789062 112.375 C 273.464844 112.933594 274.046875 113.574219 274.53125 114.300781 C 275.019531 115.03125 275.390625 115.8125 275.648438 116.648438 C 275.910156 117.484375 276.042969 118.339844 276.050781 119.214844 C 276.027344 119.796875 275.949219 120.375 275.820312 120.945312 C 275.6875 121.515625 275.503906 122.070312 275.269531 122.605469 C 275.035156 123.144531 274.753906 123.652344 274.425781 124.136719 C 274.09375 124.621094 273.722656 125.070312 273.308594 125.484375 C 272.894531 125.898438 272.445312 126.269531 271.964844 126.601562 C 271.480469 126.929688 270.96875 127.214844 270.433594 127.449219 C 269.898438 127.683594 269.34375 127.867188 268.773438 128 C 268.203125 128.128906 267.625 128.207031 267.039062 128.230469 C 266.15625 128.210938 265.292969 128.0625 264.453125 127.789062 C 263.609375 127.515625 262.824219 127.125 262.097656 126.621094 C 261.371094 126.117188 260.734375 125.519531 260.183594 124.824219 C 259.632812 124.132812 259.191406 123.375 258.863281 122.554688 C 258.535156 121.734375 258.332031 120.882812 258.257812 120 C 258.179688 119.117188 258.230469 118.246094 258.410156 117.378906 C 258.585938 116.511719 258.886719 115.6875 259.308594 114.910156 C 259.730469 114.132812 260.253906 113.429688 260.882812 112.808594 Z M 260.882812 112.808594 " fill-opacity="1" fill-rule="nonzero"/><path fill="#67a3e2" d="M 370.023438 275.699219 C 380.296875 237.375 375.183594 203.660156 364.261719 157.214844 C 353.390625 110.367188 322.65625 45.667969 261.808594 57.988281 C 232.539062 62.367188 197.71875 77.902344 169.761719 69.921875 C 153.78125 65.894531 137.679688 62.546875 121.8125 59.101562 C 31.207031 39.292969 6.710938 161.445312 3.042969 234.882812 C 0.777344 284.042969 25.828125 324.769531 78.683594 296.242188 C 94.71875 287.230469 109.375 276.359375 122.648438 263.632812 C 126.9375 259.394531 131.679688 255.746094 136.871094 252.6875 C 142.066406 249.625 147.554688 247.246094 153.339844 245.546875 C 188.171875 236.792969 229.058594 237.804688 257.582031 265.042969 C 284.3125 291.996094 348.777344 334.847656 370.023438 275.699219 Z M 319.886719 290.246094 C 279.695312 278.164062 258.703125 235.371094 217.992188 230.136719 C 181.03125 224.320312 142.589844 226.429688 113.625 253.867188 C 101.179688 265.820312 87.441406 276.035156 72.414062 284.519531 C -20.125 331.949219 25.273438 143.433594 43.984375 114.144531 C 75.464844 53.300781 110.546875 69.976562 166.484375 82.8125 C 185.210938 88.417969 210.257812 84.222656 231.628906 78.265625 C 265.875 68.941406 299.03125 61.539062 322.988281 95.390625 C 353.289062 127.628906 395.425781 312.890625 319.886719 290.246094 Z M 319.886719 290.246094 " fill-opacity="1" fill-rule="nonzero"/></svg>