<svg xmlns="http://www.w3.org/2000/svg" xmlns:xlink="http://www.w3.org/1999/xlink" width="1920" zoomAndPan="magnify" viewBox="0 0 1440 809.999993" height="1080" preserveAspectRatio="xMidYMid meet" version="1.0"><defs><g/></defs><g fill="#597cff" fill-opacity="1"><g transform="translate(43.072197, 388.721343)"><g><path d="M -30.257812 9.078125 L -30.257812 82.992188 C -24.636719 82.992188 -19.019531 83.425781 -13.832031 83.425781 C -8.644531 83.425781 -3.890625 83.425781 1.296875 83.425781 C 16.859375 83.425781 30.691406 82.558594 42.792969 80.832031 C 54.894531 79.101562 64.835938 74.777344 73.480469 67.863281 C 82.128906 60.945312 88.609375 51.003906 92.933594 38.039062 C 97.257812 25.070312 99.847656 6.914062 99.847656 -15.5625 L 99.847656 -151.289062 L 17.722656 -146.964844 L 22.042969 -62.675781 C 22.042969 -47.113281 21.613281 -34.148438 21.613281 -24.207031 C 21.613281 -14.265625 20.746094 -6.484375 19.882812 -0.863281 C 19.019531 4.753906 17.289062 8.644531 14.695312 10.804688 C 12.101562 12.96875 8.644531 13.832031 4.324219 13.832031 C 0 13.832031 -4.753906 13.398438 -10.375 12.535156 C -15.992188 11.671875 -22.476562 10.375 -30.257812 9.078125 Z M 53.597656 -163.390625 C 63.972656 -163.390625 71.753906 -164.6875 77.804688 -167.28125 C 83.425781 -169.875 87.746094 -173.765625 90.773438 -178.085938 C 93.796875 -182.410156 95.527344 -187.597656 96.390625 -193.214844 C 97.257812 -198.835938 97.6875 -204.453125 97.6875 -210.503906 C 97.6875 -215.691406 97.257812 -220.878906 96.824219 -226.066406 C 96.390625 -231.253906 95.09375 -236.441406 92.5 -240.761719 C 89.90625 -245.085938 85.585938 -248.542969 80.398438 -251.136719 C 74.777344 -253.730469 67 -255.460938 57.488281 -255.460938 C 39.335938 -255.460938 27.230469 -252 20.746094 -245.515625 C 14.265625 -238.601562 11.238281 -226.929688 11.238281 -210.074219 C 11.238281 -204.023438 11.671875 -198.402344 12.535156 -192.78125 C 13.398438 -187.164062 15.128906 -182.410156 18.15625 -178.085938 C 20.746094 -173.765625 25.070312 -169.875 30.691406 -167.28125 C 36.308594 -164.6875 44.089844 -163.390625 53.597656 -163.390625 Z M 53.597656 -163.390625 "/></g></g></g><g fill="#597cff" fill-opacity="1"><g transform="translate(151.564997, 388.721343)"><g><path d="M 8.644531 -103.308594 C 8.644531 -89.476562 9.507812 -76.074219 11.671875 -62.675781 C 13.398438 -49.277344 18.15625 -37.171875 25.070312 -26.800781 C 31.988281 -16.425781 42.359375 -7.78125 55.761719 -1.296875 C 69.160156 5.621094 87.3125 8.644531 110.222656 8.644531 C 134.863281 8.644531 154.3125 5.621094 168.578125 -0.863281 C 182.410156 -7.347656 193.214844 -15.992188 200.132812 -26.800781 C 207.046875 -37.171875 211.371094 -49.277344 213.097656 -62.675781 C 214.828125 -76.074219 215.691406 -89.90625 215.691406 -104.171875 C 215.691406 -116.707031 214.828125 -129.675781 213.964844 -143.507812 C 212.667969 -157.339844 208.777344 -169.875 202.726562 -181.113281 C 196.671875 -192.351562 187.164062 -201.859375 174.195312 -209.207031 C 161.230469 -216.558594 142.640625 -220.445312 118.867188 -220.445312 L 109.792969 -220.445312 C 84.722656 -219.148438 65.269531 -214.828125 51.4375 -207.910156 C 37.605469 -200.5625 27.664062 -191.488281 21.613281 -180.246094 C 15.128906 -169.007812 11.238281 -156.90625 10.375 -143.507812 C 9.078125 -130.105469 8.644531 -116.707031 8.644531 -103.308594 Z M 111.089844 -148.695312 C 114.976562 -149.558594 118.4375 -149.992188 121.03125 -149.992188 C 126.214844 -149.992188 130.105469 -148.695312 132.699219 -146.53125 C 135.292969 -143.9375 137.023438 -140.914062 137.886719 -136.589844 C 138.753906 -132.269531 138.753906 -126.648438 138.753906 -120.597656 C 138.753906 -114.113281 138.753906 -106.765625 138.753906 -98.984375 C 138.753906 -89.90625 138.320312 -82.128906 138.320312 -75.644531 C 138.320312 -68.726562 137.457031 -63.109375 135.726562 -58.785156 C 133.996094 -54.464844 130.972656 -51.003906 127.511719 -48.84375 C 123.625 -46.683594 118.003906 -45.820312 111.089844 -45.820312 C 104.171875 -45.820312 98.554688 -46.683594 95.09375 -48.84375 C 91.636719 -51.003906 89.042969 -54.464844 87.3125 -58.785156 C 85.585938 -63.109375 84.722656 -68.726562 84.722656 -75.644531 C 84.289062 -82.128906 84.289062 -89.90625 84.289062 -98.984375 C 84.289062 -108.0625 84.289062 -115.410156 84.722656 -121.460938 C 84.722656 -127.082031 85.585938 -131.835938 87.3125 -135.726562 C 89.042969 -139.183594 91.636719 -142.210938 95.09375 -143.9375 C 98.554688 -145.667969 104.171875 -147.398438 111.089844 -148.695312 Z M 111.089844 -148.695312 "/></g></g></g><g fill="#597cff" fill-opacity="1"><g transform="translate(375.898701, 388.721343)"><g><path d="M 113.679688 -221.3125 C 111.953125 -223.039062 110.65625 -225.203125 109.792969 -226.929688 C 108.925781 -228.660156 109.359375 -230.390625 111.089844 -232.117188 C 112.386719 -233.847656 115.410156 -235.144531 120.164062 -236.441406 C 124.488281 -237.304688 131.402344 -238.167969 140.914062 -238.601562 L 194.945312 -242.925781 C 194.945312 -248.542969 195.375 -255.027344 195.808594 -261.941406 C 195.808594 -268.859375 196.242188 -275.773438 196.671875 -282.257812 C 197.105469 -288.742188 197.539062 -294.363281 197.96875 -299.117188 C 197.96875 -303.4375 198.402344 -306.03125 198.835938 -306.464844 C 195.375 -306.464844 190.191406 -306.03125 182.839844 -305.601562 C 175.492188 -305.167969 167.28125 -304.734375 158.636719 -303.871094 C 149.992188 -303.007812 140.914062 -301.710938 131.402344 -299.980469 C 121.894531 -298.253906 113.25 -295.660156 105.46875 -293.066406 C 97.6875 -290.039062 91.203125 -286.582031 86.019531 -282.257812 C 80.832031 -277.9375 78.667969 -273.179688 78.667969 -267.128906 C 78.667969 -258.484375 79.535156 -250.273438 81.695312 -242.492188 C 83.855469 -234.277344 86.449219 -226.929688 89.90625 -220.015625 C 73.914062 -218.285156 60.515625 -215.691406 49.707031 -212.234375 C 38.902344 -208.777344 30.257812 -202.726562 23.773438 -194.945312 C 17.289062 -187.164062 12.535156 -176.359375 9.941406 -163.390625 C 6.914062 -150.421875 5.621094 -133.566406 5.621094 -113.25 L 5.621094 -99.417969 C 5.621094 -94.230469 6.050781 -88.609375 7.78125 -82.992188 C 9.078125 -76.941406 11.238281 -71.320312 14.695312 -66.132812 C 17.722656 -60.515625 22.476562 -55.761719 28.960938 -51.4375 C 35.445312 -47.113281 43.65625 -43.226562 54.03125 -40.632812 C 63.972656 -38.039062 76.507812 -36.742188 91.636719 -36.742188 L 92.933594 -28.097656 C 82.992188 -27.230469 72.617188 -25.933594 61.8125 -24.207031 C 51.003906 -22.042969 41.0625 -19.019531 31.988281 -14.695312 C 22.476562 -10.375 15.128906 -4.753906 9.078125 2.160156 C 3.027344 9.078125 0 17.722656 0 28.097656 C 0 36.742188 3.027344 44.523438 9.507812 51.4375 C 15.5625 58.355469 23.773438 64.40625 34.148438 69.59375 C 44.089844 74.777344 55.328125 78.667969 68.296875 81.261719 C 81.261719 83.855469 94.230469 85.152344 107.199219 85.152344 C 123.191406 85.152344 138.320312 83.855469 152.152344 80.832031 C 165.984375 77.804688 178.085938 73.480469 188.460938 67.863281 C 198.835938 62.675781 206.613281 56.191406 212.667969 48.84375 C 218.71875 41.929688 221.742188 34.148438 221.742188 25.503906 C 221.742188 18.585938 220.015625 11.671875 217.421875 5.1875 C 214.828125 -1.296875 209.640625 -6.914062 202.292969 -11.671875 C 194.945312 -16.425781 184.570312 -20.316406 171.601562 -23.339844 C 158.203125 -25.933594 140.914062 -27.664062 119.734375 -28.097656 L 120.597656 -37.171875 C 137.023438 -37.171875 151.289062 -38.46875 162.527344 -41.929688 C 173.765625 -44.953125 182.839844 -49.277344 189.757812 -54.464844 C 196.671875 -59.652344 202.292969 -65.269531 205.75 -71.753906 C 209.207031 -78.238281 211.371094 -84.722656 213.097656 -91.203125 C 214.394531 -97.6875 215.261719 -104.171875 215.261719 -110.222656 L 215.261719 -125.351562 C 215.261719 -143.074219 213.097656 -158.203125 209.207031 -170.304688 C 205.320312 -182.410156 199.265625 -192.351562 191.054688 -200.132812 C 182.410156 -207.480469 172.035156 -212.667969 159.5 -216.125 C 146.53125 -219.582031 131.402344 -221.3125 113.679688 -221.3125 Z M 118.003906 -162.09375 C 124.054688 -162.09375 128.378906 -161.230469 131.402344 -159.5 C 133.996094 -157.769531 136.160156 -155.175781 137.457031 -152.152344 C 138.320312 -149.125 138.753906 -145.667969 138.753906 -141.777344 C 138.753906 -137.457031 138.753906 -133.566406 138.753906 -129.242188 C 138.753906 -120.164062 138.320312 -112.816406 138.320312 -107.199219 C 138.320312 -101.144531 137.457031 -96.824219 135.726562 -93.367188 C 133.996094 -89.90625 130.972656 -87.746094 127.511719 -86.449219 C 123.625 -85.152344 118.003906 -84.722656 111.089844 -84.722656 C 104.171875 -84.722656 98.554688 -85.152344 95.09375 -86.449219 C 91.636719 -87.746094 89.042969 -89.90625 87.3125 -93.367188 C 85.585938 -96.824219 84.722656 -101.144531 84.722656 -107.199219 C 84.289062 -112.816406 84.289062 -120.164062 84.289062 -129.242188 C 84.289062 -133.996094 84.289062 -138.320312 84.289062 -141.777344 C 84.289062 -145.234375 85.585938 -148.695312 87.3125 -151.289062 C 89.042969 -153.878906 91.636719 -156.472656 95.09375 -158.203125 C 98.554688 -159.933594 104.171875 -160.796875 111.089844 -161.660156 C 112.386719 -161.660156 113.679688 -162.09375 114.546875 -162.09375 Z M 166.847656 20.316406 C 166.847656 24.207031 161.230469 27.230469 150.855469 29.394531 C 140.046875 31.988281 127.082031 32.851562 111.519531 32.851562 C 103.738281 32.851562 96.824219 32.851562 90.339844 31.988281 C 83.425781 31.554688 77.804688 30.691406 72.617188 29.394531 C 67.429688 28.527344 63.539062 27.230469 60.515625 25.503906 C 57.488281 23.773438 56.191406 22.042969 56.191406 20.316406 C 56.191406 18.585938 57.488281 17.289062 60.515625 15.5625 C 63.539062 13.832031 67.429688 12.535156 72.617188 11.238281 C 77.804688 10.375 83.425781 9.507812 90.339844 8.644531 C 96.824219 7.78125 103.738281 7.347656 111.519531 7.347656 C 127.082031 7.347656 140.046875 8.644531 150.855469 11.238281 C 161.230469 13.832031 166.847656 16.859375 166.847656 20.316406 Z M 166.847656 20.316406 "/></g></g></g><g fill="#597cff" fill-opacity="1"><g transform="translate(592.019797, 388.721343)"><g><path d="M 8.644531 -103.308594 C 8.644531 -89.476562 9.507812 -76.074219 11.671875 -62.675781 C 13.398438 -49.277344 18.15625 -37.171875 25.070312 -26.800781 C 31.988281 -16.425781 42.359375 -7.78125 55.761719 -1.296875 C 69.160156 5.621094 87.3125 8.644531 110.222656 8.644531 C 134.863281 8.644531 154.3125 5.621094 168.578125 -0.863281 C 182.410156 -7.347656 193.214844 -15.992188 200.132812 -26.800781 C 207.046875 -37.171875 211.371094 -49.277344 213.097656 -62.675781 C 214.828125 -76.074219 215.691406 -89.90625 215.691406 -104.171875 C 215.691406 -116.707031 214.828125 -129.675781 213.964844 -143.507812 C 212.667969 -157.339844 208.777344 -169.875 202.726562 -181.113281 C 196.671875 -192.351562 187.164062 -201.859375 174.195312 -209.207031 C 161.230469 -216.558594 142.640625 -220.445312 118.867188 -220.445312 L 109.792969 -220.445312 C 84.722656 -219.148438 65.269531 -214.828125 51.4375 -207.910156 C 37.605469 -200.5625 27.664062 -191.488281 21.613281 -180.246094 C 15.128906 -169.007812 11.238281 -156.90625 10.375 -143.507812 C 9.078125 -130.105469 8.644531 -116.707031 8.644531 -103.308594 Z M 111.089844 -148.695312 C 114.976562 -149.558594 118.4375 -149.992188 121.03125 -149.992188 C 126.214844 -149.992188 130.105469 -148.695312 132.699219 -146.53125 C 135.292969 -143.9375 137.023438 -140.914062 137.886719 -136.589844 C 138.753906 -132.269531 138.753906 -126.648438 138.753906 -120.597656 C 138.753906 -114.113281 138.753906 -106.765625 138.753906 -98.984375 C 138.753906 -89.90625 138.320312 -82.128906 138.320312 -75.644531 C 138.320312 -68.726562 137.457031 -63.109375 135.726562 -58.785156 C 133.996094 -54.464844 130.972656 -51.003906 127.511719 -48.84375 C 123.625 -46.683594 118.003906 -45.820312 111.089844 -45.820312 C 104.171875 -45.820312 98.554688 -46.683594 95.09375 -48.84375 C 91.636719 -51.003906 89.042969 -54.464844 87.3125 -58.785156 C 85.585938 -63.109375 84.722656 -68.726562 84.722656 -75.644531 C 84.289062 -82.128906 84.289062 -89.90625 84.289062 -98.984375 C 84.289062 -108.0625 84.289062 -115.410156 84.722656 -121.460938 C 84.722656 -127.082031 85.585938 -131.835938 87.3125 -135.726562 C 89.042969 -139.183594 91.636719 -142.210938 95.09375 -143.9375 C 98.554688 -145.667969 104.171875 -147.398438 111.089844 -148.695312 Z M 111.089844 -148.695312 "/></g></g></g><g fill="#597cff" fill-opacity="1"><g transform="translate(816.35353, 388.721343)"><g/></g></g><g fill="#597cff" fill-opacity="1"><g transform="translate(967.638321, 388.721343)"><g><path d="M 0 -114.113281 C 0 -92.5 3.027344 -73.480469 9.078125 -57.058594 C 12.535156 -47.113281 17.289062 -38.039062 23.773438 -29.394531 C 30.257812 -20.746094 38.902344 -13.832031 49.277344 -8.210938 C 59.652344 -2.59375 72.617188 0 88.179688 0 C 88.609375 0 89.476562 0.433594 90.339844 0.433594 L 96.390625 0.433594 C 100.714844 0.433594 105.902344 0 111.953125 -0.863281 C 118.003906 -1.730469 124.488281 -4.324219 130.539062 -7.78125 C 136.589844 -11.238281 141.777344 -15.992188 146.964844 -22.910156 C 152.152344 -29.824219 155.609375 -38.902344 157.769531 -50.140625 L 153.015625 0 L 227.796875 0 C 227.363281 -8.210938 226.929688 -17.722656 226.929688 -28.527344 C 226.5 -37.605469 226.066406 -48.410156 226.066406 -60.945312 C 226.066406 -73.050781 226.066406 -86.882812 226.066406 -102.441406 L 226.066406 -302.574219 L 139.183594 -297.386719 L 141.34375 -188.894531 L 138.320312 -188.894531 C 136.160156 -192.78125 133.996094 -196.671875 131.402344 -200.132812 C 128.808594 -203.589844 125.785156 -207.046875 122.328125 -209.640625 C 118.4375 -212.234375 113.679688 -214.828125 108.496094 -216.558594 C 102.875 -218.285156 95.960938 -219.148438 87.746094 -219.148438 C 69.160156 -219.148438 54.03125 -216.125 42.792969 -210.503906 C 31.554688 -204.453125 22.476562 -196.671875 16.425781 -187.164062 C 9.941406 -177.222656 5.621094 -165.984375 3.457031 -153.449219 C 0.863281 -140.480469 0 -127.511719 0 -114.113281 Z M 82.992188 -105.902344 C 82.992188 -115.410156 82.992188 -122.757812 83.425781 -127.945312 C 83.425781 -133.132812 84.722656 -137.457031 86.449219 -140.480469 C 88.179688 -143.507812 91.203125 -145.667969 95.527344 -147.398438 C 99.417969 -148.695312 105.035156 -149.992188 112.816406 -151.289062 C 118.4375 -152.152344 123.191406 -152.582031 126.648438 -152.582031 C 131.835938 -152.582031 135.292969 -151.289062 137.886719 -149.558594 C 140.480469 -147.828125 142.210938 -144.804688 143.074219 -140.914062 C 143.9375 -137.023438 144.371094 -132.269531 144.371094 -126.648438 L 144.371094 -105.902344 C 144.371094 -96.390625 143.9375 -88.179688 143.9375 -81.261719 C 143.507812 -74.347656 142.210938 -68.296875 140.480469 -63.972656 C 138.753906 -59.21875 135.726562 -55.761719 131.402344 -53.597656 C 127.082031 -51.003906 120.597656 -50.140625 112.816406 -50.140625 C 105.035156 -50.140625 99.417969 -51.003906 95.527344 -53.597656 C 91.203125 -55.761719 88.179688 -59.21875 86.449219 -63.972656 C 84.722656 -68.296875 83.425781 -74.347656 83.425781 -81.261719 C 82.992188 -88.179688 82.992188 -96.390625 82.992188 -105.902344 Z M 82.992188 -105.902344 "/></g></g></g><g fill="#597cff" fill-opacity="1"><g transform="translate(1204.074811, 388.721343)"><g><path d="M 8.644531 -50.140625 C 8.644531 -43.226562 9.507812 -37.171875 12.101562 -31.121094 C 14.695312 -25.070312 18.15625 -19.453125 22.910156 -15.128906 C 27.664062 -10.375 33.714844 -6.484375 41.496094 -3.890625 C 48.84375 -1.296875 57.488281 0 67.429688 0 C 80.398438 0 93.367188 -2.59375 106.765625 -7.78125 C 120.164062 -12.96875 131.835938 -20.316406 142.210938 -29.824219 L 143.507812 0 L 209.640625 0 L 211.800781 -210.074219 C 194.078125 -210.9375 175.0625 -211.800781 154.3125 -212.667969 C 136.160156 -213.53125 115.410156 -213.964844 92.070312 -214.828125 C 68.726562 -215.261719 43.65625 -215.691406 17.289062 -216.125 L 17.289062 -124.488281 L 141.777344 -135.292969 L 141.777344 -79.535156 C 132.269531 -82.992188 121.03125 -86.449219 107.199219 -89.90625 C 93.367188 -93.367188 79.964844 -95.09375 66.132812 -95.09375 C 58.355469 -95.09375 51.003906 -94.230469 44.089844 -92.933594 C 37.171875 -91.203125 31.121094 -89.042969 25.933594 -85.585938 C 20.746094 -82.128906 16.425781 -77.371094 13.398438 -71.753906 C 9.941406 -65.703125 8.644531 -58.785156 8.644531 -50.140625 Z M 64.40625 -47.980469 C 64.40625 -52.734375 66.132812 -56.625 70.457031 -59.21875 C 74.347656 -61.8125 79.535156 -63.539062 86.449219 -63.539062 C 89.90625 -63.539062 92.933594 -62.675781 96.390625 -60.945312 C 99.847656 -59.21875 102.875 -57.488281 105.902344 -55.761719 C 108.496094 -53.167969 111.519531 -50.574219 114.546875 -47.980469 C 111.519531 -44.953125 108.496094 -42.359375 105.902344 -40.632812 C 102.875 -38.46875 99.847656 -36.742188 96.390625 -35.011719 C 92.933594 -33.28125 89.90625 -32.851562 86.449219 -32.851562 C 79.535156 -32.851562 74.347656 -33.714844 70.457031 -36.308594 C 66.132812 -38.902344 64.40625 -42.792969 64.40625 -47.980469 Z M 64.40625 -47.980469 "/></g></g></g><g fill="#ffffff" fill-opacity="1"><g transform="translate(20.147828, 365.796971)"><g><path d="M -30.257812 9.078125 L -30.257812 82.992188 C -24.636719 82.992188 -19.019531 83.425781 -13.832031 83.425781 C -8.644531 83.425781 -3.890625 83.425781 1.296875 83.425781 C 16.859375 83.425781 30.691406 82.558594 42.792969 80.832031 C 54.894531 79.101562 64.835938 74.777344 73.480469 67.863281 C 82.128906 60.945312 88.609375 51.003906 92.933594 38.039062 C 97.257812 25.070312 99.847656 6.914062 99.847656 -15.5625 L 99.847656 -151.289062 L 17.722656 -146.964844 L 22.042969 -62.675781 C 22.042969 -47.113281 21.613281 -34.148438 21.613281 -24.207031 C 21.613281 -14.265625 20.746094 -6.484375 19.882812 -0.863281 C 19.019531 4.753906 17.289062 8.644531 14.695312 10.804688 C 12.101562 12.96875 8.644531 13.832031 4.324219 13.832031 C 0 13.832031 -4.753906 13.398438 -10.375 12.535156 C -15.992188 11.671875 -22.476562 10.375 -30.257812 9.078125 Z M 53.597656 -163.390625 C 63.972656 -163.390625 71.753906 -164.6875 77.804688 -167.28125 C 83.425781 -169.875 87.746094 -173.765625 90.773438 -178.085938 C 93.796875 -182.410156 95.527344 -187.597656 96.390625 -193.214844 C 97.257812 -198.835938 97.6875 -204.453125 97.6875 -210.503906 C 97.6875 -215.691406 97.257812 -220.878906 96.824219 -226.066406 C 96.390625 -231.253906 95.09375 -236.441406 92.5 -240.761719 C 89.90625 -245.085938 85.585938 -248.542969 80.398438 -251.136719 C 74.777344 -253.730469 67 -255.460938 57.488281 -255.460938 C 39.335938 -255.460938 27.230469 -252 20.746094 -245.515625 C 14.265625 -238.601562 11.238281 -226.929688 11.238281 -210.074219 C 11.238281 -204.023438 11.671875 -198.402344 12.535156 -192.78125 C 13.398438 -187.164062 15.128906 -182.410156 18.15625 -178.085938 C 20.746094 -173.765625 25.070312 -169.875 30.691406 -167.28125 C 36.308594 -164.6875 44.089844 -163.390625 53.597656 -163.390625 Z M 53.597656 -163.390625 "/></g></g></g><g fill="#ffffff" fill-opacity="1"><g transform="translate(128.640628, 365.796971)"><g><path d="M 8.644531 -103.308594 C 8.644531 -89.476562 9.507812 -76.074219 11.671875 -62.675781 C 13.398438 -49.277344 18.15625 -37.171875 25.070312 -26.800781 C 31.988281 -16.425781 42.359375 -7.78125 55.761719 -1.296875 C 69.160156 5.621094 87.3125 8.644531 110.222656 8.644531 C 134.863281 8.644531 154.3125 5.621094 168.578125 -0.863281 C 182.410156 -7.347656 193.214844 -15.992188 200.132812 -26.800781 C 207.046875 -37.171875 211.371094 -49.277344 213.097656 -62.675781 C 214.828125 -76.074219 215.691406 -89.90625 215.691406 -104.171875 C 215.691406 -116.707031 214.828125 -129.675781 213.964844 -143.507812 C 212.667969 -157.339844 208.777344 -169.875 202.726562 -181.113281 C 196.671875 -192.351562 187.164062 -201.859375 174.195312 -209.207031 C 161.230469 -216.558594 142.640625 -220.445312 118.867188 -220.445312 L 109.792969 -220.445312 C 84.722656 -219.148438 65.269531 -214.828125 51.4375 -207.910156 C 37.605469 -200.5625 27.664062 -191.488281 21.613281 -180.246094 C 15.128906 -169.007812 11.238281 -156.90625 10.375 -143.507812 C 9.078125 -130.105469 8.644531 -116.707031 8.644531 -103.308594 Z M 111.089844 -148.695312 C 114.976562 -149.558594 118.4375 -149.992188 121.03125 -149.992188 C 126.214844 -149.992188 130.105469 -148.695312 132.699219 -146.53125 C 135.292969 -143.9375 137.023438 -140.914062 137.886719 -136.589844 C 138.753906 -132.269531 138.753906 -126.648438 138.753906 -120.597656 C 138.753906 -114.113281 138.753906 -106.765625 138.753906 -98.984375 C 138.753906 -89.90625 138.320312 -82.128906 138.320312 -75.644531 C 138.320312 -68.726562 137.457031 -63.109375 135.726562 -58.785156 C 133.996094 -54.464844 130.972656 -51.003906 127.511719 -48.84375 C 123.625 -46.683594 118.003906 -45.820312 111.089844 -45.820312 C 104.171875 -45.820312 98.554688 -46.683594 95.09375 -48.84375 C 91.636719 -51.003906 89.042969 -54.464844 87.3125 -58.785156 C 85.585938 -63.109375 84.722656 -68.726562 84.722656 -75.644531 C 84.289062 -82.128906 84.289062 -89.90625 84.289062 -98.984375 C 84.289062 -108.0625 84.289062 -115.410156 84.722656 -121.460938 C 84.722656 -127.082031 85.585938 -131.835938 87.3125 -135.726562 C 89.042969 -139.183594 91.636719 -142.210938 95.09375 -143.9375 C 98.554688 -145.667969 104.171875 -147.398438 111.089844 -148.695312 Z M 111.089844 -148.695312 "/></g></g></g><g fill="#ffffff" fill-opacity="1"><g transform="translate(352.974331, 365.796971)"><g><path d="M 113.679688 -221.3125 C 111.953125 -223.039062 110.65625 -225.203125 109.792969 -226.929688 C 108.925781 -228.660156 109.359375 -230.390625 111.089844 -232.117188 C 112.386719 -233.847656 115.410156 -235.144531 120.164062 -236.441406 C 124.488281 -237.304688 131.402344 -238.167969 140.914062 -238.601562 L 194.945312 -242.925781 C 194.945312 -248.542969 195.375 -255.027344 195.808594 -261.941406 C 195.808594 -268.859375 196.242188 -275.773438 196.671875 -282.257812 C 197.105469 -288.742188 197.539062 -294.363281 197.96875 -299.117188 C 197.96875 -303.4375 198.402344 -306.03125 198.835938 -306.464844 C 195.375 -306.464844 190.191406 -306.03125 182.839844 -305.601562 C 175.492188 -305.167969 167.28125 -304.734375 158.636719 -303.871094 C 149.992188 -303.007812 140.914062 -301.710938 131.402344 -299.980469 C 121.894531 -298.253906 113.25 -295.660156 105.46875 -293.066406 C 97.6875 -290.039062 91.203125 -286.582031 86.019531 -282.257812 C 80.832031 -277.9375 78.667969 -273.179688 78.667969 -267.128906 C 78.667969 -258.484375 79.535156 -250.273438 81.695312 -242.492188 C 83.855469 -234.277344 86.449219 -226.929688 89.90625 -220.015625 C 73.914062 -218.285156 60.515625 -215.691406 49.707031 -212.234375 C 38.902344 -208.777344 30.257812 -202.726562 23.773438 -194.945312 C 17.289062 -187.164062 12.535156 -176.359375 9.941406 -163.390625 C 6.914062 -150.421875 5.621094 -133.566406 5.621094 -113.25 L 5.621094 -99.417969 C 5.621094 -94.230469 6.050781 -88.609375 7.78125 -82.992188 C 9.078125 -76.941406 11.238281 -71.320312 14.695312 -66.132812 C 17.722656 -60.515625 22.476562 -55.761719 28.960938 -51.4375 C 35.445312 -47.113281 43.65625 -43.226562 54.03125 -40.632812 C 63.972656 -38.039062 76.507812 -36.742188 91.636719 -36.742188 L 92.933594 -28.097656 C 82.992188 -27.230469 72.617188 -25.933594 61.8125 -24.207031 C 51.003906 -22.042969 41.0625 -19.019531 31.988281 -14.695312 C 22.476562 -10.375 15.128906 -4.753906 9.078125 2.160156 C 3.027344 9.078125 0 17.722656 0 28.097656 C 0 36.742188 3.027344 44.523438 9.507812 51.4375 C 15.5625 58.355469 23.773438 64.40625 34.148438 69.59375 C 44.089844 74.777344 55.328125 78.667969 68.296875 81.261719 C 81.261719 83.855469 94.230469 85.152344 107.199219 85.152344 C 123.191406 85.152344 138.320312 83.855469 152.152344 80.832031 C 165.984375 77.804688 178.085938 73.480469 188.460938 67.863281 C 198.835938 62.675781 206.613281 56.191406 212.667969 48.84375 C 218.71875 41.929688 221.742188 34.148438 221.742188 25.503906 C 221.742188 18.585938 220.015625 11.671875 217.421875 5.1875 C 214.828125 -1.296875 209.640625 -6.914062 202.292969 -11.671875 C 194.945312 -16.425781 184.570312 -20.316406 171.601562 -23.339844 C 158.203125 -25.933594 140.914062 -27.664062 119.734375 -28.097656 L 120.597656 -37.171875 C 137.023438 -37.171875 151.289062 -38.46875 162.527344 -41.929688 C 173.765625 -44.953125 182.839844 -49.277344 189.757812 -54.464844 C 196.671875 -59.652344 202.292969 -65.269531 205.75 -71.753906 C 209.207031 -78.238281 211.371094 -84.722656 213.097656 -91.203125 C 214.394531 -97.6875 215.261719 -104.171875 215.261719 -110.222656 L 215.261719 -125.351562 C 215.261719 -143.074219 213.097656 -158.203125 209.207031 -170.304688 C 205.320312 -182.410156 199.265625 -192.351562 191.054688 -200.132812 C 182.410156 -207.480469 172.035156 -212.667969 159.5 -216.125 C 146.53125 -219.582031 131.402344 -221.3125 113.679688 -221.3125 Z M 118.003906 -162.09375 C 124.054688 -162.09375 128.378906 -161.230469 131.402344 -159.5 C 133.996094 -157.769531 136.160156 -155.175781 137.457031 -152.152344 C 138.320312 -149.125 138.753906 -145.667969 138.753906 -141.777344 C 138.753906 -137.457031 138.753906 -133.566406 138.753906 -129.242188 C 138.753906 -120.164062 138.320312 -112.816406 138.320312 -107.199219 C 138.320312 -101.144531 137.457031 -96.824219 135.726562 -93.367188 C 133.996094 -89.90625 130.972656 -87.746094 127.511719 -86.449219 C 123.625 -85.152344 118.003906 -84.722656 111.089844 -84.722656 C 104.171875 -84.722656 98.554688 -85.152344 95.09375 -86.449219 C 91.636719 -87.746094 89.042969 -89.90625 87.3125 -93.367188 C 85.585938 -96.824219 84.722656 -101.144531 84.722656 -107.199219 C 84.289062 -112.816406 84.289062 -120.164062 84.289062 -129.242188 C 84.289062 -133.996094 84.289062 -138.320312 84.289062 -141.777344 C 84.289062 -145.234375 85.585938 -148.695312 87.3125 -151.289062 C 89.042969 -153.878906 91.636719 -156.472656 95.09375 -158.203125 C 98.554688 -159.933594 104.171875 -160.796875 111.089844 -161.660156 C 112.386719 -161.660156 113.679688 -162.09375 114.546875 -162.09375 Z M 166.847656 20.316406 C 166.847656 24.207031 161.230469 27.230469 150.855469 29.394531 C 140.046875 31.988281 127.082031 32.851562 111.519531 32.851562 C 103.738281 32.851562 96.824219 32.851562 90.339844 31.988281 C 83.425781 31.554688 77.804688 30.691406 72.617188 29.394531 C 67.429688 28.527344 63.539062 27.230469 60.515625 25.503906 C 57.488281 23.773438 56.191406 22.042969 56.191406 20.316406 C 56.191406 18.585938 57.488281 17.289062 60.515625 15.5625 C 63.539062 13.832031 67.429688 12.535156 72.617188 11.238281 C 77.804688 10.375 83.425781 9.507812 90.339844 8.644531 C 96.824219 7.78125 103.738281 7.347656 111.519531 7.347656 C 127.082031 7.347656 140.046875 8.644531 150.855469 11.238281 C 161.230469 13.832031 166.847656 16.859375 166.847656 20.316406 Z M 166.847656 20.316406 "/></g></g></g><g fill="#ffffff" fill-opacity="1"><g transform="translate(569.095427, 365.796971)"><g><path d="M 8.644531 -103.308594 C 8.644531 -89.476562 9.507812 -76.074219 11.671875 -62.675781 C 13.398438 -49.277344 18.15625 -37.171875 25.070312 -26.800781 C 31.988281 -16.425781 42.359375 -7.78125 55.761719 -1.296875 C 69.160156 5.621094 87.3125 8.644531 110.222656 8.644531 C 134.863281 8.644531 154.3125 5.621094 168.578125 -0.863281 C 182.410156 -7.347656 193.214844 -15.992188 200.132812 -26.800781 C 207.046875 -37.171875 211.371094 -49.277344 213.097656 -62.675781 C 214.828125 -76.074219 215.691406 -89.90625 215.691406 -104.171875 C 215.691406 -116.707031 214.828125 -129.675781 213.964844 -143.507812 C 212.667969 -157.339844 208.777344 -169.875 202.726562 -181.113281 C 196.671875 -192.351562 187.164062 -201.859375 174.195312 -209.207031 C 161.230469 -216.558594 142.640625 -220.445312 118.867188 -220.445312 L 109.792969 -220.445312 C 84.722656 -219.148438 65.269531 -214.828125 51.4375 -207.910156 C 37.605469 -200.5625 27.664062 -191.488281 21.613281 -180.246094 C 15.128906 -169.007812 11.238281 -156.90625 10.375 -143.507812 C 9.078125 -130.105469 8.644531 -116.707031 8.644531 -103.308594 Z M 111.089844 -148.695312 C 114.976562 -149.558594 118.4375 -149.992188 121.03125 -149.992188 C 126.214844 -149.992188 130.105469 -148.695312 132.699219 -146.53125 C 135.292969 -143.9375 137.023438 -140.914062 137.886719 -136.589844 C 138.753906 -132.269531 138.753906 -126.648438 138.753906 -120.597656 C 138.753906 -114.113281 138.753906 -106.765625 138.753906 -98.984375 C 138.753906 -89.90625 138.320312 -82.128906 138.320312 -75.644531 C 138.320312 -68.726562 137.457031 -63.109375 135.726562 -58.785156 C 133.996094 -54.464844 130.972656 -51.003906 127.511719 -48.84375 C 123.625 -46.683594 118.003906 -45.820312 111.089844 -45.820312 C 104.171875 -45.820312 98.554688 -46.683594 95.09375 -48.84375 C 91.636719 -51.003906 89.042969 -54.464844 87.3125 -58.785156 C 85.585938 -63.109375 84.722656 -68.726562 84.722656 -75.644531 C 84.289062 -82.128906 84.289062 -89.90625 84.289062 -98.984375 C 84.289062 -108.0625 84.289062 -115.410156 84.722656 -121.460938 C 84.722656 -127.082031 85.585938 -131.835938 87.3125 -135.726562 C 89.042969 -139.183594 91.636719 -142.210938 95.09375 -143.9375 C 98.554688 -145.667969 104.171875 -147.398438 111.089844 -148.695312 Z M 111.089844 -148.695312 "/></g></g></g><g fill="#ffffff" fill-opacity="1"><g transform="translate(793.429161, 365.796971)"><g/></g></g><g fill="#ffffff" fill-opacity="1"><g transform="translate(944.713951, 365.796971)"><g><path d="M 0 -114.113281 C 0 -92.5 3.027344 -73.480469 9.078125 -57.058594 C 12.535156 -47.113281 17.289062 -38.039062 23.773438 -29.394531 C 30.257812 -20.746094 38.902344 -13.832031 49.277344 -8.210938 C 59.652344 -2.59375 72.617188 0 88.179688 0 C 88.609375 0 89.476562 0.433594 90.339844 0.433594 L 96.390625 0.433594 C 100.714844 0.433594 105.902344 0 111.953125 -0.863281 C 118.003906 -1.730469 124.488281 -4.324219 130.539062 -7.78125 C 136.589844 -11.238281 141.777344 -15.992188 146.964844 -22.910156 C 152.152344 -29.824219 155.609375 -38.902344 157.769531 -50.140625 L 153.015625 0 L 227.796875 0 C 227.363281 -8.210938 226.929688 -17.722656 226.929688 -28.527344 C 226.5 -37.605469 226.066406 -48.410156 226.066406 -60.945312 C 226.066406 -73.050781 226.066406 -86.882812 226.066406 -102.441406 L 226.066406 -302.574219 L 139.183594 -297.386719 L 141.34375 -188.894531 L 138.320312 -188.894531 C 136.160156 -192.78125 133.996094 -196.671875 131.402344 -200.132812 C 128.808594 -203.589844 125.785156 -207.046875 122.328125 -209.640625 C 118.4375 -212.234375 113.679688 -214.828125 108.496094 -216.558594 C 102.875 -218.285156 95.960938 -219.148438 87.746094 -219.148438 C 69.160156 -219.148438 54.03125 -216.125 42.792969 -210.503906 C 31.554688 -204.453125 22.476562 -196.671875 16.425781 -187.164062 C 9.941406 -177.222656 5.621094 -165.984375 3.457031 -153.449219 C 0.863281 -140.480469 0 -127.511719 0 -114.113281 Z M 82.992188 -105.902344 C 82.992188 -115.410156 82.992188 -122.757812 83.425781 -127.945312 C 83.425781 -133.132812 84.722656 -137.457031 86.449219 -140.480469 C 88.179688 -143.507812 91.203125 -145.667969 95.527344 -147.398438 C 99.417969 -148.695312 105.035156 -149.992188 112.816406 -151.289062 C 118.4375 -152.152344 123.191406 -152.582031 126.648438 -152.582031 C 131.835938 -152.582031 135.292969 -151.289062 137.886719 -149.558594 C 140.480469 -147.828125 142.210938 -144.804688 143.074219 -140.914062 C 143.9375 -137.023438 144.371094 -132.269531 144.371094 -126.648438 L 144.371094 -105.902344 C 144.371094 -96.390625 143.9375 -88.179688 143.9375 -81.261719 C 143.507812 -74.347656 142.210938 -68.296875 140.480469 -63.972656 C 138.753906 -59.21875 135.726562 -55.761719 131.402344 -53.597656 C 127.082031 -51.003906 120.597656 -50.140625 112.816406 -50.140625 C 105.035156 -50.140625 99.417969 -51.003906 95.527344 -53.597656 C 91.203125 -55.761719 88.179688 -59.21875 86.449219 -63.972656 C 84.722656 -68.296875 83.425781 -74.347656 83.425781 -81.261719 C 82.992188 -88.179688 82.992188 -96.390625 82.992188 -105.902344 Z M 82.992188 -105.902344 "/></g></g></g><g fill="#ffffff" fill-opacity="1"><g transform="translate(1181.150442, 365.796971)"><g><path d="M 8.644531 -50.140625 C 8.644531 -43.226562 9.507812 -37.171875 12.101562 -31.121094 C 14.695312 -25.070312 18.15625 -19.453125 22.910156 -15.128906 C 27.664062 -10.375 33.714844 -6.484375 41.496094 -3.890625 C 48.84375 -1.296875 57.488281 0 67.429688 0 C 80.398438 0 93.367188 -2.59375 106.765625 -7.78125 C 120.164062 -12.96875 131.835938 -20.316406 142.210938 -29.824219 L 143.507812 0 L 209.640625 0 L 211.800781 -210.074219 C 194.078125 -210.9375 175.0625 -211.800781 154.3125 -212.667969 C 136.160156 -213.53125 115.410156 -213.964844 92.070312 -214.828125 C 68.726562 -215.261719 43.65625 -215.691406 17.289062 -216.125 L 17.289062 -124.488281 L 141.777344 -135.292969 L 141.777344 -79.535156 C 132.269531 -82.992188 121.03125 -86.449219 107.199219 -89.90625 C 93.367188 -93.367188 79.964844 -95.09375 66.132812 -95.09375 C 58.355469 -95.09375 51.003906 -94.230469 44.089844 -92.933594 C 37.171875 -91.203125 31.121094 -89.042969 25.933594 -85.585938 C 20.746094 -82.128906 16.425781 -77.371094 13.398438 -71.753906 C 9.941406 -65.703125 8.644531 -58.785156 8.644531 -50.140625 Z M 64.40625 -47.980469 C 64.40625 -52.734375 66.132812 -56.625 70.457031 -59.21875 C 74.347656 -61.8125 79.535156 -63.539062 86.449219 -63.539062 C 89.90625 -63.539062 92.933594 -62.675781 96.390625 -60.945312 C 99.847656 -59.21875 102.875 -57.488281 105.902344 -55.761719 C 108.496094 -53.167969 111.519531 -50.574219 114.546875 -47.980469 C 111.519531 -44.953125 108.496094 -42.359375 105.902344 -40.632812 C 102.875 -38.46875 99.847656 -36.742188 96.390625 -35.011719 C 92.933594 -33.28125 89.90625 -32.851562 86.449219 -32.851562 C 79.535156 -32.851562 74.347656 -33.714844 70.457031 -36.308594 C 66.132812 -38.902344 64.40625 -42.792969 64.40625 -47.980469 Z M 64.40625 -47.980469 "/></g></g></g><g fill="#597cff" fill-opacity="1"><g transform="translate(22.393132, 706.950809)"><g><path d="M 76.300781 -179.824219 L 7.164062 -175.523438 C 7.164062 -156.898438 7.523438 -137.554688 7.878906 -117.851562 C 7.878906 -100.65625 7.878906 -82.03125 7.878906 -61.253906 C 7.878906 -40.476562 8.238281 -20.058594 8.238281 0 L 66.984375 0 L 72.359375 -103.523438 C 75.582031 -108.898438 80.238281 -113.554688 86.6875 -117.496094 C 92.777344 -121.433594 99.941406 -123.582031 107.824219 -123.582031 C 111.046875 -123.582031 113.554688 -121.078125 115.34375 -116.417969 C 116.777344 -111.40625 117.851562 -105.316406 118.570312 -97.792969 C 119.285156 -90.269531 119.285156 -82.03125 119.285156 -72.71875 C 118.925781 -63.402344 118.570312 -54.089844 117.851562 -45.136719 C 117.136719 -35.820312 116.417969 -27.222656 115.703125 -19.34375 C 114.988281 -11.460938 114.269531 -5.015625 113.554688 0 L 184.839844 0 C 185.554688 -22.925781 186.269531 -43.703125 186.988281 -61.613281 C 187.703125 -79.523438 187.703125 -95.285156 187.347656 -108.898438 C 190.929688 -112.835938 195.585938 -116.417969 200.957031 -119.285156 C 206.332031 -122.152344 212.421875 -123.582031 218.867188 -123.582031 C 222.09375 -123.582031 224.601562 -121.078125 226.390625 -116.417969 C 227.824219 -111.40625 228.898438 -105.316406 229.613281 -97.792969 C 230.332031 -90.269531 230.332031 -82.03125 230.332031 -72.71875 C 229.972656 -63.402344 229.613281 -54.089844 228.898438 -45.136719 C 228.183594 -35.820312 227.464844 -27.222656 226.75 -19.34375 C 226.03125 -11.460938 225.316406 -5.015625 224.601562 0 L 295.886719 0 C 297.316406 -33.671875 298.035156 -61.972656 298.75 -84.898438 C 299.46875 -107.824219 298.035156 -126.449219 294.808594 -140.777344 C 291.585938 -154.75 285.496094 -164.777344 276.898438 -170.867188 C 268.300781 -176.957031 255.40625 -180.183594 238.210938 -180.183594 C 232.480469 -180.183594 227.109375 -178.75 222.09375 -175.882812 C 216.71875 -173.015625 211.703125 -169.433594 207.40625 -164.777344 C 202.75 -160.121094 198.449219 -154.75 194.867188 -149.015625 C 191.285156 -143.285156 188.0625 -137.195312 185.554688 -130.75 C 183.046875 -148.300781 177.316406 -160.839844 168.71875 -168.71875 C 160.121094 -176.242188 146.152344 -180.183594 127.164062 -180.183594 C 121.433594 -180.183594 115.703125 -178.390625 110.328125 -175.523438 C 104.957031 -172.660156 99.941406 -168.71875 95.285156 -164.0625 C 90.628906 -159.046875 86.328125 -153.675781 82.746094 -147.226562 C 79.164062 -140.777344 75.941406 -134.6875 73.792969 -128.242188 Z M 76.300781 -179.824219 "/></g></g></g><g fill="#597cff" fill-opacity="1"><g transform="translate(328.306784, 706.950809)"><g><path d="M 178.75 -75.582031 L 114.988281 -69.136719 C 114.988281 -62.6875 114.628906 -56.957031 114.628906 -52.300781 C 114.269531 -47.285156 113.554688 -43.34375 112.121094 -40.121094 C 110.6875 -36.894531 108.179688 -34.386719 105.316406 -32.957031 C 102.089844 -31.523438 97.792969 -30.804688 92.0625 -30.804688 C 86.328125 -30.804688 81.671875 -31.523438 78.808594 -33.3125 C 75.941406 -35.105469 73.792969 -37.96875 72.359375 -41.910156 C 70.925781 -45.492188 70.210938 -50.507812 70.210938 -56.238281 C 69.851562 -61.972656 69.851562 -69.136719 69.851562 -77.375 L 178.75 -87.046875 C 178.390625 -96.71875 177.316406 -107.105469 175.882812 -118.210938 C 174.09375 -129.316406 170.511719 -139.703125 164.777344 -149.375 C 159.046875 -158.6875 151.167969 -166.570312 140.417969 -173.015625 C 129.671875 -179.464844 115.34375 -182.6875 97.074219 -182.6875 L 90.988281 -182.6875 C 70.210938 -181.613281 54.089844 -178.03125 42.628906 -172.300781 C 31.164062 -166.210938 22.925781 -158.6875 17.910156 -149.375 C 12.539062 -140.0625 9.3125 -130.03125 8.597656 -118.925781 C 7.523438 -107.824219 7.164062 -96.71875 7.164062 -85.613281 C 7.164062 -74.148438 7.878906 -63.046875 9.671875 -51.941406 C 11.105469 -40.835938 15.046875 -30.804688 20.777344 -22.210938 C 26.507812 -13.613281 35.105469 -6.449219 46.210938 -1.074219 C 57.3125 4.65625 72.359375 7.164062 91.34375 7.164062 C 110.328125 7.164062 125.375 5.015625 136.835938 0.359375 C 148.300781 -4.296875 156.898438 -10.386719 162.988281 -18.269531 C 169.078125 -25.792969 173.015625 -34.386719 175.167969 -44.417969 C 177.316406 -54.449219 178.390625 -64.835938 178.75 -75.582031 Z M 114.269531 -101.375 L 113.910156 -101.015625 L 113.910156 -101.375 L 69.851562 -96.71875 L 69.851562 -97.074219 L 70.210938 -123.582031 C 70.210938 -126.449219 70.925781 -129.316406 72.359375 -131.464844 C 73.792969 -133.613281 75.941406 -135.40625 78.089844 -136.835938 C 80.238281 -138.269531 83.105469 -139.34375 85.972656 -140.0625 C 88.835938 -140.777344 91.34375 -141.136719 94.210938 -141.136719 C 98.507812 -141.136719 102.089844 -139.703125 105.316406 -137.195312 C 108.179688 -134.332031 110.328125 -131.464844 111.046875 -127.882812 L 113.910156 -101.375 Z M 114.269531 -101.375 "/></g></g></g><g fill="#597cff" fill-opacity="1"><g transform="translate(514.219143, 706.950809)"><g><path d="M 76.300781 -179.824219 L 7.164062 -175.523438 C 7.164062 -156.898438 7.523438 -137.554688 7.878906 -117.851562 C 7.878906 -100.65625 7.878906 -82.03125 7.878906 -61.253906 C 7.878906 -40.476562 8.238281 -20.058594 8.238281 0 L 66.984375 0 L 72.359375 -103.523438 C 75.582031 -108.898438 80.238281 -113.554688 86.6875 -117.496094 C 92.777344 -121.433594 99.941406 -123.582031 107.824219 -123.582031 C 111.046875 -123.582031 113.554688 -121.078125 115.34375 -116.417969 C 116.777344 -111.40625 117.851562 -105.316406 118.570312 -97.792969 C 119.285156 -90.269531 119.285156 -82.03125 119.285156 -72.71875 C 118.925781 -63.402344 118.570312 -54.089844 117.851562 -45.136719 C 117.136719 -35.820312 116.417969 -27.222656 115.703125 -19.34375 C 114.988281 -11.460938 114.269531 -5.015625 113.554688 0 L 184.839844 0 C 185.554688 -22.925781 186.269531 -43.703125 186.988281 -61.613281 C 187.703125 -79.523438 187.703125 -95.285156 187.347656 -108.898438 C 190.929688 -112.835938 195.585938 -116.417969 200.957031 -119.285156 C 206.332031 -122.152344 212.421875 -123.582031 218.867188 -123.582031 C 222.09375 -123.582031 224.601562 -121.078125 226.390625 -116.417969 C 227.824219 -111.40625 228.898438 -105.316406 229.613281 -97.792969 C 230.332031 -90.269531 230.332031 -82.03125 230.332031 -72.71875 C 229.972656 -63.402344 229.613281 -54.089844 228.898438 -45.136719 C 228.183594 -35.820312 227.464844 -27.222656 226.75 -19.34375 C 226.03125 -11.460938 225.316406 -5.015625 224.601562 0 L 295.886719 0 C 297.316406 -33.671875 298.035156 -61.972656 298.75 -84.898438 C 299.46875 -107.824219 298.035156 -126.449219 294.808594 -140.777344 C 291.585938 -154.75 285.496094 -164.777344 276.898438 -170.867188 C 268.300781 -176.957031 255.40625 -180.183594 238.210938 -180.183594 C 232.480469 -180.183594 227.109375 -178.75 222.09375 -175.882812 C 216.71875 -173.015625 211.703125 -169.433594 207.40625 -164.777344 C 202.75 -160.121094 198.449219 -154.75 194.867188 -149.015625 C 191.285156 -143.285156 188.0625 -137.195312 185.554688 -130.75 C 183.046875 -148.300781 177.316406 -160.839844 168.71875 -168.71875 C 160.121094 -176.242188 146.152344 -180.183594 127.164062 -180.183594 C 121.433594 -180.183594 115.703125 -178.390625 110.328125 -175.523438 C 104.957031 -172.660156 99.941406 -168.71875 95.285156 -164.0625 C 90.628906 -159.046875 86.328125 -153.675781 82.746094 -147.226562 C 79.164062 -140.777344 75.941406 -134.6875 73.792969 -128.242188 Z M 76.300781 -179.824219 "/></g></g></g><g fill="#597cff" fill-opacity="1"><g transform="translate(820.132823, 706.950809)"><g><path d="M 91.34375 7.164062 C 111.761719 7.164062 127.882812 4.65625 139.703125 -0.714844 C 151.167969 -6.089844 160.121094 -13.253906 165.851562 -22.210938 C 171.585938 -30.804688 175.167969 -40.835938 176.597656 -51.941406 C 178.03125 -63.046875 178.75 -74.507812 178.75 -86.328125 C 178.75 -96.71875 178.03125 -107.464844 177.316406 -118.925781 C 176.242188 -130.390625 173.015625 -140.777344 168.003906 -150.089844 C 162.988281 -159.40625 155.105469 -167.285156 144.359375 -173.375 C 133.613281 -179.464844 118.210938 -182.6875 98.507812 -182.6875 L 90.988281 -182.6875 C 70.210938 -181.613281 54.089844 -178.03125 42.628906 -172.300781 C 31.164062 -166.210938 22.925781 -158.6875 17.910156 -149.375 C 12.539062 -140.0625 9.3125 -130.03125 8.597656 -118.925781 C 7.523438 -107.824219 7.164062 -96.71875 7.164062 -85.613281 C 7.164062 -74.148438 7.878906 -63.046875 9.671875 -51.941406 C 11.105469 -40.835938 15.046875 -30.804688 20.777344 -22.210938 C 26.507812 -13.613281 35.105469 -6.449219 46.210938 -1.074219 C 57.3125 4.65625 72.359375 7.164062 91.34375 7.164062 Z M 92.0625 -123.226562 C 95.285156 -123.941406 98.152344 -124.300781 100.300781 -124.300781 C 104.597656 -124.300781 107.824219 -123.226562 109.972656 -121.433594 C 112.121094 -119.285156 113.554688 -116.777344 114.269531 -113.195312 C 114.988281 -109.613281 114.988281 -104.957031 114.988281 -99.941406 C 114.988281 -94.570312 114.988281 -88.480469 114.988281 -82.03125 C 114.988281 -74.507812 114.628906 -68.0625 114.628906 -62.6875 C 114.628906 -56.957031 113.910156 -52.300781 112.480469 -48.71875 C 111.046875 -45.136719 108.539062 -42.269531 105.671875 -40.476562 C 102.449219 -38.6875 97.792969 -37.96875 92.0625 -37.96875 C 86.328125 -37.96875 81.671875 -38.6875 78.808594 -40.476562 C 75.941406 -42.269531 73.792969 -45.136719 72.359375 -48.71875 C 70.925781 -52.300781 70.210938 -56.957031 70.210938 -62.6875 C 69.851562 -68.0625 69.851562 -74.507812 69.851562 -82.03125 C 69.851562 -89.554688 69.851562 -95.644531 70.210938 -100.65625 C 70.210938 -105.316406 70.925781 -109.253906 72.359375 -112.480469 C 73.792969 -115.34375 75.941406 -117.851562 78.808594 -119.285156 C 81.671875 -120.71875 86.328125 -122.152344 92.0625 -123.226562 Z M 61.972656 -192.359375 L 118.210938 -192.359375 L 160.839844 -247.167969 L 102.089844 -247.167969 C 102.089844 -247.167969 101.375 -245.734375 99.226562 -242.871094 C 97.074219 -240.003906 94.570312 -236.78125 91.703125 -232.839844 C 88.835938 -228.898438 85.613281 -224.601562 82.03125 -219.945312 C 78.449219 -214.929688 75.226562 -210.628906 72.359375 -206.691406 C 69.136719 -202.390625 66.628906 -199.167969 64.835938 -196.300781 Z M 61.972656 -192.359375 "/></g></g></g><g fill="#597cff" fill-opacity="1"><g transform="translate(1013.209452, 706.950809)"><g><path d="M 75.226562 -175.523438 L 7.164062 -171.226562 C 7.164062 -154.03125 7.523438 -135.761719 7.878906 -117.136719 C 7.878906 -100.65625 7.878906 -82.390625 7.878906 -62.328125 C 7.878906 -41.910156 8.238281 -21.132812 8.238281 0 L 70.566406 0 L 70.566406 -116.777344 C 76.300781 -118.925781 80.597656 -120 83.820312 -120 C 88.835938 -120 91.703125 -117.496094 92.417969 -112.835938 C 93.136719 -107.824219 93.492188 -101.375 94.210938 -93.492188 L 162.628906 -100.65625 C 162.628906 -112.835938 162.269531 -123.941406 161.195312 -133.972656 C 159.761719 -143.644531 157.613281 -151.882812 154.75 -158.6875 C 151.523438 -165.136719 147.226562 -170.152344 142.210938 -173.734375 C 136.835938 -177.316406 130.03125 -179.105469 122.152344 -179.105469 C 111.40625 -179.105469 101.375 -175.167969 92.417969 -167.285156 C 83.105469 -159.40625 76.300781 -147.585938 71.644531 -131.464844 Z M 75.226562 -175.523438 "/></g></g></g><g fill="#597cff" fill-opacity="1"><g transform="translate(1177.629113, 706.950809)"><g><path d="M 7.878906 -114.628906 L 8.957031 0 L 74.867188 0 L 77.015625 -118.925781 Z M 5.730469 -174.09375 C 5.730469 -169.078125 6.089844 -164.421875 6.804688 -159.761719 C 7.523438 -155.105469 8.957031 -151.167969 11.460938 -147.585938 C 13.613281 -144.003906 17.195312 -140.777344 21.851562 -138.628906 C 26.507812 -136.480469 32.957031 -135.40625 40.835938 -135.40625 C 49.433594 -135.40625 55.882812 -136.480469 60.894531 -138.628906 C 65.554688 -140.777344 69.136719 -144.003906 71.644531 -147.585938 C 74.148438 -151.167969 75.582031 -155.464844 76.300781 -160.121094 C 77.015625 -164.777344 77.375 -169.433594 77.375 -174.449219 C 77.375 -178.75 77.015625 -183.046875 76.65625 -187.347656 C 76.300781 -191.644531 75.226562 -195.941406 73.074219 -199.523438 C 70.925781 -203.105469 67.34375 -205.972656 63.046875 -208.121094 C 58.390625 -210.273438 51.941406 -211.703125 44.058594 -211.703125 C 29.015625 -211.703125 18.984375 -208.839844 13.613281 -203.464844 C 8.238281 -197.734375 5.730469 -188.0625 5.730469 -174.09375 Z M 5.730469 -174.09375 "/></g></g></g><g fill="#597cff" fill-opacity="1"><g transform="translate(1262.525571, 706.950809)"><g><path d="M 7.164062 -41.554688 C 7.164062 -35.820312 7.878906 -30.804688 10.03125 -25.792969 C 12.179688 -20.777344 15.046875 -16.121094 18.984375 -12.539062 C 22.925781 -8.597656 27.941406 -5.375 34.386719 -3.222656 C 40.476562 -1.074219 47.640625 0 55.882812 0 C 66.628906 0 77.375 -2.148438 88.480469 -6.449219 C 99.582031 -10.746094 109.253906 -16.835938 117.851562 -24.714844 L 118.925781 0 L 173.734375 0 L 175.523438 -174.09375 C 160.839844 -174.808594 145.078125 -175.523438 127.882812 -176.242188 C 112.835938 -176.957031 95.644531 -177.316406 76.300781 -178.03125 C 56.957031 -178.390625 36.179688 -178.75 14.328125 -179.105469 L 14.328125 -103.164062 L 117.496094 -112.121094 L 117.496094 -65.910156 C 109.613281 -68.777344 100.300781 -71.644531 88.835938 -74.507812 C 77.375 -77.375 66.269531 -78.808594 54.808594 -78.808594 C 48.359375 -78.808594 42.269531 -78.089844 36.539062 -77.015625 C 30.804688 -75.582031 25.792969 -73.792969 21.492188 -70.925781 C 17.195312 -68.0625 13.613281 -64.121094 11.105469 -59.464844 C 8.238281 -54.449219 7.164062 -48.71875 7.164062 -41.554688 Z M 53.375 -39.761719 C 53.375 -43.703125 54.808594 -46.925781 58.390625 -49.074219 C 61.613281 -51.226562 65.910156 -52.65625 71.644531 -52.65625 C 74.507812 -52.65625 77.015625 -51.941406 79.882812 -50.507812 C 82.746094 -49.074219 85.253906 -47.640625 87.761719 -46.210938 C 89.910156 -44.058594 92.417969 -41.910156 94.925781 -39.761719 C 92.417969 -37.253906 89.910156 -35.105469 87.761719 -33.671875 C 85.253906 -31.882812 82.746094 -30.449219 79.882812 -29.015625 C 77.015625 -27.582031 74.507812 -27.222656 71.644531 -27.222656 C 65.910156 -27.222656 61.613281 -27.941406 58.390625 -30.089844 C 54.808594 -32.238281 53.375 -35.464844 53.375 -39.761719 Z M 53.375 -39.761719 "/></g></g></g><g fill="#f1e49d" fill-opacity="1"><g transform="translate(-0.531238, 684.026437)"><g><path d="M 76.300781 -179.824219 L 7.164062 -175.523438 C 7.164062 -156.898438 7.523438 -137.554688 7.878906 -117.851562 C 7.878906 -100.65625 7.878906 -82.03125 7.878906 -61.253906 C 7.878906 -40.476562 8.238281 -20.058594 8.238281 0 L 66.984375 0 L 72.359375 -103.523438 C 75.582031 -108.898438 80.238281 -113.554688 86.6875 -117.496094 C 92.777344 -121.433594 99.941406 -123.582031 107.824219 -123.582031 C 111.046875 -123.582031 113.554688 -121.078125 115.34375 -116.417969 C 116.777344 -111.40625 117.851562 -105.316406 118.570312 -97.792969 C 119.285156 -90.269531 119.285156 -82.03125 119.285156 -72.71875 C 118.925781 -63.402344 118.570312 -54.089844 117.851562 -45.136719 C 117.136719 -35.820312 116.417969 -27.222656 115.703125 -19.34375 C 114.988281 -11.460938 114.269531 -5.015625 113.554688 0 L 184.839844 0 C 185.554688 -22.925781 186.269531 -43.703125 186.988281 -61.613281 C 187.703125 -79.523438 187.703125 -95.285156 187.347656 -108.898438 C 190.929688 -112.835938 195.585938 -116.417969 200.957031 -119.285156 C 206.332031 -122.152344 212.421875 -123.582031 218.867188 -123.582031 C 222.09375 -123.582031 224.601562 -121.078125 226.390625 -116.417969 C 227.824219 -111.40625 228.898438 -105.316406 229.613281 -97.792969 C 230.332031 -90.269531 230.332031 -82.03125 230.332031 -72.71875 C 229.972656 -63.402344 229.613281 -54.089844 228.898438 -45.136719 C 228.183594 -35.820312 227.464844 -27.222656 226.75 -19.34375 C 226.03125 -11.460938 225.316406 -5.015625 224.601562 0 L 295.886719 0 C 297.316406 -33.671875 298.035156 -61.972656 298.75 -84.898438 C 299.46875 -107.824219 298.035156 -126.449219 294.808594 -140.777344 C 291.585938 -154.75 285.496094 -164.777344 276.898438 -170.867188 C 268.300781 -176.957031 255.40625 -180.183594 238.210938 -180.183594 C 232.480469 -180.183594 227.109375 -178.75 222.09375 -175.882812 C 216.71875 -173.015625 211.703125 -169.433594 207.40625 -164.777344 C 202.75 -160.121094 198.449219 -154.75 194.867188 -149.015625 C 191.285156 -143.285156 188.0625 -137.195312 185.554688 -130.75 C 183.046875 -148.300781 177.316406 -160.839844 168.71875 -168.71875 C 160.121094 -176.242188 146.152344 -180.183594 127.164062 -180.183594 C 121.433594 -180.183594 115.703125 -178.390625 110.328125 -175.523438 C 104.957031 -172.660156 99.941406 -168.71875 95.285156 -164.0625 C 90.628906 -159.046875 86.328125 -153.675781 82.746094 -147.226562 C 79.164062 -140.777344 75.941406 -134.6875 73.792969 -128.242188 Z M 76.300781 -179.824219 "/></g></g></g><g fill="#f1e49d" fill-opacity="1"><g transform="translate(305.382415, 684.026437)"><g><path d="M 178.75 -75.582031 L 114.988281 -69.136719 C 114.988281 -62.6875 114.628906 -56.957031 114.628906 -52.300781 C 114.269531 -47.285156 113.554688 -43.34375 112.121094 -40.121094 C 110.6875 -36.894531 108.179688 -34.386719 105.316406 -32.957031 C 102.089844 -31.523438 97.792969 -30.804688 92.0625 -30.804688 C 86.328125 -30.804688 81.671875 -31.523438 78.808594 -33.3125 C 75.941406 -35.105469 73.792969 -37.96875 72.359375 -41.910156 C 70.925781 -45.492188 70.210938 -50.507812 70.210938 -56.238281 C 69.851562 -61.972656 69.851562 -69.136719 69.851562 -77.375 L 178.75 -87.046875 C 178.390625 -96.71875 177.316406 -107.105469 175.882812 -118.210938 C 174.09375 -129.316406 170.511719 -139.703125 164.777344 -149.375 C 159.046875 -158.6875 151.167969 -166.570312 140.417969 -173.015625 C 129.671875 -179.464844 115.34375 -182.6875 97.074219 -182.6875 L 90.988281 -182.6875 C 70.210938 -181.613281 54.089844 -178.03125 42.628906 -172.300781 C 31.164062 -166.210938 22.925781 -158.6875 17.910156 -149.375 C 12.539062 -140.0625 9.3125 -130.03125 8.597656 -118.925781 C 7.523438 -107.824219 7.164062 -96.71875 7.164062 -85.613281 C 7.164062 -74.148438 7.878906 -63.046875 9.671875 -51.941406 C 11.105469 -40.835938 15.046875 -30.804688 20.777344 -22.210938 C 26.507812 -13.613281 35.105469 -6.449219 46.210938 -1.074219 C 57.3125 4.65625 72.359375 7.164062 91.34375 7.164062 C 110.328125 7.164062 125.375 5.015625 136.835938 0.359375 C 148.300781 -4.296875 156.898438 -10.386719 162.988281 -18.269531 C 169.078125 -25.792969 173.015625 -34.386719 175.167969 -44.417969 C 177.316406 -54.449219 178.390625 -64.835938 178.75 -75.582031 Z M 114.269531 -101.375 L 113.910156 -101.015625 L 113.910156 -101.375 L 69.851562 -96.71875 L 69.851562 -97.074219 L 70.210938 -123.582031 C 70.210938 -126.449219 70.925781 -129.316406 72.359375 -131.464844 C 73.792969 -133.613281 75.941406 -135.40625 78.089844 -136.835938 C 80.238281 -138.269531 83.105469 -139.34375 85.972656 -140.0625 C 88.835938 -140.777344 91.34375 -141.136719 94.210938 -141.136719 C 98.507812 -141.136719 102.089844 -139.703125 105.316406 -137.195312 C 108.179688 -134.332031 110.328125 -131.464844 111.046875 -127.882812 L 113.910156 -101.375 Z M 114.269531 -101.375 "/></g></g></g><g fill="#f1e49d" fill-opacity="1"><g transform="translate(491.294773, 684.026437)"><g><path d="M 76.300781 -179.824219 L 7.164062 -175.523438 C 7.164062 -156.898438 7.523438 -137.554688 7.878906 -117.851562 C 7.878906 -100.65625 7.878906 -82.03125 7.878906 -61.253906 C 7.878906 -40.476562 8.238281 -20.058594 8.238281 0 L 66.984375 0 L 72.359375 -103.523438 C 75.582031 -108.898438 80.238281 -113.554688 86.6875 -117.496094 C 92.777344 -121.433594 99.941406 -123.582031 107.824219 -123.582031 C 111.046875 -123.582031 113.554688 -121.078125 115.34375 -116.417969 C 116.777344 -111.40625 117.851562 -105.316406 118.570312 -97.792969 C 119.285156 -90.269531 119.285156 -82.03125 119.285156 -72.71875 C 118.925781 -63.402344 118.570312 -54.089844 117.851562 -45.136719 C 117.136719 -35.820312 116.417969 -27.222656 115.703125 -19.34375 C 114.988281 -11.460938 114.269531 -5.015625 113.554688 0 L 184.839844 0 C 185.554688 -22.925781 186.269531 -43.703125 186.988281 -61.613281 C 187.703125 -79.523438 187.703125 -95.285156 187.347656 -108.898438 C 190.929688 -112.835938 195.585938 -116.417969 200.957031 -119.285156 C 206.332031 -122.152344 212.421875 -123.582031 218.867188 -123.582031 C 222.09375 -123.582031 224.601562 -121.078125 226.390625 -116.417969 C 227.824219 -111.40625 228.898438 -105.316406 229.613281 -97.792969 C 230.332031 -90.269531 230.332031 -82.03125 230.332031 -72.71875 C 229.972656 -63.402344 229.613281 -54.089844 228.898438 -45.136719 C 228.183594 -35.820312 227.464844 -27.222656 226.75 -19.34375 C 226.03125 -11.460938 225.316406 -5.015625 224.601562 0 L 295.886719 0 C 297.316406 -33.671875 298.035156 -61.972656 298.75 -84.898438 C 299.46875 -107.824219 298.035156 -126.449219 294.808594 -140.777344 C 291.585938 -154.75 285.496094 -164.777344 276.898438 -170.867188 C 268.300781 -176.957031 255.40625 -180.183594 238.210938 -180.183594 C 232.480469 -180.183594 227.109375 -178.75 222.09375 -175.882812 C 216.71875 -173.015625 211.703125 -169.433594 207.40625 -164.777344 C 202.75 -160.121094 198.449219 -154.75 194.867188 -149.015625 C 191.285156 -143.285156 188.0625 -137.195312 185.554688 -130.75 C 183.046875 -148.300781 177.316406 -160.839844 168.71875 -168.71875 C 160.121094 -176.242188 146.152344 -180.183594 127.164062 -180.183594 C 121.433594 -180.183594 115.703125 -178.390625 110.328125 -175.523438 C 104.957031 -172.660156 99.941406 -168.71875 95.285156 -164.0625 C 90.628906 -159.046875 86.328125 -153.675781 82.746094 -147.226562 C 79.164062 -140.777344 75.941406 -134.6875 73.792969 -128.242188 Z M 76.300781 -179.824219 "/></g></g></g><g fill="#f1e49d" fill-opacity="1"><g transform="translate(797.208454, 684.026437)"><g><path d="M 91.34375 7.164062 C 111.761719 7.164062 127.882812 4.65625 139.703125 -0.714844 C 151.167969 -6.089844 160.121094 -13.253906 165.851562 -22.210938 C 171.585938 -30.804688 175.167969 -40.835938 176.597656 -51.941406 C 178.03125 -63.046875 178.75 -74.507812 178.75 -86.328125 C 178.75 -96.71875 178.03125 -107.464844 177.316406 -118.925781 C 176.242188 -130.390625 173.015625 -140.777344 168.003906 -150.089844 C 162.988281 -159.40625 155.105469 -167.285156 144.359375 -173.375 C 133.613281 -179.464844 118.210938 -182.6875 98.507812 -182.6875 L 90.988281 -182.6875 C 70.210938 -181.613281 54.089844 -178.03125 42.628906 -172.300781 C 31.164062 -166.210938 22.925781 -158.6875 17.910156 -149.375 C 12.539062 -140.0625 9.3125 -130.03125 8.597656 -118.925781 C 7.523438 -107.824219 7.164062 -96.71875 7.164062 -85.613281 C 7.164062 -74.148438 7.878906 -63.046875 9.671875 -51.941406 C 11.105469 -40.835938 15.046875 -30.804688 20.777344 -22.210938 C 26.507812 -13.613281 35.105469 -6.449219 46.210938 -1.074219 C 57.3125 4.65625 72.359375 7.164062 91.34375 7.164062 Z M 92.0625 -123.226562 C 95.285156 -123.941406 98.152344 -124.300781 100.300781 -124.300781 C 104.597656 -124.300781 107.824219 -123.226562 109.972656 -121.433594 C 112.121094 -119.285156 113.554688 -116.777344 114.269531 -113.195312 C 114.988281 -109.613281 114.988281 -104.957031 114.988281 -99.941406 C 114.988281 -94.570312 114.988281 -88.480469 114.988281 -82.03125 C 114.988281 -74.507812 114.628906 -68.0625 114.628906 -62.6875 C 114.628906 -56.957031 113.910156 -52.300781 112.480469 -48.71875 C 111.046875 -45.136719 108.539062 -42.269531 105.671875 -40.476562 C 102.449219 -38.6875 97.792969 -37.96875 92.0625 -37.96875 C 86.328125 -37.96875 81.671875 -38.6875 78.808594 -40.476562 C 75.941406 -42.269531 73.792969 -45.136719 72.359375 -48.71875 C 70.925781 -52.300781 70.210938 -56.957031 70.210938 -62.6875 C 69.851562 -68.0625 69.851562 -74.507812 69.851562 -82.03125 C 69.851562 -89.554688 69.851562 -95.644531 70.210938 -100.65625 C 70.210938 -105.316406 70.925781 -109.253906 72.359375 -112.480469 C 73.792969 -115.34375 75.941406 -117.851562 78.808594 -119.285156 C 81.671875 -120.71875 86.328125 -122.152344 92.0625 -123.226562 Z M 61.972656 -192.359375 L 118.210938 -192.359375 L 160.839844 -247.167969 L 102.089844 -247.167969 C 102.089844 -247.167969 101.375 -245.734375 99.226562 -242.871094 C 97.074219 -240.003906 94.570312 -236.78125 91.703125 -232.839844 C 88.835938 -228.898438 85.613281 -224.601562 82.03125 -219.945312 C 78.449219 -214.929688 75.226562 -210.628906 72.359375 -206.691406 C 69.136719 -202.390625 66.628906 -199.167969 64.835938 -196.300781 Z M 61.972656 -192.359375 "/></g></g></g><g fill="#f1e49d" fill-opacity="1"><g transform="translate(990.285083, 684.026437)"><g><path d="M 75.226562 -175.523438 L 7.164062 -171.226562 C 7.164062 -154.03125 7.523438 -135.761719 7.878906 -117.136719 C 7.878906 -100.65625 7.878906 -82.390625 7.878906 -62.328125 C 7.878906 -41.910156 8.238281 -21.132812 8.238281 0 L 70.566406 0 L 70.566406 -116.777344 C 76.300781 -118.925781 80.597656 -120 83.820312 -120 C 88.835938 -120 91.703125 -117.496094 92.417969 -112.835938 C 93.136719 -107.824219 93.492188 -101.375 94.210938 -93.492188 L 162.628906 -100.65625 C 162.628906 -112.835938 162.269531 -123.941406 161.195312 -133.972656 C 159.761719 -143.644531 157.613281 -151.882812 154.75 -158.6875 C 151.523438 -165.136719 147.226562 -170.152344 142.210938 -173.734375 C 136.835938 -177.316406 130.03125 -179.105469 122.152344 -179.105469 C 111.40625 -179.105469 101.375 -175.167969 92.417969 -167.285156 C 83.105469 -159.40625 76.300781 -147.585938 71.644531 -131.464844 Z M 75.226562 -175.523438 "/></g></g></g><g fill="#f1e49d" fill-opacity="1"><g transform="translate(1154.704744, 684.026437)"><g><path d="M 7.878906 -114.628906 L 8.957031 0 L 74.867188 0 L 77.015625 -118.925781 Z M 5.730469 -174.09375 C 5.730469 -169.078125 6.089844 -164.421875 6.804688 -159.761719 C 7.523438 -155.105469 8.957031 -151.167969 11.460938 -147.585938 C 13.613281 -144.003906 17.195312 -140.777344 21.851562 -138.628906 C 26.507812 -136.480469 32.957031 -135.40625 40.835938 -135.40625 C 49.433594 -135.40625 55.882812 -136.480469 60.894531 -138.628906 C 65.554688 -140.777344 69.136719 -144.003906 71.644531 -147.585938 C 74.148438 -151.167969 75.582031 -155.464844 76.300781 -160.121094 C 77.015625 -164.777344 77.375 -169.433594 77.375 -174.449219 C 77.375 -178.75 77.015625 -183.046875 76.65625 -187.347656 C 76.300781 -191.644531 75.226562 -195.941406 73.074219 -199.523438 C 70.925781 -203.105469 67.34375 -205.972656 63.046875 -208.121094 C 58.390625 -210.273438 51.941406 -211.703125 44.058594 -211.703125 C 29.015625 -211.703125 18.984375 -208.839844 13.613281 -203.464844 C 8.238281 -197.734375 5.730469 -188.0625 5.730469 -174.09375 Z M 5.730469 -174.09375 "/></g></g></g><g fill="#f1e49d" fill-opacity="1"><g transform="translate(1239.601201, 684.026437)"><g><path d="M 7.164062 -41.554688 C 7.164062 -35.820312 7.878906 -30.804688 10.03125 -25.792969 C 12.179688 -20.777344 15.046875 -16.121094 18.984375 -12.539062 C 22.925781 -8.597656 27.941406 -5.375 34.386719 -3.222656 C 40.476562 -1.074219 47.640625 0 55.882812 0 C 66.628906 0 77.375 -2.148438 88.480469 -6.449219 C 99.582031 -10.746094 109.253906 -16.835938 117.851562 -24.714844 L 118.925781 0 L 173.734375 0 L 175.523438 -174.09375 C 160.839844 -174.808594 145.078125 -175.523438 127.882812 -176.242188 C 112.835938 -176.957031 95.644531 -177.316406 76.300781 -178.03125 C 56.957031 -178.390625 36.179688 -178.75 14.328125 -179.105469 L 14.328125 -103.164062 L 117.496094 -112.121094 L 117.496094 -65.910156 C 109.613281 -68.777344 100.300781 -71.644531 88.835938 -74.507812 C 77.375 -77.375 66.269531 -78.808594 54.808594 -78.808594 C 48.359375 -78.808594 42.269531 -78.089844 36.539062 -77.015625 C 30.804688 -75.582031 25.792969 -73.792969 21.492188 -70.925781 C 17.195312 -68.0625 13.613281 -64.121094 11.105469 -59.464844 C 8.238281 -54.449219 7.164062 -48.71875 7.164062 -41.554688 Z M 53.375 -39.761719 C 53.375 -43.703125 54.808594 -46.925781 58.390625 -49.074219 C 61.613281 -51.226562 65.910156 -52.65625 71.644531 -52.65625 C 74.507812 -52.65625 77.015625 -51.941406 79.882812 -50.507812 C 82.746094 -49.074219 85.253906 -47.640625 87.761719 -46.210938 C 89.910156 -44.058594 92.417969 -41.910156 94.925781 -39.761719 C 92.417969 -37.253906 89.910156 -35.105469 87.761719 -33.671875 C 85.253906 -31.882812 82.746094 -30.449219 79.882812 -29.015625 C 77.015625 -27.582031 74.507812 -27.222656 71.644531 -27.222656 C 65.910156 -27.222656 61.613281 -27.941406 58.390625 -30.089844 C 54.808594 -32.238281 53.375 -35.464844 53.375 -39.761719 Z M 53.375 -39.761719 "/></g></g></g></svg>