<svg xmlns="http://www.w3.org/2000/svg" xmlns:xlink="http://www.w3.org/1999/xlink" width="500" zoomAndPan="magnify" viewBox="0 0 375 374.999991" height="500" preserveAspectRatio="xMidYMid meet" version="1.0"><path fill="#6727bd" d="M 209.042969 220.210938 C 197.367188 233.050781 182.101562 240.410156 167.164062 240.410156 C 140.59375 240.410156 123.425781 222.773438 123.425781 195.484375 C 123.425781 177.324219 130.097656 160.1875 142.207031 147.234375 C 153.675781 134.96875 168.847656 127.929688 183.832031 127.929688 C 209.175781 127.929688 227.570312 147.164062 227.570312 173.652344 C 227.570312 190.300781 220.820312 207.269531 209.042969 220.210938 Z M 320.46875 51.246094 C 284.933594 18.199219 237.851562 0.00390625 187.902344 0.00390625 C 137.359375 0.00390625 89.992188 19.714844 54.527344 55.519531 C 19.367188 91.011719 0 138.03125 0 187.90625 C 0 292.832031 83.933594 375.019531 191.082031 375.019531 C 230.363281 375.019531 266.167969 365.308594 300.546875 345.335938 L 302.125 344.417969 L 303.660156 342.890625 C 305.589844 341.019531 310.714844 336.0625 310.714844 327.621094 C 310.714844 316.554688 301.550781 307.210938 290.703125 307.210938 C 288.074219 307.210938 283.804688 307.804688 280.441406 309.488281 L 279.722656 309.875 C 251.058594 326.371094 224.546875 333.402344 191.082031 333.402344 C 149.328125 333.402344 111.277344 318.328125 83.941406 290.945312 C 57.15625 264.113281 42.40625 227.523438 42.40625 187.90625 C 42.40625 148.582031 57.15625 111.871094 83.9375 84.523438 C 111.042969 56.855469 147.964844 41.613281 187.902344 41.613281 C 227.15625 41.613281 264.019531 56.039062 291.710938 82.226562 C 317.703125 106.804688 332.609375 139.246094 332.609375 171.234375 C 332.609375 194.117188 327.671875 212.585938 318.332031 224.644531 C 311.203125 233.867188 301.527344 238.941406 291.101562 238.941406 C 277.492188 238.941406 271.425781 233.363281 271.425781 220.847656 C 271.425781 217.160156 272.214844 209.007812 273.984375 199.105469 L 288.28125 118.875 C 289.765625 110.351562 287.539062 101.804688 282.171875 95.421875 C 276.992188 89.261719 269.398438 85.734375 261.335938 85.734375 C 250.871094 85.734375 242.085938 91.171875 237.175781 100.308594 C 223.363281 89.050781 206.289062 83.351562 186.316406 83.351562 C 160.359375 83.351562 133.863281 95.199219 113.617188 115.847656 C 92.308594 137.585938 80.574219 166.136719 80.574219 196.242188 C 80.574219 220.722656 89.511719 242.933594 105.742188 258.789062 C 121.417969 274.105469 142.707031 282.539062 165.679688 282.539062 C 189.285156 282.539062 209.851562 274.535156 228.394531 258.109375 C 241.4375 273.910156 261.925781 282.539062 286.738281 282.539062 C 310.339844 282.539062 332.128906 272.566406 348.085938 254.457031 C 365.707031 234.464844 375.015625 205.6875 375.015625 171.234375 C 375.015625 127.210938 355.132812 83.476562 320.46875 51.246094 " fill-opacity="1" fill-rule="nonzero"/></svg>