<svg xmlns="http://www.w3.org/2000/svg" xmlns:xlink="http://www.w3.org/1999/xlink" width="500" zoomAndPan="magnify" viewBox="0 0 375 374.999991" height="500" preserveAspectRatio="xMidYMid meet" version="1.0"><path fill="#6727bd" d="M 179.144531 176.546875 L 195.757812 176.546875 C 248.492188 176.546875 291.605469 219.660156 291.605469 272.394531 C 291.605469 287.375 279.351562 299.628906 264.371094 299.628906 L 110.730469 299.628906 C 95.679688 299.628906 83.394531 287.34375 83.394531 272.292969 C 83.394531 219.625 126.476562 176.546875 179.144531 176.546875 Z M 187.5 16.980469 C 93.316406 16.980469 16.945312 93.316406 16.945312 187.5 C 16.945312 281.683594 93.316406 358.054688 187.5 358.054688 C 281.683594 358.054688 358.054688 281.683594 358.054688 187.5 C 358.054688 93.316406 281.683594 16.980469 187.5 16.980469 Z M 187.5 0 C 291.070312 0 375 83.960938 375 187.5 C 375 291.039062 291.070312 375 187.5 375 C 83.960938 375 0 291.039062 0 187.5 C 0 83.960938 83.960938 0 187.5 0 Z M 187.5 55.398438 C 219.027344 55.398438 244.59375 80.964844 244.59375 112.492188 C 244.59375 144.019531 219.027344 169.589844 187.5 169.589844 C 155.972656 169.589844 130.40625 144.019531 130.40625 112.492188 C 130.40625 80.964844 155.972656 55.398438 187.5 55.398438 " fill-opacity="1" fill-rule="nonzero"/></svg>