<svg xmlns="http://www.w3.org/2000/svg" xmlns:xlink="http://www.w3.org/1999/xlink" width="500" zoomAndPan="magnify" viewBox="0 0 375 374.999991" height="500" preserveAspectRatio="xMidYMid meet" version="1.0"><defs><clipPath id="a6695f0f94"><path d="M 1.875 27.863281 L 373.125 27.863281 L 373.125 347.363281 L 1.875 347.363281 Z M 1.875 27.863281 " clip-rule="nonzero"/></clipPath></defs><g clip-path="url(#a6695f0f94)"><path fill="#ff5757" d="M 345.578125 55.457031 C 308.820312 18.699219 248.75 18.699219 212.082031 55.457031 L 187.546875 79.992188 L 163.011719 55.457031 C 126.25 18.699219 66.179688 18.699219 29.515625 55.457031 C -6.117188 91.085938 -7.148438 148.714844 26.316406 185.660156 L 112.714844 185.660156 L 125.3125 119.949219 C 125.875 116.847656 128.507812 114.589844 131.703125 114.402344 C 134.902344 114.214844 137.722656 116.28125 138.566406 119.289062 L 169.308594 223.925781 L 186.042969 155.953125 C 186.792969 153.039062 189.332031 150.878906 192.339844 150.785156 C 195.351562 150.597656 198.078125 152.476562 199.109375 155.390625 L 212.179688 192.523438 L 236.246094 119.101562 C 237.183594 116.28125 239.910156 114.308594 242.917969 114.402344 C 245.929688 114.496094 248.558594 116.46875 249.3125 119.382812 L 267.644531 185.660156 L 348.777344 185.660156 C 382.339844 148.714844 381.210938 91.085938 345.578125 55.457031 Z M 255.800781 194.3125 L 242.074219 144.859375 L 218.757812 215.933594 C 217.820312 218.753906 215.28125 220.632812 212.367188 220.632812 L 212.273438 220.632812 C 209.359375 220.632812 206.820312 218.847656 205.785156 216.027344 L 193.65625 181.527344 L 176.359375 251.75 C 175.609375 254.761719 172.976562 256.921875 169.871094 256.921875 L 169.683594 256.921875 C 166.675781 256.921875 163.949219 254.949219 163.105469 252.035156 L 133.300781 150.125 L 124.9375 193.746094 C 124.277344 196.945312 121.457031 199.292969 118.261719 199.292969 L 39.667969 199.292969 L 187.453125 347.078125 L 335.238281 199.292969 L 262.285156 199.292969 C 259.277344 199.292969 256.644531 197.226562 255.800781 194.3125 Z M 255.800781 194.3125 " fill-opacity="1" fill-rule="nonzero"/></g></svg>