<svg xmlns="http://www.w3.org/2000/svg" xmlns:xlink="http://www.w3.org/1999/xlink" width="500" zoomAndPan="magnify" viewBox="0 0 375 374.999991" height="500" preserveAspectRatio="xMidYMid meet" version="1.0"><path fill="#cf5784" d="M 145.089844 244.832031 C 144.902344 245.101562 144.691406 245.347656 144.496094 245.605469 L 144.53125 245.632812 C 137.648438 256.632812 105.441406 288.085938 45.132812 246 C -9.226562 208.066406 -1.003906 174.96875 9.347656 156.011719 C 10 154.527344 10.785156 153.109375 11.71875 151.765625 C 11.894531 151.515625 12.09375 151.285156 12.277344 151.042969 C 12.429688 150.796875 12.585938 150.542969 12.738281 150.304688 L 12.804688 150.351562 C 27.855469 131.75 68.042969 136.546875 103.984375 161.625 C 140.8125 187.328125 159.214844 224.582031 145.089844 244.832031 Z M 344.78125 75.429688 L 344.761719 75.460938 C 344.527344 75.324219 344.300781 75.179688 344.058594 75.054688 C 325.695312 65.496094 297.644531 83.050781 281.402344 114.265625 C 265.554688 144.722656 266.816406 176.921875 283.949219 187.34375 L 283.917969 187.398438 C 284.132812 187.5 284.359375 187.605469 284.582031 187.707031 C 284.800781 187.832031 285.015625 187.972656 285.242188 188.089844 C 286.460938 188.722656 287.722656 189.230469 289.015625 189.628906 C 305.832031 196.300781 333.921875 200.15625 357.894531 154.082031 C 384.488281 102.96875 354.652344 79.996094 344.78125 75.429688 Z M 250.515625 182.550781 L 250.496094 182.546875 C 250.527344 182.382812 250.566406 182.21875 250.59375 182.046875 C 252.550781 169.269531 236.535156 156.207031 214.820312 152.875 C 193.628906 149.625 174.847656 156.84375 172.132812 169.070312 L 172.09375 169.066406 C 172.074219 169.210938 172.058594 169.367188 172.042969 169.519531 C 172.015625 169.675781 171.976562 169.828125 171.953125 169.988281 C 171.820312 170.832031 171.777344 171.683594 171.800781 172.527344 C 171.234375 183.816406 174.605469 201.203125 206.65625 206.117188 C 242.21875 211.574219 249.800781 189.308594 250.515625 182.550781 Z M 254.722656 247.355469 C 222.382812 243.464844 194.339844 254.367188 190.964844 271.828125 L 190.90625 271.820312 C 190.886719 272.03125 190.875 272.253906 190.859375 272.46875 C 190.824219 272.691406 190.773438 272.910156 190.746094 273.136719 C 190.601562 274.34375 190.582031 275.550781 190.671875 276.75 C 190.503906 292.804688 196.671875 317.394531 245.589844 323.28125 C 299.859375 329.8125 310 297.917969 310.675781 288.296875 L 310.640625 288.289062 C 310.679688 288.050781 310.730469 287.820312 310.761719 287.578125 C 312.953125 269.351562 287.863281 251.34375 254.722656 247.355469 Z M 202.039062 66.0625 L 202.011719 66.070312 C 201.976562 65.882812 201.957031 65.695312 201.917969 65.511719 C 198.789062 51.488281 172.828125 45.34375 143.925781 51.789062 C 115.722656 58.078125 95.15625 74.03125 97.082031 87.832031 L 97.03125 87.84375 C 97.074219 88 97.121094 88.167969 97.167969 88.332031 C 97.199219 88.503906 97.21875 88.679688 97.257812 88.855469 C 97.464844 89.78125 97.777344 90.675781 98.179688 91.535156 C 102.410156 103.386719 114.289062 119.726562 156.949219 110.210938 C 204.273438 99.65625 204.097656 73.332031 202.039062 66.0625 Z M 202.039062 66.0625 " fill-opacity="1" fill-rule="nonzero"/><path fill="#a0325b" d="M 326.773438 136.484375 C 317.640625 158.484375 301.875 169.839844 292.9375 162.910156 C 285.222656 156.929688 285.371094 139.011719 292.355469 122.1875 C 299.339844 105.359375 311.925781 92.609375 321.605469 93.855469 C 332.820312 95.296875 335.90625 114.480469 326.773438 136.484375 Z M 252.089844 261.625 C 233.777344 260.1875 216.707031 263.75 213.597656 270.359375 C 209.988281 278.019531 226.027344 286.714844 249.96875 288.597656 C 273.914062 290.480469 291.113281 284.398438 288.746094 276.269531 C 286.707031 269.253906 270.402344 263.066406 252.089844 261.625 Z M 143.847656 60.148438 C 129.070312 64.027344 116.5625 71.226562 115.824219 76.894531 C 114.972656 83.464844 129.839844 85.5 149.167969 80.429688 C 168.496094 75.355469 180.449219 66.285156 176.484375 60.976562 C 173.058594 56.398438 158.628906 56.269531 143.847656 60.148438 Z M 101.015625 176.578125 C 83.46875 161.417969 62.984375 152.804688 54.234375 157.945312 C 44.09375 163.902344 53.210938 185.542969 76.15625 205.367188 C 99.101562 225.191406 121.835938 231.066406 126.253906 220.164062 C 130.0625 210.757812 118.566406 191.742188 101.015625 176.578125 Z M 239.214844 175.183594 C 238.355469 169.390625 227.222656 163.386719 214.246094 161.09375 C 201.273438 158.800781 188.757812 160.628906 185.96875 165.773438 C 182.730469 171.742188 193.457031 179.753906 210.421875 182.75 C 227.386719 185.746094 240.210938 181.898438 239.214844 175.183594 Z M 239.214844 175.183594 " fill-opacity="1" fill-rule="nonzero"/><path fill="#e47ca2" d="M 45.550781 189.6875 C 47.761719 192.589844 43.152344 196.066406 41.03125 193.101562 C 36.742188 187.097656 32.140625 181.207031 29.738281 174.128906 C 27.3125 166.992188 27.148438 159.300781 30.640625 152.492188 C 32.304688 149.246094 37.347656 152.089844 35.574219 155.273438 C 32.703125 160.417969 33.171875 167.011719 35.101562 172.390625 C 37.390625 178.773438 41.472656 184.34375 45.550781 189.6875 Z M 50.492188 196.734375 C 46.84375 196.734375 46.902344 202.394531 50.546875 202.394531 C 54.195312 202.394531 54.136719 196.734375 50.492188 196.734375 Z M 227.648438 296.722656 C 217.894531 295.53125 209.011719 288.921875 204.585938 280.238281 C 203.894531 278.878906 202.371094 278.09375 200.886719 278.714844 C 199.542969 279.277344 198.683594 281.042969 199.363281 282.417969 C 201.976562 287.703125 205.886719 292.28125 210.660156 295.746094 C 215.601562 299.332031 221.089844 301.261719 227.035156 302.351562 C 230.589844 303 231.300781 297.167969 227.648438 296.722656 Z M 237.421875 299.609375 C 233.769531 299.609375 233.96875 305.269531 237.609375 305.269531 C 241.261719 305.269531 241.0625 299.609375 237.421875 299.609375 Z M 248.742188 301.085938 C 245.089844 301.085938 245.289062 306.746094 248.925781 306.746094 C 252.578125 306.746094 252.378906 301.085938 248.742188 301.085938 Z M 343.261719 112.261719 C 341.109375 128.351562 336.007812 143.363281 326.8125 156.835938 C 324.785156 159.804688 329.050781 163.496094 331.136719 160.488281 C 340.867188 146.460938 347.160156 129.964844 348.835938 112.9375 C 349.144531 109.769531 343.6875 109.078125 343.261719 112.261719 Z M 320.242188 170.210938 C 320.097656 170.003906 319.953125 169.796875 319.808594 169.589844 C 319.46875 169.226562 319.0625 168.964844 318.585938 168.8125 C 318.351562 168.769531 318.113281 168.726562 317.875 168.683594 C 317.367188 168.65625 316.882812 168.761719 316.429688 168.996094 C 315.789062 169.316406 315.148438 169.636719 314.503906 169.957031 C 314.148438 170.117188 313.859375 170.347656 313.636719 170.65625 C 313.371094 170.914062 313.1875 171.226562 313.078125 171.585938 C 312.945312 171.9375 312.902344 172.296875 312.957031 172.660156 C 312.949219 173.042969 313.035156 173.40625 313.222656 173.746094 C 313.363281 173.957031 313.503906 174.167969 313.644531 174.378906 C 313.976562 174.746094 314.378906 175.011719 314.851562 175.175781 C 315.085938 175.222656 315.324219 175.269531 315.558594 175.316406 C 316.070312 175.351562 316.554688 175.257812 317.011719 175.03125 C 317.683594 174.695312 318.355469 174.359375 319.023438 174.023438 C 319.378906 173.859375 319.664062 173.621094 319.882812 173.308594 C 320.140625 173.046875 320.320312 172.734375 320.421875 172.371094 C 320.550781 172.015625 320.585938 171.65625 320.523438 171.292969 C 320.527344 170.910156 320.433594 170.550781 320.242188 170.210938 Z M 207.160156 195.167969 C 208.957031 195.316406 210.53125 193.75 210.257812 191.929688 C 209.976562 190.058594 208.296875 189.652344 206.734375 189.28125 C 202.886719 188.363281 199.148438 186.953125 195.605469 185.195312 C 190.898438 182.867188 186.554688 179.878906 182.722656 176.28125 C 180.074219 173.796875 176.355469 178.136719 179.054688 180.59375 C 185.289062 186.277344 192.625 190.714844 200.636719 193.386719 C 202.679688 194.066406 204.992188 194.984375 207.160156 195.167969 Z M 216.242188 195.996094 C 218.164062 196 220.085938 195.988281 222.007812 195.976562 C 222.292969 195.984375 222.578125 195.988281 222.863281 195.996094 C 223.570312 196.011719 224.394531 195.574219 224.855469 195.0625 C 225.3125 194.554688 225.636719 193.746094 225.582031 193.054688 C 225.453125 191.511719 224.222656 190.296875 222.640625 190.339844 C 222.453125 190.34375 222.261719 190.347656 222.074219 190.351562 C 220.207031 190.328125 218.335938 190.335938 216.46875 190.339844 C 215.722656 190.339844 214.992188 190.574219 214.433594 191.089844 C 213.925781 191.558594 213.527344 192.347656 213.527344 193.054688 C 213.53125 193.789062 213.742188 194.558594 214.277344 195.089844 C 214.800781 195.605469 215.488281 195.996094 216.242188 195.996094 Z M 172.316406 77.804688 C 170.640625 77.429688 169.589844 78.710938 168.5 79.738281 C 165.777344 82.292969 162.503906 84.359375 159.058594 85.796875 C 155.136719 87.429688 150.972656 88.332031 146.71875 88.398438 C 145.191406 88.421875 143.800781 89.34375 143.660156 90.976562 C 143.535156 92.398438 144.699219 94.039062 146.234375 94.039062 C 154.238281 94.03125 162.160156 91.515625 168.679688 86.859375 C 169.449219 86.3125 170.191406 85.730469 170.910156 85.121094 C 171.9375 84.253906 173.578125 83.09375 174.210938 81.867188 C 175.042969 80.257812 174.078125 78.203125 172.316406 77.804688 Z M 177.5 70.726562 C 173.855469 70.726562 173.808594 76.386719 177.457031 76.386719 C 181.105469 76.386719 181.152344 70.726562 177.5 70.726562 Z M 177.5 70.726562 " fill-opacity="1" fill-rule="nonzero"/></svg>