<svg xmlns="http://www.w3.org/2000/svg" xmlns:xlink="http://www.w3.org/1999/xlink" width="500" zoomAndPan="magnify" viewBox="0 0 375 374.999991" height="500" preserveAspectRatio="xMidYMid meet" version="1.0"><defs><clipPath id="c699d229d7"><path d="M 14.136719 14.355469 L 360.636719 14.355469 L 360.636719 360.855469 L 14.136719 360.855469 Z M 14.136719 14.355469 " clip-rule="nonzero"/></clipPath><clipPath id="4c17adc683"><path d="M 29.140625 29.367188 L 311.539062 29.367188 L 311.539062 294 L 29.140625 294 Z M 29.140625 29.367188 " clip-rule="nonzero"/></clipPath><clipPath id="0ebf64f374"><path d="M 343.011719 311.625 C 343.011719 329.140625 328.832031 343.335938 311.339844 343.335938 L 61.480469 343.335938 C 43.988281 343.335938 29.808594 329.140625 29.808594 311.625 L 29.808594 61.449219 C 29.808594 43.9375 43.988281 29.738281 61.480469 29.738281 L 311.339844 29.738281 C 328.832031 29.738281 343.011719 43.9375 343.011719 61.449219 L 343.011719 311.625 " clip-rule="nonzero"/></clipPath><clipPath id="21aee30016"><path d="M 30.167969 30.394531 L 343.375 30.394531 L 343.375 343.992188 L 30.167969 343.992188 Z M 30.167969 30.394531 " clip-rule="nonzero"/></clipPath><clipPath id="eb22321114"><path d="M 343.011719 311.625 C 343.011719 329.140625 328.832031 343.335938 311.339844 343.335938 L 61.480469 343.335938 C 43.988281 343.335938 29.808594 329.140625 29.808594 311.625 L 29.808594 61.449219 C 29.808594 43.9375 43.988281 29.738281 61.480469 29.738281 L 311.339844 29.738281 C 328.832031 29.738281 343.011719 43.9375 343.011719 61.449219 L 343.011719 311.625 " clip-rule="nonzero"/></clipPath></defs><g clip-path="url(#c699d229d7)"><path fill="#52b3e8" d="M 360.472656 325.851562 C 360.472656 345.160156 344.835938 360.816406 325.546875 360.816406 L 49.328125 360.816406 C 30.039062 360.816406 14.402344 345.160156 14.402344 325.851562 L 14.402344 49.277344 C 14.402344 29.96875 30.039062 14.316406 49.328125 14.316406 L 325.546875 14.316406 C 344.835938 14.316406 360.472656 29.96875 360.472656 49.277344 L 360.472656 325.851562 " fill-opacity="1" fill-rule="nonzero"/></g><path fill="#232a42" d="M 345.066406 313.679688 C 345.066406 331.195312 330.886719 345.394531 313.394531 345.394531 L 62.507812 345.394531 C 45.015625 345.394531 30.835938 331.195312 30.835938 313.679688 L 30.835938 62.480469 C 30.835938 44.964844 45.015625 30.769531 62.507812 30.769531 L 313.394531 30.769531 C 330.886719 30.769531 345.066406 44.964844 345.066406 62.480469 L 345.066406 313.679688 " fill-opacity="1" fill-rule="nonzero"/><g clip-path="url(#4c17adc683)"><g clip-path="url(#0ebf64f374)"><path fill="#68c4ef" d="M 30.835938 293.984375 L 29.808594 293.984375 L 29.808594 290.898438 L 30.835938 290.898438 L 30.835938 293.984375 M 30.835938 254.914062 L 29.808594 254.914062 L 29.808594 252.855469 L 30.835938 252.855469 L 30.835938 254.914062 M 30.835938 217.898438 L 29.808594 217.898438 L 29.808594 216.871094 L 30.835938 216.871094 L 30.835938 217.898438 M 30.835938 142.839844 L 29.808594 142.839844 L 29.808594 141.8125 L 30.835938 141.8125 L 30.835938 142.839844 M 30.835938 105.824219 L 29.808594 105.824219 L 29.808594 103.769531 L 30.835938 103.769531 L 30.835938 105.824219 M 30.835938 66.753906 L 29.808594 66.753906 L 29.808594 65.726562 L 30.835938 65.726562 L 30.835938 66.753906 M 35.96875 45.164062 L 35.96875 42.652344 C 36.609375 41.78125 37.296875 40.945312 38.023438 40.140625 L 38.023438 42.363281 C 37.289062 43.253906 36.601562 44.191406 35.96875 45.164062 M 56.507812 31.332031 L 56.507812 30.125 L 56.507812 31.332031 M 300.910156 30.769531 L 299.882812 30.769531 L 299.882812 29.738281 L 281.398438 29.738281 L 281.398438 30.769531 L 281.398438 29.738281 L 262.914062 29.738281 L 262.914062 30.769531 L 261.886719 30.769531 L 261.886719 29.738281 L 243.402344 29.738281 L 243.402344 30.769531 L 243.402344 29.738281 L 224.917969 29.738281 L 224.917969 30.769531 L 223.890625 30.769531 L 223.890625 29.738281 L 206.433594 29.738281 L 206.433594 30.769531 L 206.433594 29.738281 L 187.949219 29.738281 L 187.949219 30.769531 L 186.925781 30.769531 L 186.925781 29.738281 L 168.441406 29.738281 L 168.441406 30.769531 L 168.441406 29.738281 L 150.980469 29.738281 L 150.980469 30.769531 L 149.957031 30.769531 L 149.957031 29.738281 L 131.472656 29.738281 L 131.472656 30.769531 L 131.472656 29.738281 L 112.988281 29.738281 L 112.988281 30.769531 L 111.960938 30.769531 L 111.960938 29.738281 L 93.476562 29.738281 L 93.476562 30.769531 L 93.476562 29.738281 L 74.992188 29.738281 L 74.992188 30.769531 L 73.964844 30.769531 L 73.964844 29.738281 L 61.480469 29.738281 L 311.339844 29.738281 L 300.910156 29.738281 L 300.910156 30.769531 " fill-opacity="1" fill-rule="nonzero"/></g></g><g clip-path="url(#21aee30016)"><g clip-path="url(#eb22321114)"><path fill="#466986" d="M 300.910156 343.335938 L 299.882812 343.335938 L 299.882812 331 L 262.914062 331 L 262.914062 343.335938 L 261.886719 343.335938 L 261.886719 331 L 224.917969 331 L 224.917969 343.335938 L 223.890625 343.335938 L 223.890625 331 L 187.949219 331 L 187.949219 343.335938 L 186.925781 343.335938 L 186.925781 331 L 150.980469 331 L 150.980469 343.335938 L 149.957031 343.335938 L 149.957031 331 L 112.988281 331 L 112.988281 343.335938 L 111.960938 343.335938 L 111.960938 331 L 74.992188 331 L 74.992188 343.335938 L 73.964844 343.335938 L 73.964844 331 L 38.023438 331 L 38.023438 332.929688 C 37.171875 331.996094 36.378906 331.007812 35.644531 329.972656 L 35.96875 329.972656 L 35.96875 293.984375 L 30.835938 293.984375 L 30.835938 290.898438 L 35.96875 290.898438 L 35.96875 254.914062 L 30.835938 254.914062 L 30.835938 252.855469 L 35.96875 252.855469 L 35.96875 217.898438 L 30.835938 217.898438 L 30.835938 216.871094 L 35.96875 216.871094 L 35.96875 142.839844 L 30.835938 142.839844 L 30.835938 141.8125 L 35.96875 141.8125 L 35.96875 105.824219 L 30.835938 105.824219 L 30.835938 103.769531 L 35.96875 103.769531 L 35.96875 66.753906 L 30.835938 66.753906 L 30.835938 65.726562 L 35.96875 65.726562 L 35.96875 45.164062 C 36.601562 44.191406 37.289062 43.253906 38.023438 42.363281 L 38.023438 65.726562 L 56.507812 65.726562 L 56.507812 31.332031 L 56.507812 49.273438 L 73.964844 49.273438 L 73.964844 30.769531 L 74.992188 30.769531 L 74.992188 49.273438 L 93.476562 49.273438 L 93.476562 30.769531 L 93.476562 49.273438 L 111.960938 49.273438 L 111.960938 30.769531 L 112.988281 30.769531 L 112.988281 49.273438 L 131.472656 49.273438 L 131.472656 30.769531 L 131.472656 49.273438 L 149.957031 49.273438 L 149.957031 30.769531 L 150.980469 30.769531 L 150.980469 49.273438 L 168.441406 49.273438 L 168.441406 30.769531 L 168.441406 49.273438 L 186.925781 49.273438 L 186.925781 30.769531 L 187.949219 30.769531 L 187.949219 49.273438 L 206.433594 49.273438 L 206.433594 30.769531 L 206.433594 49.273438 L 223.890625 49.273438 L 223.890625 30.769531 L 224.917969 30.769531 L 224.917969 49.273438 L 243.402344 49.273438 L 243.402344 30.769531 L 243.402344 49.273438 L 261.886719 49.273438 L 261.886719 30.769531 L 262.914062 30.769531 L 262.914062 49.273438 L 281.398438 49.273438 L 281.398438 30.769531 L 281.398438 49.273438 L 299.882812 49.273438 L 299.882812 30.769531 L 300.910156 30.769531 L 300.910156 49.273438 L 318.367188 49.273438 L 300.910156 49.273438 L 300.910156 65.726562 L 336.851562 65.726562 L 336.851562 49.273438 L 318.367188 49.273438 L 336.851562 49.273438 L 336.851562 42.652344 C 337.597656 43.664062 338.285156 44.722656 338.90625 45.820312 L 338.90625 49.273438 L 340.59375 49.273438 L 338.90625 49.273438 L 338.90625 65.726562 L 343.011719 65.726562 L 343.011719 66.753906 L 338.90625 66.753906 L 338.90625 86.289062 L 343.011719 86.289062 L 338.90625 86.289062 L 338.90625 103.769531 L 343.011719 103.769531 L 343.011719 105.824219 L 338.90625 105.824219 L 338.90625 123.304688 L 343.011719 123.304688 L 338.90625 123.304688 L 338.90625 141.8125 L 343.011719 141.8125 L 343.011719 142.839844 L 338.90625 142.839844 L 338.90625 161.347656 L 343.011719 161.347656 L 338.90625 161.347656 L 338.90625 179.855469 L 343.011719 179.855469 L 338.90625 179.855469 L 338.90625 199.390625 L 343.011719 199.390625 L 338.90625 199.390625 L 338.90625 216.871094 L 343.011719 216.871094 L 343.011719 217.898438 L 338.90625 217.898438 L 338.90625 237.433594 L 343.011719 237.433594 L 338.90625 237.433594 L 338.90625 252.855469 L 343.011719 252.855469 L 343.011719 254.914062 L 338.90625 254.914062 L 338.90625 273.421875 L 343.011719 273.421875 L 338.90625 273.421875 L 338.90625 290.898438 L 343.011719 290.898438 L 343.011719 293.984375 L 338.90625 293.984375 L 338.90625 310.433594 L 343.011719 310.433594 L 338.90625 310.433594 L 338.90625 327.253906 C 338.164062 328.5625 337.332031 329.8125 336.417969 331 L 300.910156 331 L 300.910156 343.335938 M 318.367188 329.972656 L 336.851562 329.972656 L 336.851562 310.433594 L 318.367188 310.433594 L 336.851562 310.433594 L 336.851562 293.984375 L 300.910156 293.984375 L 300.910156 329.972656 L 318.367188 329.972656 M 281.398438 329.972656 L 299.882812 329.972656 L 299.882812 293.984375 L 262.914062 293.984375 L 262.914062 329.972656 L 281.398438 329.972656 M 243.402344 329.972656 L 261.886719 329.972656 L 261.886719 293.984375 L 224.917969 293.984375 L 224.917969 329.972656 L 243.402344 329.972656 M 206.433594 329.972656 L 223.890625 329.972656 L 223.890625 293.984375 L 187.949219 293.984375 L 187.949219 329.972656 L 206.433594 329.972656 M 168.441406 329.972656 L 186.925781 329.972656 L 186.925781 293.984375 L 150.980469 293.984375 L 150.980469 329.972656 L 168.441406 329.972656 M 131.472656 329.972656 L 149.957031 329.972656 L 149.957031 293.984375 L 112.988281 293.984375 L 112.988281 329.972656 L 131.472656 329.972656 M 93.476562 329.972656 L 111.960938 329.972656 L 111.960938 293.984375 L 74.992188 293.984375 L 74.992188 329.972656 L 93.476562 329.972656 M 56.507812 329.972656 L 73.964844 329.972656 L 73.964844 293.984375 L 56.507812 293.984375 L 56.507812 310.433594 L 56.507812 293.984375 L 38.023438 293.984375 L 38.023438 329.972656 L 56.507812 329.972656 M 318.367188 290.898438 L 336.851562 290.898438 L 336.851562 273.421875 L 318.367188 273.421875 L 336.851562 273.421875 L 336.851562 254.914062 L 300.910156 254.914062 L 300.910156 273.421875 L 318.367188 273.421875 L 300.910156 273.421875 L 300.910156 290.898438 L 318.367188 290.898438 M 281.398438 290.898438 L 299.882812 290.898438 L 299.882812 273.421875 L 281.398438 273.421875 L 299.882812 273.421875 L 299.882812 254.914062 L 262.914062 254.914062 L 262.914062 290.898438 L 281.398438 290.898438 M 243.402344 290.898438 L 261.886719 290.898438 L 261.886719 254.914062 L 224.917969 254.914062 L 224.917969 290.898438 L 243.402344 290.898438 M 206.433594 290.898438 L 223.890625 290.898438 L 223.890625 254.914062 L 187.949219 254.914062 L 187.949219 290.898438 L 206.433594 290.898438 M 168.441406 290.898438 L 186.925781 290.898438 L 186.925781 254.914062 L 150.980469 254.914062 L 150.980469 290.898438 L 168.441406 290.898438 M 131.472656 290.898438 L 149.957031 290.898438 L 149.957031 254.914062 L 112.988281 254.914062 L 112.988281 290.898438 L 131.472656 290.898438 M 93.476562 290.898438 L 111.960938 290.898438 L 111.960938 254.914062 L 93.476562 254.914062 L 93.476562 273.421875 L 93.476562 254.914062 L 74.992188 254.914062 L 74.992188 290.898438 L 93.476562 290.898438 M 56.507812 273.421875 L 56.507812 290.898438 L 73.964844 290.898438 L 73.964844 254.914062 L 56.507812 254.914062 L 56.507812 273.421875 M 38.023438 273.421875 L 38.023438 290.898438 L 56.507812 290.898438 L 56.507812 254.914062 L 38.023438 254.914062 L 38.023438 273.421875 M 318.367188 252.855469 L 336.851562 252.855469 L 336.851562 237.433594 L 318.367188 237.433594 L 336.851562 237.433594 L 336.851562 217.898438 L 300.910156 217.898438 L 300.910156 237.433594 L 318.367188 237.433594 L 300.910156 237.433594 L 300.910156 252.855469 L 318.367188 252.855469 M 281.398438 252.855469 L 299.882812 252.855469 L 299.882812 237.433594 L 281.398438 237.433594 L 299.882812 237.433594 L 299.882812 217.898438 L 262.914062 217.898438 L 262.914062 237.433594 L 281.398438 237.433594 L 262.914062 237.433594 L 262.914062 252.855469 L 281.398438 252.855469 M 243.402344 252.855469 L 261.886719 252.855469 L 261.886719 237.433594 L 243.402344 237.433594 L 261.886719 237.433594 L 261.886719 217.898438 L 224.917969 217.898438 L 224.917969 252.855469 L 243.402344 252.855469 M 206.433594 252.855469 L 223.890625 252.855469 L 223.890625 217.898438 L 187.949219 217.898438 L 187.949219 252.855469 L 206.433594 252.855469 M 168.441406 252.855469 L 186.925781 252.855469 L 186.925781 217.898438 L 150.980469 217.898438 L 150.980469 252.855469 L 168.441406 252.855469 M 131.472656 252.855469 L 149.957031 252.855469 L 149.957031 217.898438 L 131.472656 217.898438 L 131.472656 237.433594 L 131.472656 217.898438 L 112.988281 217.898438 L 112.988281 252.855469 L 131.472656 252.855469 M 93.476562 237.433594 L 93.476562 252.855469 L 111.960938 252.855469 L 111.960938 217.898438 L 93.476562 217.898438 L 93.476562 237.433594 M 74.992188 237.433594 L 74.992188 252.855469 L 93.476562 252.855469 L 93.476562 217.898438 L 74.992188 217.898438 L 74.992188 237.433594 M 56.507812 237.433594 L 56.507812 252.855469 L 73.964844 252.855469 L 73.964844 217.898438 L 56.507812 217.898438 L 56.507812 237.433594 M 38.023438 237.433594 L 38.023438 252.855469 L 56.507812 252.855469 L 56.507812 217.898438 L 38.023438 217.898438 L 38.023438 237.433594 M 318.367188 216.871094 L 336.851562 216.871094 L 336.851562 199.390625 L 318.367188 199.390625 L 336.851562 199.390625 L 336.851562 179.855469 L 318.367188 179.855469 L 336.851562 179.855469 L 336.851562 161.347656 L 318.367188 161.347656 L 336.851562 161.347656 L 336.851562 142.839844 L 300.910156 142.839844 L 300.910156 161.347656 L 318.367188 161.347656 L 300.910156 161.347656 L 300.910156 179.855469 L 318.367188 179.855469 L 300.910156 179.855469 L 300.910156 199.390625 L 318.367188 199.390625 L 300.910156 199.390625 L 300.910156 216.871094 L 318.367188 216.871094 M 281.398438 216.871094 L 299.882812 216.871094 L 299.882812 199.390625 L 281.398438 199.390625 L 299.882812 199.390625 L 299.882812 179.855469 L 281.398438 179.855469 L 299.882812 179.855469 L 299.882812 161.347656 L 281.398438 161.347656 L 299.882812 161.347656 L 299.882812 142.839844 L 262.914062 142.839844 L 262.914062 161.347656 L 281.398438 161.347656 L 262.914062 161.347656 L 262.914062 179.855469 L 281.398438 179.855469 L 262.914062 179.855469 L 262.914062 199.390625 L 281.398438 199.390625 L 262.914062 199.390625 L 262.914062 216.871094 L 281.398438 216.871094 M 243.402344 216.871094 L 261.886719 216.871094 L 261.886719 199.390625 L 243.402344 199.390625 L 261.886719 199.390625 L 261.886719 179.855469 L 243.402344 179.855469 L 261.886719 179.855469 L 261.886719 161.347656 L 243.402344 161.347656 L 261.886719 161.347656 L 261.886719 142.839844 L 224.917969 142.839844 L 224.917969 161.347656 L 243.402344 161.347656 L 224.917969 161.347656 L 224.917969 179.855469 L 243.402344 179.855469 L 224.917969 179.855469 L 224.917969 199.390625 L 243.402344 199.390625 L 224.917969 199.390625 L 224.917969 216.871094 L 243.402344 216.871094 M 206.433594 216.871094 L 223.890625 216.871094 L 223.890625 199.390625 L 206.433594 199.390625 L 223.890625 199.390625 L 223.890625 179.855469 L 206.433594 179.855469 L 223.890625 179.855469 L 223.890625 161.347656 L 206.433594 161.347656 L 223.890625 161.347656 L 223.890625 142.839844 L 187.949219 142.839844 L 187.949219 161.347656 L 206.433594 161.347656 L 187.949219 161.347656 L 187.949219 179.855469 L 206.433594 179.855469 L 187.949219 179.855469 L 187.949219 216.871094 L 206.433594 216.871094 M 168.441406 216.871094 L 186.925781 216.871094 L 186.925781 179.855469 L 168.441406 179.855469 L 168.441406 199.390625 L 168.441406 142.839844 L 150.980469 142.839844 L 150.980469 216.871094 L 168.441406 216.871094 M 131.472656 199.390625 L 131.472656 216.871094 L 149.957031 216.871094 L 149.957031 142.839844 L 131.472656 142.839844 L 131.472656 199.390625 M 112.988281 199.390625 L 112.988281 216.871094 L 131.472656 216.871094 L 131.472656 142.839844 L 112.988281 142.839844 L 112.988281 199.390625 M 93.476562 199.390625 L 93.476562 216.871094 L 111.960938 216.871094 L 111.960938 142.839844 L 93.476562 142.839844 L 93.476562 199.390625 M 74.992188 199.390625 L 74.992188 216.871094 L 93.476562 216.871094 L 93.476562 142.839844 L 74.992188 142.839844 L 74.992188 199.390625 M 56.507812 199.390625 L 56.507812 216.871094 L 73.964844 216.871094 L 73.964844 142.839844 L 56.507812 142.839844 L 56.507812 199.390625 M 38.023438 199.390625 L 38.023438 216.871094 L 56.507812 216.871094 L 56.507812 142.839844 L 38.023438 142.839844 L 38.023438 199.390625 M 168.441406 161.347656 L 168.441406 179.855469 L 186.925781 179.855469 L 186.925781 161.347656 L 168.441406 161.347656 M 168.441406 142.839844 L 168.441406 161.347656 L 186.925781 161.347656 L 186.925781 142.839844 L 168.441406 142.839844 M 318.367188 141.8125 L 336.851562 141.8125 L 336.851562 123.304688 L 318.367188 123.304688 L 336.851562 123.304688 L 336.851562 105.824219 L 300.910156 105.824219 L 300.910156 123.304688 L 318.367188 123.304688 L 300.910156 123.304688 L 300.910156 141.8125 L 318.367188 141.8125 M 281.398438 141.8125 L 299.882812 141.8125 L 299.882812 123.304688 L 281.398438 123.304688 L 299.882812 123.304688 L 299.882812 105.824219 L 262.914062 105.824219 L 262.914062 123.304688 L 281.398438 123.304688 L 262.914062 123.304688 L 262.914062 141.8125 L 281.398438 141.8125 M 243.402344 141.8125 L 261.886719 141.8125 L 261.886719 123.304688 L 243.402344 123.304688 L 261.886719 123.304688 L 261.886719 105.824219 L 224.917969 105.824219 L 224.917969 123.304688 L 243.402344 123.304688 L 224.917969 123.304688 L 224.917969 141.8125 L 243.402344 141.8125 M 206.433594 123.304688 L 206.433594 141.8125 L 223.890625 141.8125 L 223.890625 123.304688 L 206.433594 123.304688 M 187.949219 123.304688 L 187.949219 141.8125 L 206.433594 141.8125 L 206.433594 123.304688 L 187.949219 123.304688 M 168.441406 123.304688 L 168.441406 141.8125 L 186.925781 141.8125 L 186.925781 123.304688 L 168.441406 123.304688 M 150.980469 123.304688 L 150.980469 141.8125 L 168.441406 141.8125 L 168.441406 123.304688 L 150.980469 123.304688 M 131.472656 123.304688 L 131.472656 141.8125 L 149.957031 141.8125 L 149.957031 123.304688 L 131.472656 123.304688 M 112.988281 123.304688 L 112.988281 141.8125 L 131.472656 141.8125 L 131.472656 105.824219 L 112.988281 105.824219 L 112.988281 123.304688 M 93.476562 123.304688 L 93.476562 141.8125 L 111.960938 141.8125 L 111.960938 105.824219 L 93.476562 105.824219 L 93.476562 123.304688 M 74.992188 123.304688 L 74.992188 141.8125 L 93.476562 141.8125 L 93.476562 105.824219 L 74.992188 105.824219 L 74.992188 123.304688 M 56.507812 123.304688 L 56.507812 141.8125 L 73.964844 141.8125 L 73.964844 105.824219 L 56.507812 105.824219 L 56.507812 123.304688 M 38.023438 123.304688 L 38.023438 141.8125 L 56.507812 141.8125 L 56.507812 105.824219 L 38.023438 105.824219 L 38.023438 123.304688 M 206.433594 105.824219 L 206.433594 123.304688 L 223.890625 123.304688 L 223.890625 105.824219 L 206.433594 105.824219 M 187.949219 105.824219 L 187.949219 123.304688 L 206.433594 123.304688 L 206.433594 105.824219 L 187.949219 105.824219 M 168.441406 105.824219 L 168.441406 123.304688 L 186.925781 123.304688 L 186.925781 105.824219 L 168.441406 105.824219 M 150.980469 105.824219 L 150.980469 123.304688 L 168.441406 123.304688 L 168.441406 105.824219 L 150.980469 105.824219 M 131.472656 105.824219 L 131.472656 123.304688 L 149.957031 123.304688 L 149.957031 105.824219 L 131.472656 105.824219 M 318.367188 103.769531 L 336.851562 103.769531 L 336.851562 86.289062 L 318.367188 86.289062 L 336.851562 86.289062 L 336.851562 66.753906 L 300.910156 66.753906 L 300.910156 86.289062 L 318.367188 86.289062 L 300.910156 86.289062 L 300.910156 103.769531 L 318.367188 103.769531 M 281.398438 103.769531 L 299.882812 103.769531 L 299.882812 86.289062 L 281.398438 86.289062 L 299.882812 86.289062 L 299.882812 66.753906 L 262.914062 66.753906 L 262.914062 86.289062 L 281.398438 86.289062 L 262.914062 86.289062 L 262.914062 103.769531 L 281.398438 103.769531 M 243.402344 86.289062 L 243.402344 103.769531 L 261.886719 103.769531 L 261.886719 86.289062 L 243.402344 86.289062 M 224.917969 86.289062 L 224.917969 103.769531 L 243.402344 103.769531 L 243.402344 86.289062 L 224.917969 86.289062 M 206.433594 86.289062 L 206.433594 103.769531 L 223.890625 103.769531 L 223.890625 86.289062 L 206.433594 86.289062 M 187.949219 86.289062 L 187.949219 103.769531 L 206.433594 103.769531 L 206.433594 86.289062 L 187.949219 86.289062 M 168.441406 86.289062 L 168.441406 103.769531 L 186.925781 103.769531 L 186.925781 86.289062 L 168.441406 86.289062 M 150.980469 86.289062 L 150.980469 103.769531 L 168.441406 103.769531 L 168.441406 86.289062 L 150.980469 86.289062 M 131.472656 86.289062 L 131.472656 103.769531 L 149.957031 103.769531 L 149.957031 86.289062 L 131.472656 86.289062 M 112.988281 86.289062 L 112.988281 103.769531 L 131.472656 103.769531 L 131.472656 86.289062 L 112.988281 86.289062 M 93.476562 86.289062 L 93.476562 103.769531 L 111.960938 103.769531 L 111.960938 86.289062 L 93.476562 86.289062 M 74.992188 86.289062 L 74.992188 103.769531 L 93.476562 103.769531 L 93.476562 66.753906 L 74.992188 66.753906 L 74.992188 86.289062 M 56.507812 86.289062 L 56.507812 103.769531 L 73.964844 103.769531 L 73.964844 66.753906 L 56.507812 66.753906 L 56.507812 86.289062 M 38.023438 86.289062 L 38.023438 103.769531 L 56.507812 103.769531 L 56.507812 66.753906 L 38.023438 66.753906 L 38.023438 86.289062 M 243.402344 66.753906 L 243.402344 86.289062 L 261.886719 86.289062 L 261.886719 66.753906 L 243.402344 66.753906 M 224.917969 66.753906 L 224.917969 86.289062 L 243.402344 86.289062 L 243.402344 66.753906 L 224.917969 66.753906 M 206.433594 66.753906 L 206.433594 86.289062 L 223.890625 86.289062 L 223.890625 66.753906 L 206.433594 66.753906 M 187.949219 66.753906 L 187.949219 86.289062 L 206.433594 86.289062 L 206.433594 66.753906 L 187.949219 66.753906 M 168.441406 66.753906 L 168.441406 86.289062 L 186.925781 86.289062 L 186.925781 66.753906 L 168.441406 66.753906 M 150.980469 66.753906 L 150.980469 86.289062 L 168.441406 86.289062 L 168.441406 66.753906 L 150.980469 66.753906 M 131.472656 66.753906 L 131.472656 86.289062 L 149.957031 86.289062 L 149.957031 66.753906 L 131.472656 66.753906 M 112.988281 66.753906 L 112.988281 86.289062 L 131.472656 86.289062 L 131.472656 66.753906 L 112.988281 66.753906 M 93.476562 66.753906 L 93.476562 86.289062 L 111.960938 86.289062 L 111.960938 66.753906 L 93.476562 66.753906 M 281.398438 49.273438 L 281.398438 65.726562 L 299.882812 65.726562 L 299.882812 49.273438 L 281.398438 49.273438 M 262.914062 49.273438 L 262.914062 65.726562 L 281.398438 65.726562 L 281.398438 49.273438 L 262.914062 49.273438 M 243.402344 49.273438 L 243.402344 65.726562 L 261.886719 65.726562 L 261.886719 49.273438 L 243.402344 49.273438 M 224.917969 49.273438 L 224.917969 65.726562 L 243.402344 65.726562 L 243.402344 49.273438 L 224.917969 49.273438 M 206.433594 49.273438 L 206.433594 65.726562 L 223.890625 65.726562 L 223.890625 49.273438 L 206.433594 49.273438 M 187.949219 49.273438 L 187.949219 65.726562 L 206.433594 65.726562 L 206.433594 49.273438 L 187.949219 49.273438 M 168.441406 49.273438 L 168.441406 65.726562 L 186.925781 65.726562 L 186.925781 49.273438 L 168.441406 49.273438 M 150.980469 49.273438 L 150.980469 65.726562 L 168.441406 65.726562 L 168.441406 49.273438 L 150.980469 49.273438 M 131.472656 49.273438 L 131.472656 65.726562 L 149.957031 65.726562 L 149.957031 49.273438 L 131.472656 49.273438 M 112.988281 49.273438 L 112.988281 65.726562 L 131.472656 65.726562 L 131.472656 49.273438 L 112.988281 49.273438 M 93.476562 49.273438 L 93.476562 65.726562 L 111.960938 65.726562 L 111.960938 49.273438 L 93.476562 49.273438 M 74.992188 49.273438 L 74.992188 65.726562 L 93.476562 65.726562 L 93.476562 49.273438 L 74.992188 49.273438 M 56.507812 49.273438 L 56.507812 65.726562 L 73.964844 65.726562 L 73.964844 49.273438 L 56.507812 49.273438 M 281.398438 343.335938 L 281.398438 331 L 281.398438 343.335938 M 243.402344 343.335938 L 243.402344 331 L 243.402344 343.335938 M 206.433594 343.335938 L 206.433594 331 L 206.433594 343.335938 M 168.441406 343.335938 L 168.441406 331 L 168.441406 343.335938 M 131.472656 343.335938 L 131.472656 331 L 131.472656 343.335938 M 93.476562 343.335938 L 93.476562 331 L 93.476562 343.335938 M 56.507812 342.949219 L 56.507812 331 L 56.507812 342.949219 M 318.367188 342.554688 L 318.367188 331 L 318.367188 342.554688 M 318.367188 329.972656 L 318.367188 310.433594 L 300.910156 310.433594 L 318.367188 310.433594 L 318.367188 329.972656 M 281.398438 329.972656 L 281.398438 310.433594 L 262.914062 310.433594 L 281.398438 310.433594 L 281.398438 293.984375 L 281.398438 310.433594 L 299.882812 310.433594 L 281.398438 310.433594 L 281.398438 329.972656 M 243.402344 329.972656 L 243.402344 310.433594 L 224.917969 310.433594 L 243.402344 310.433594 L 243.402344 293.984375 L 243.402344 310.433594 L 261.886719 310.433594 L 243.402344 310.433594 L 243.402344 329.972656 M 206.433594 329.972656 L 206.433594 310.433594 L 187.949219 310.433594 L 206.433594 310.433594 L 206.433594 293.984375 L 206.433594 310.433594 L 223.890625 310.433594 L 206.433594 310.433594 L 206.433594 329.972656 M 168.441406 329.972656 L 168.441406 310.433594 L 150.980469 310.433594 L 168.441406 310.433594 L 168.441406 293.984375 L 168.441406 310.433594 L 186.925781 310.433594 L 168.441406 310.433594 L 168.441406 329.972656 M 131.472656 329.972656 L 131.472656 310.433594 L 112.988281 310.433594 L 131.472656 310.433594 L 131.472656 293.984375 L 131.472656 310.433594 L 149.957031 310.433594 L 131.472656 310.433594 L 131.472656 329.972656 M 93.476562 329.972656 L 93.476562 310.433594 L 74.992188 310.433594 L 93.476562 310.433594 L 93.476562 293.984375 L 93.476562 310.433594 L 111.960938 310.433594 L 93.476562 310.433594 L 93.476562 329.972656 M 56.507812 329.972656 L 56.507812 310.433594 L 38.023438 310.433594 L 56.507812 310.433594 L 56.507812 329.972656 M 318.367188 310.433594 L 318.367188 293.984375 L 318.367188 310.433594 M 73.964844 310.433594 L 56.507812 310.433594 L 73.964844 310.433594 " fill-opacity="1" fill-rule="nonzero"/></g></g><path fill="#2f5473" d="M 286.800781 92.757812 C 280.019531 92.757812 277.257812 100.894531 265.136719 130.351562 C 253.015625 159.808594 241.054688 185.457031 236.4375 184.320312 C 233.847656 183.6875 257.542969 119.878906 257.863281 79.929688 C 257.902344 75.648438 253.730469 67.367188 247.976562 67.40625 C 237.660156 67.464844 235.382812 84.367188 233.898438 91.097656 C 230.429688 106.851562 227.402344 124.109375 224.726562 138.957031 C 222.859375 149.324219 214.058594 190.644531 212.652344 190.644531 C 208.769531 190.644531 211.242188 158.652344 211.242188 148.484375 C 211.242188 138.3125 212.195312 90.839844 212.390625 70.980469 C 212.433594 66.679688 212.453125 55.867188 201.34375 55.867188 C 191.308594 55.867188 190.992188 70.34375 189.589844 83.574219 C 188.328125 95.527344 190.871094 197.609375 188.207031 199.195312 C 184.636719 201.328125 168.304688 136.546875 163.132812 92.785156 C 162.085938 83.886719 160.710938 59.375 150.796875 58.671875 C 140.121094 57.917969 136.621094 75.6875 137.917969 103.886719 C 139.429688 136.835938 152.964844 190.171875 162.867188 208.417969 C 172.769531 226.671875 161.644531 221.175781 154.710938 219.667969 C 147.777344 218.15625 121.265625 206.070312 99.714844 192.042969 C 78.160156 178.015625 71.476562 176.503906 66.957031 184.054688 C 62.605469 191.316406 66.957031 211.464844 98.722656 228.761719 C 123.0625 242.011719 151.015625 250.699219 157.910156 277.027344 C 163.488281 298.34375 162.011719 332.027344 161.246094 345.394531 L 238.371094 345.394531 C 237.941406 333.054688 237.917969 302.679688 247.976562 273.355469 C 263.671875 227.605469 253.222656 216.984375 265.511719 194.644531 C 277.792969 172.304688 283.476562 152.441406 291.492188 133.007812 C 301.191406 109.484375 297.308594 92.757812 286.800781 92.757812 " fill-opacity="1" fill-rule="nonzero"/><path fill="#80d6f7" d="M 187.980469 220.820312 C 187.710938 220.894531 187.417969 220.984375 187.417969 220.976562 L 172.75 174.230469 C 172.746094 174.21875 173.039062 174.125 173.300781 174.027344 C 175.160156 173.328125 176.726562 170.621094 176.023438 168.300781 C 175.277344 166 172.261719 164.730469 170.332031 165.21875 C 166.59375 166.222656 162.875 167.390625 159.238281 168.710938 C 157.371094 169.410156 155.675781 172.164062 156.375 174.480469 C 157.128906 176.785156 159.828125 178.152344 161.757812 177.664062 C 162.023438 177.585938 162.308594 177.5 162.3125 177.511719 L 176.980469 224.257812 C 176.984375 224.269531 176.695312 224.359375 176.429688 224.457031 C 174.570312 225.160156 173 227.867188 173.699219 230.183594 C 174.453125 232.488281 177.464844 233.757812 179.390625 233.269531 C 183.125 232.265625 186.847656 231.09375 190.488281 229.773438 C 192.351562 229.074219 194.175781 226.285156 193.46875 223.96875 C 192.726562 221.660156 189.914062 220.332031 187.980469 220.820312 " fill-opacity="1" fill-rule="nonzero"/><path fill="#80d6f7" d="M 167.40625 153.503906 C 167.128906 153.554688 166.835938 153.625 166.832031 153.617188 L 162.085938 131.695312 C 162.078125 131.6875 162.375 131.605469 162.648438 131.53125 C 164.542969 130.953125 166.285156 128.351562 165.738281 125.996094 C 165.144531 123.640625 162.222656 122.179688 160.265625 122.546875 C 156.464844 123.300781 152.679688 124.222656 148.960938 125.300781 C 147.054688 125.875 145.179688 128.515625 145.726562 130.871094 C 146.320312 133.222656 148.929688 134.757812 150.886719 134.398438 C 151.164062 134.339844 151.453125 134.273438 151.453125 134.285156 L 156.199219 156.207031 C 156.207031 156.214844 155.902344 156.292969 155.640625 156.371094 C 153.734375 156.949219 151.996094 159.546875 152.539062 161.90625 C 153.136719 164.253906 156.066406 165.722656 158.023438 165.355469 C 161.8125 164.601562 165.605469 163.675781 169.320312 162.601562 C 171.222656 162.023438 173.230469 159.359375 172.675781 157.003906 C 172.082031 154.652344 169.359375 153.136719 167.40625 153.503906 " fill-opacity="1" fill-rule="nonzero"/><path fill="#80d6f7" d="M 162.898438 233.910156 C 162.773438 234.195312 162.628906 234.515625 162.621094 234.511719 L 137.371094 224.679688 C 137.363281 224.671875 137.496094 224.351562 137.601562 224.058594 C 138.355469 221.9375 137.164062 218.613281 134.652344 217.523438 C 132.121094 216.488281 128.832031 218.167969 127.847656 220.195312 C 125.988281 224.15625 124.285156 228.21875 122.765625 232.324219 C 122.011719 234.445312 123.144531 237.921875 125.652344 239.003906 C 128.179688 240.039062 131.335938 238.699219 132.3125 236.679688 C 132.445312 236.390625 132.582031 236.082031 132.59375 236.085938 L 157.835938 245.917969 C 157.851562 245.921875 157.71875 246.242188 157.609375 246.539062 C 156.859375 248.660156 158.046875 251.988281 160.5625 253.070312 C 163.089844 254.105469 166.382812 252.425781 167.359375 250.402344 C 169.222656 246.441406 170.925781 242.378906 172.445312 238.273438 C 173.195312 236.152344 172.121094 232.542969 169.609375 231.457031 C 167.082031 230.421875 163.882812 231.886719 162.898438 233.910156 " fill-opacity="1" fill-rule="nonzero"/><path fill="#80d6f7" d="M 117.433594 215.089844 C 117.277344 215.324219 117.109375 215.578125 117.101562 215.574219 L 102.914062 206.257812 C 102.902344 206.25 103.0625 205.988281 103.199219 205.75 C 104.171875 204.007812 103.609375 200.929688 101.574219 199.617188 C 99.515625 198.34375 96.398438 199.332031 95.25 200.957031 C 93.046875 204.140625 90.96875 207.445312 89.042969 210.808594 C 88.078125 212.546875 88.558594 215.75 90.59375 217.0625 C 92.652344 218.332031 95.597656 217.625 96.753906 216 C 96.910156 215.769531 97.070312 215.519531 97.078125 215.523438 L 111.269531 224.839844 C 111.28125 224.84375 111.117188 225.109375 110.976562 225.347656 C 110.019531 227.085938 110.570312 230.171875 112.605469 231.480469 C 114.667969 232.753906 117.785156 231.765625 118.941406 230.140625 C 121.132812 226.960938 123.214844 223.652344 125.136719 220.292969 C 126.105469 218.550781 125.691406 215.238281 123.652344 213.929688 C 121.59375 212.652344 118.589844 213.46875 117.433594 215.089844 " fill-opacity="1" fill-rule="nonzero"/><path fill="#80d6f7" d="M 155.625 113.683594 C 155.425781 113.699219 155.210938 113.722656 155.210938 113.714844 L 153.773438 97.839844 C 153.777344 97.835938 153.992188 97.808594 154.1875 97.777344 C 155.578125 97.535156 157.035156 95.851562 156.855469 94.140625 C 156.640625 92.433594 154.707031 91.144531 153.296875 91.234375 C 150.554688 91.429688 147.800781 91.753906 145.085938 92.183594 C 143.695312 92.421875 142.136719 94.117188 142.316406 95.828125 C 142.539062 97.535156 144.234375 98.847656 145.648438 98.765625 C 145.84375 98.753906 146.054688 98.730469 146.054688 98.738281 L 147.488281 114.609375 C 147.492188 114.617188 147.277344 114.644531 147.078125 114.671875 C 145.6875 114.914062 144.230469 116.597656 144.414062 118.308594 C 144.628906 120.015625 146.5625 121.304688 147.972656 121.21875 C 150.714844 121.019531 153.464844 120.699219 156.179688 120.269531 C 157.570312 120.027344 159.21875 118.324219 159.035156 116.613281 C 158.824219 114.902344 157.035156 113.601562 155.625 113.683594 " fill-opacity="1" fill-rule="nonzero"/><path fill="#80d6f7" d="M 206.875 110.621094 C 206.679688 110.609375 206.464844 110.605469 206.464844 110.59375 L 207.105469 94.671875 C 207.105469 94.664062 207.320312 94.664062 207.515625 94.660156 C 208.929688 94.605469 210.589844 93.125 210.632812 91.402344 C 210.640625 89.679688 208.894531 88.152344 207.484375 88.054688 C 204.734375 87.894531 201.964844 87.855469 199.21875 87.933594 C 197.800781 87.988281 196.046875 89.460938 196 91.183594 C 195.992188 92.90625 197.515625 94.429688 198.917969 94.527344 C 199.117188 94.539062 199.332031 94.546875 199.332031 94.554688 L 198.6875 110.476562 C 198.6875 110.484375 198.472656 110.484375 198.277344 110.488281 C 196.859375 110.542969 195.203125 112.027344 195.15625 113.746094 C 195.152344 115.464844 196.898438 116.996094 198.3125 117.09375 C 201.050781 117.253906 203.824219 117.296875 206.570312 117.21875 C 207.984375 117.164062 209.839844 115.6875 209.882812 113.964844 C 209.890625 112.242188 208.285156 110.71875 206.875 110.621094 " fill-opacity="1" fill-rule="nonzero"/><path fill="#80d6f7" d="M 247.21875 121.992188 C 247.023438 121.957031 246.808594 121.921875 246.808594 121.914062 L 249.335938 106.183594 C 249.339844 106.175781 249.554688 106.199219 249.746094 106.214844 C 251.15625 106.328125 252.980469 105.058594 253.226562 103.355469 C 253.449219 101.648438 251.882812 99.921875 250.496094 99.65625 C 247.792969 99.175781 245.042969 98.800781 242.304688 98.546875 C 240.898438 98.433594 238.976562 99.691406 238.726562 101.394531 C 238.515625 103.105469 239.839844 104.796875 241.226562 105.066406 C 241.425781 105.101562 241.632812 105.128906 241.632812 105.140625 L 239.109375 120.871094 C 239.109375 120.882812 238.890625 120.855469 238.695312 120.839844 C 237.28125 120.726562 235.460938 121.996094 235.210938 123.699219 C 235.003906 125.40625 236.554688 127.132812 237.949219 127.402344 C 240.652344 127.882812 243.394531 128.253906 246.136719 128.507812 C 247.542969 128.617188 249.558594 127.375 249.804688 125.671875 C 250.019531 123.964844 248.605469 122.257812 247.21875 121.992188 " fill-opacity="1" fill-rule="nonzero"/><path fill="#80d6f7" d="M 282.375 140.546875 C 282.183594 140.480469 281.980469 140.414062 281.980469 140.40625 L 287.085938 125.3125 C 287.085938 125.308594 287.296875 125.371094 287.488281 125.417969 C 288.859375 125.761719 290.871094 124.816406 291.394531 123.175781 C 291.890625 121.53125 290.640625 119.566406 289.316406 119.070312 C 286.730469 118.144531 284.082031 117.320312 281.425781 116.617188 C 280.054688 116.273438 277.949219 117.191406 277.417969 118.832031 C 276.929688 120.476562 277.960938 122.367188 279.28125 122.863281 C 279.464844 122.929688 279.667969 122.996094 279.667969 123.003906 L 274.554688 138.097656 C 274.554688 138.105469 274.347656 138.039062 274.15625 137.992188 C 272.785156 137.648438 270.773438 138.59375 270.246094 140.234375 C 269.757812 141.882812 271 143.84375 272.328125 144.339844 C 274.917969 145.265625 277.558594 146.089844 280.214844 146.796875 C 281.589844 147.136719 283.785156 146.246094 284.308594 144.609375 C 284.808594 142.960938 283.699219 141.039062 282.375 140.546875 " fill-opacity="1" fill-rule="nonzero"/><path fill="#80d6f7" d="M 206.46875 152.285156 C 206.226562 152.28125 205.96875 152.28125 205.96875 152.273438 L 206.054688 128.046875 C 206.054688 128.039062 206.316406 128.03125 206.550781 128.015625 C 208.230469 127.886719 210.15625 126.050781 210.132812 123.992188 C 210.074219 121.9375 207.917969 120.183594 206.226562 120.128906 C 202.941406 120.054688 199.632812 120.125 196.351562 120.332031 C 194.664062 120.460938 192.625 122.300781 192.648438 124.355469 C 192.707031 126.414062 194.589844 128.167969 196.277344 128.226562 C 196.519531 128.234375 196.765625 128.230469 196.769531 128.242188 L 196.679688 152.46875 C 196.683594 152.476562 196.417969 152.484375 196.183594 152.5 C 194.5 152.628906 192.578125 154.464844 192.601562 156.519531 C 192.667969 158.578125 194.824219 160.328125 196.507812 160.386719 C 199.792969 160.460938 203.101562 160.390625 206.382812 160.183594 C 208.066406 160.054688 210.21875 158.214844 210.195312 156.15625 C 210.132812 154.101562 208.152344 152.34375 206.46875 152.285156 " fill-opacity="1" fill-rule="nonzero"/><path fill="#80d6f7" d="M 236.628906 163.113281 C 236.414062 163.0625 236.183594 163.011719 236.1875 163.003906 L 241.382812 140.933594 C 241.382812 140.929688 241.613281 140.972656 241.828125 141.003906 C 243.347656 141.230469 245.421875 139.988281 245.816406 138.15625 C 246.171875 136.316406 244.609375 134.328125 243.121094 133.9375 C 240.21875 133.214844 237.265625 132.605469 234.3125 132.132812 C 232.792969 131.90625 230.617188 133.128906 230.21875 134.957031 C 229.867188 136.796875 231.179688 138.734375 232.664062 139.125 C 232.875 139.175781 233.097656 139.230469 233.097656 139.234375 L 227.902344 161.304688 C 227.902344 161.3125 227.671875 161.265625 227.453125 161.234375 C 225.9375 161.011719 223.863281 162.25 223.46875 164.082031 C 223.117188 165.917969 224.675781 167.910156 226.164062 168.300781 C 229.0625 169.027344 232.015625 169.628906 234.96875 170.109375 C 236.488281 170.332031 238.765625 169.132812 239.160156 167.300781 C 239.515625 165.460938 238.109375 163.503906 236.628906 163.113281 " fill-opacity="1" fill-rule="nonzero"/><path fill="#80d6f7" d="M 265.824219 179.675781 C 265.578125 179.558594 265.3125 179.441406 265.316406 179.429688 L 274.289062 159.820312 C 274.289062 159.808594 274.558594 159.921875 274.808594 160.015625 C 276.609375 160.667969 279.445312 159.671875 280.382812 157.539062 C 281.273438 155.386719 279.871094 152.574219 278.152344 151.730469 C 274.796875 150.117188 271.347656 148.640625 267.871094 147.324219 C 266.074219 146.667969 263.105469 147.613281 262.171875 149.746094 C 261.28125 151.898438 262.398438 154.589844 264.109375 155.4375 C 264.359375 155.550781 264.621094 155.667969 264.617188 155.675781 L 255.640625 175.289062 C 255.640625 175.300781 255.371094 175.183594 255.117188 175.089844 C 253.320312 174.4375 250.484375 175.433594 249.546875 177.566406 C 248.65625 179.714844 250.0625 182.535156 251.773438 183.382812 C 255.132812 184.988281 258.578125 186.460938 262.058594 187.785156 C 263.851562 188.4375 266.933594 187.546875 267.871094 185.414062 C 268.765625 183.261719 267.535156 180.527344 265.824219 179.675781 " fill-opacity="1" fill-rule="nonzero"/><path fill="#80d6f7" d="M 207.324219 221.511719 C 207.039062 221.492188 206.738281 221.484375 206.738281 221.472656 L 207.5625 172.484375 C 207.5625 172.476562 207.871094 172.476562 208.144531 172.46875 C 210.128906 172.394531 212.472656 170.316406 212.535156 167.894531 C 212.554688 165.472656 210.097656 163.316406 208.113281 163.175781 C 204.25 162.941406 200.351562 162.878906 196.480469 162.976562 C 194.492188 163.054688 192.011719 165.128906 191.941406 167.550781 C 191.929688 169.972656 194.0625 172.125 196.046875 172.265625 C 196.328125 172.28125 196.625 172.292969 196.625 172.304688 L 195.800781 221.292969 C 195.800781 221.300781 195.492188 221.300781 195.214844 221.308594 C 193.230469 221.382812 190.886719 223.460938 190.824219 225.882812 C 190.808594 228.304688 193.265625 230.460938 195.25 230.605469 C 199.113281 230.832031 203.011719 230.898438 206.878906 230.796875 C 208.867188 230.722656 211.476562 228.648438 211.542969 226.226562 C 211.566406 223.804688 209.308594 221.652344 207.324219 221.511719 " fill-opacity="1" fill-rule="nonzero"/><path fill="#80d6f7" d="M 223.03125 225.339844 C 222.78125 225.273438 222.511719 225.207031 222.511719 225.199219 L 232.363281 181.691406 C 232.363281 181.683594 232.640625 181.738281 232.886719 181.78125 C 234.671875 182.089844 237.144531 180.675781 237.65625 178.527344 C 238.125 176.371094 236.328125 173.988281 234.585938 173.492188 C 231.1875 172.566406 227.726562 171.78125 224.257812 171.148438 C 222.472656 170.84375 219.875 172.226562 219.363281 174.371094 C 218.894531 176.53125 220.398438 178.847656 222.140625 179.34375 C 222.390625 179.414062 222.652344 179.472656 222.648438 179.480469 L 212.800781 222.996094 C 212.796875 223.003906 212.519531 222.945312 212.277344 222.902344 C 210.492188 222.597656 208.015625 224.011719 207.503906 226.15625 C 207.039062 228.3125 208.828125 230.695312 210.574219 231.191406 C 213.972656 232.117188 217.433594 232.902344 220.902344 233.539062 C 222.683594 233.839844 225.402344 232.480469 225.910156 230.332031 C 226.375 228.179688 224.765625 225.839844 223.03125 225.339844 " fill-opacity="1" fill-rule="nonzero"/><path fill="#80d6f7" d="M 236.792969 230.507812 C 236.589844 230.410156 236.367188 230.308594 236.371094 230.300781 L 252.089844 194.089844 C 252.09375 194.082031 252.320312 194.171875 252.53125 194.253906 C 254.03125 194.8125 256.414062 193.992188 257.207031 192.210938 C 257.972656 190.414062 256.800781 188.042969 255.371094 187.324219 C 252.566406 185.960938 249.683594 184.707031 246.773438 183.582031 C 245.273438 183.023438 242.785156 183.804688 241.988281 185.582031 C 241.226562 187.382812 242.152344 189.644531 243.585938 190.367188 C 243.789062 190.460938 244.007812 190.558594 244.003906 190.566406 L 228.285156 226.78125 C 228.28125 226.789062 228.046875 226.695312 227.84375 226.613281 C 226.339844 226.054688 223.957031 226.878906 223.160156 228.65625 C 222.398438 230.457031 223.566406 232.824219 225 233.542969 C 227.804688 234.90625 230.691406 236.164062 233.601562 237.285156 C 235.101562 237.84375 237.683594 237.109375 238.476562 235.324219 C 239.238281 233.53125 238.226562 231.230469 236.792969 230.507812 " fill-opacity="1" fill-rule="nonzero"/><path fill="#80d6f7" d="M 208.167969 80.371094 C 208.070312 82.992188 205.492188 85.027344 202.414062 84.914062 C 199.335938 84.800781 196.917969 82.582031 197.011719 79.960938 C 197.011719 79.960938 197.390625 61.636719 202.816406 61.839844 L 203.261719 61.855469 C 209.386719 62.078125 208.167969 80.371094 208.167969 80.371094 " fill-opacity="1" fill-rule="nonzero"/><path fill="#80d6f7" d="M 210.78125 83.292969 C 210.714844 85.109375 209.195312 86.523438 207.382812 86.453125 L 197.351562 86.085938 C 195.546875 86.019531 194.136719 84.496094 194.195312 82.683594 L 194.207031 82.410156 C 194.277344 80.597656 195.796875 79.179688 197.609375 79.25 L 207.632812 79.621094 C 209.445312 79.6875 210.855469 81.210938 210.792969 83.019531 L 210.78125 83.292969 " fill-opacity="1" fill-rule="nonzero"/><path fill="#80d6f7" d="M 155.902344 84.019531 C 155.808594 86.644531 153.234375 88.679688 150.152344 88.5625 C 147.070312 88.449219 144.652344 86.234375 144.746094 83.609375 C 144.746094 83.609375 145.125 65.289062 150.554688 65.488281 L 151 65.503906 C 157.128906 65.730469 155.902344 84.019531 155.902344 84.019531 " fill-opacity="1" fill-rule="nonzero"/><path fill="#80d6f7" d="M 158.515625 86.945312 C 158.453125 88.761719 156.929688 90.171875 155.117188 90.105469 L 145.089844 89.734375 C 143.28125 89.667969 141.867188 88.144531 141.9375 86.335938 L 141.945312 86.0625 C 142.011719 84.25 143.535156 82.835938 145.34375 82.898438 L 155.375 83.269531 C 157.179688 83.332031 158.59375 84.859375 158.527344 86.671875 L 158.515625 86.945312 " fill-opacity="1" fill-rule="nonzero"/><path fill="#80d6f7" d="M 252.632812 91.867188 C 252.546875 94.253906 250.199219 96.105469 247.390625 96.003906 C 244.585938 95.902344 242.378906 93.878906 242.472656 91.492188 C 242.472656 91.492188 242.8125 74.808594 247.761719 74.992188 L 248.160156 75.003906 C 253.746094 75.210938 252.632812 91.867188 252.632812 91.867188 " fill-opacity="1" fill-rule="nonzero"/><path fill="#80d6f7" d="M 255.007812 94.53125 C 254.953125 96.183594 253.570312 97.46875 251.914062 97.40625 L 242.785156 97.074219 C 241.136719 97.007812 239.851562 95.625 239.914062 93.972656 L 239.917969 93.722656 C 239.980469 92.074219 241.367188 90.785156 243.015625 90.847656 L 252.144531 91.183594 C 253.792969 91.242188 255.078125 92.632812 255.019531 94.28125 L 255.007812 94.53125 " fill-opacity="1" fill-rule="nonzero"/><path fill="#80d6f7" d="M 290.289062 111.453125 C 290.214844 113.269531 288.429688 114.671875 286.304688 114.597656 C 284.171875 114.515625 282.5 112.984375 282.5625 111.167969 C 282.5625 111.167969 282.824219 98.488281 286.582031 98.625 L 286.890625 98.636719 C 291.128906 98.792969 290.289062 111.453125 290.289062 111.453125 " fill-opacity="1" fill-rule="nonzero"/><path fill="#80d6f7" d="M 292.09375 113.476562 C 292.050781 114.730469 290.996094 115.710938 289.738281 115.660156 L 282.804688 115.40625 C 281.550781 115.359375 280.574219 114.308594 280.621094 113.054688 L 280.625 112.863281 C 280.667969 111.609375 281.722656 110.628906 282.976562 110.671875 L 289.914062 110.929688 C 291.167969 110.976562 292.144531 112.03125 292.101562 113.285156 L 292.09375 113.476562 " fill-opacity="1" fill-rule="nonzero"/><path fill="#80d6f7" d="M 89.097656 196.695312 C 91.007812 198.550781 90.789062 201.882812 88.609375 204.128906 C 86.433594 206.382812 83.117188 206.703125 81.210938 204.847656 C 81.210938 204.847656 67.660156 192.117188 71.492188 188.152344 L 71.808594 187.824219 C 76.144531 183.351562 89.097656 196.695312 89.097656 196.695312 " fill-opacity="1" fill-rule="nonzero"/><path fill="#80d6f7" d="M 93.078125 196.707031 C 94.398438 197.992188 94.429688 200.101562 93.144531 201.425781 L 86.058594 208.75 C 84.777344 210.074219 82.671875 210.101562 81.351562 208.824219 L 81.152344 208.628906 C 79.832031 207.347656 79.796875 205.238281 81.082031 203.914062 L 88.167969 196.589844 C 89.449219 195.269531 91.554688 195.234375 92.878906 196.515625 L 93.078125 196.707031 " fill-opacity="1" fill-rule="nonzero"/><path fill="#80d6f7" d="M 182.300781 345.222656 L 204.40625 345.222656 L 204.40625 304.910156 C 204.40625 301.378906 197.234375 288.710938 206.203125 285.894531 C 217.703125 282.285156 209.308594 263.988281 201.34375 266.875 C 194.234375 269.453125 200.988281 262.457031 184.402344 252.835938 C 167.8125 243.214844 162.09375 265.511719 176.25 289.34375 C 184.472656 303.1875 182.503906 341.589844 182.300781 345.222656 " fill-opacity="1" fill-rule="nonzero"/><path fill="#80d6f7" d="M 218.296875 298.03125 C 218.457031 312.429688 218.316406 341.988281 218.300781 345.222656 L 227.265625 345.222656 C 227.300781 341.652344 227.738281 304.628906 231.773438 290.152344 C 236.023438 274.941406 240.082031 266.625 231.773438 270.074219 C 227.941406 271.667969 228.558594 272.003906 223.871094 267.496094 C 217.65625 261.519531 211.023438 272.761719 213.234375 279.304688 C 215.449219 285.84375 218.132812 282.789062 218.296875 298.03125 " fill-opacity="1" fill-rule="nonzero"/><path fill="#80d6f7" d="M 225.183594 263.515625 C 230.410156 262.109375 245.523438 253.78125 238.945312 246.78125 C 232.371094 239.789062 223.558594 231.808594 218.699219 238.6875 C 213.835938 245.566406 217.636719 265.539062 225.183594 263.515625 " fill-opacity="1" fill-rule="nonzero"/><path fill="#80d6f7" d="M 212.753906 261.792969 C 209.964844 264.121094 205.128906 266.457031 198.441406 259.359375 C 191.757812 252.257812 184.464844 246.984375 180.207031 245.972656 C 175.957031 244.957031 173.523438 234.390625 186.285156 234.808594 C 199.046875 235.222656 211.617188 231.976562 211.105469 242.523438 C 210.59375 253.070312 220.851562 255.003906 212.753906 261.792969 " fill-opacity="1" fill-rule="nonzero"/></svg>