<svg xmlns="http://www.w3.org/2000/svg" xmlns:xlink="http://www.w3.org/1999/xlink" width="500" zoomAndPan="magnify" viewBox="0 0 375 374.999991" height="500" preserveAspectRatio="xMidYMid meet" version="1.0"><defs><clipPath id="a2ba6ee263"><path d="M 88 111 L 287 111 L 287 264 L 88 264 Z M 88 111 " clip-rule="nonzero"/></clipPath><clipPath id="d51a838e61"><path d="M 207.140625 114.042969 C 227.476562 119.4375 243.660156 132.648438 253.414062 149.523438 C 259.292969 159.625 262.820312 171.035156 263.511719 183.003906 C 279.699219 193.445312 288.414062 204.515625 285.851562 213.988281 C 283.363281 223.464844 270.289062 228.722656 250.992188 229.691406 C 244.421875 239.582031 235.636719 247.746094 225.539062 253.625 C 208.660156 263.375 188.046875 266.628906 167.714844 261.230469 C 147.445312 255.769531 131.261719 242.625 121.507812 225.75 L 121.4375 225.75 C 115.628906 215.582031 112.101562 204.167969 111.410156 192.269531 C 95.15625 181.828125 86.507812 170.691406 89 161.285156 C 91.558594 151.808594 104.632812 146.550781 123.929688 145.582031 C 130.5 135.621094 139.285156 127.460938 149.382812 121.648438 C 166.261719 111.898438 186.871094 108.578125 207.140625 114.042969 Z M 263.511719 191.996094 C 263.234375 197.042969 262.40625 202.230469 261.023438 207.351562 C 259.636719 212.46875 257.839844 217.308594 255.488281 221.875 C 268.628906 220.699219 277.207031 217.449219 278.660156 212.054688 C 280.113281 206.726562 274.300781 199.535156 263.511719 191.996094 Z M 111.339844 183.277344 C 111.6875 178.160156 112.515625 173.042969 113.832031 167.921875 C 115.214844 162.804688 117.082031 157.894531 119.363281 153.328125 C 106.222656 154.503906 97.644531 157.824219 96.261719 163.152344 C 94.808594 168.546875 100.550781 175.671875 111.339844 183.277344 Z M 241.722656 229.828125 C 231.832031 229.691406 220.628906 228.585938 208.660156 226.648438 C 205.273438 233.632812 201.46875 239.722656 197.59375 244.839844 C 193.929688 249.613281 190.125 253.484375 186.25 256.320312 C 198.910156 256.597656 211.21875 253.277344 221.804688 247.121094 C 229.480469 242.765625 236.257812 236.886719 241.722656 229.828125 Z M 201.050781 225.265625 C 193.789062 223.882812 186.320312 222.152344 178.710938 220.144531 C 171.171875 218.070312 163.839844 215.859375 156.855469 213.4375 C 156.578125 219.871094 156.785156 225.816406 157.476562 231.144531 C 159.066406 243.664062 163.285156 252.308594 169.648438 253.96875 C 176.011719 255.699219 183.96875 250.371094 191.644531 240.34375 C 194.894531 236.054688 198.078125 231.003906 201.050781 225.265625 Z M 149.523438 210.808594 C 138.179688 206.519531 128.011719 201.816406 119.363281 197.042969 C 120.609375 205.898438 123.515625 214.335938 127.941406 222.011719 C 134.097656 232.597656 143.019531 241.589844 154.15625 247.746094 C 152.21875 243.386719 150.835938 238.0625 150.074219 232.113281 C 149.246094 225.75 149.039062 218.554688 149.523438 210.808594 Z M 133.199219 145.445312 C 143.089844 145.582031 154.226562 146.621094 166.191406 148.625 C 169.648438 141.640625 173.386719 135.484375 177.328125 130.363281 C 180.992188 125.59375 184.796875 121.71875 188.671875 118.882812 C 175.945312 118.675781 163.703125 121.996094 153.117188 128.082031 L 153.050781 128.082031 C 145.441406 132.507812 138.664062 138.386719 133.199219 145.445312 Z M 173.867188 150.007812 C 181.132812 151.390625 188.53125 153.050781 196.140625 155.128906 C 203.75 157.132812 211.082031 159.414062 218.066406 161.835938 C 218.34375 155.402344 218.136719 149.386719 217.445312 144.058594 C 215.785156 131.539062 211.636719 122.964844 205.273438 121.234375 C 198.839844 119.503906 190.953125 124.902344 183.277344 134.929688 C 179.957031 139.21875 176.84375 144.269531 173.867188 150.007812 Z M 225.332031 164.464844 C 236.675781 168.753906 246.910156 173.386719 255.558594 178.230469 C 254.3125 169.375 251.40625 160.867188 246.980469 153.261719 C 240.824219 142.609375 231.902344 133.617188 220.765625 127.527344 C 222.703125 131.886719 224.085938 137.144531 224.847656 143.09375 C 225.675781 149.523438 225.882812 156.71875 225.332031 164.464844 Z M 256.179688 187.222656 C 247.535156 181.964844 236.8125 176.847656 224.640625 172.144531 C 223.738281 179.890625 222.148438 188.050781 219.933594 196.351562 C 217.722656 204.652344 215.023438 212.46875 211.910156 219.59375 C 224.777344 221.597656 236.675781 222.566406 246.773438 222.359375 C 249.816406 217.171875 252.167969 211.5 253.828125 205.414062 C 255.488281 199.328125 256.25 193.238281 256.179688 187.222656 Z M 217.445312 169.515625 C 210.113281 166.886719 202.367188 164.535156 194.203125 162.320312 C 186.113281 160.175781 178.15625 158.378906 170.550781 156.925781 C 167.296875 164.1875 164.460938 172.210938 162.179688 180.859375 C 159.828125 189.433594 158.304688 197.875 157.476562 205.757812 C 164.808594 208.316406 172.554688 210.738281 180.648438 212.882812 C 188.808594 215.097656 196.695312 216.894531 204.371094 218.277344 C 207.554688 211.085938 210.460938 202.992188 212.742188 194.414062 C 215.023438 185.769531 216.617188 177.398438 217.445312 169.515625 Z M 162.941406 155.679688 C 150.074219 153.605469 138.246094 152.707031 128.148438 152.914062 C 125.105469 158.101562 122.683594 163.773438 121.09375 169.859375 C 119.433594 175.945312 118.671875 182.035156 118.742188 188.050781 C 127.386719 193.238281 138.109375 198.359375 150.28125 203.0625 C 151.183594 195.3125 152.703125 187.222656 154.917969 178.921875 C 157.199219 170.621094 159.898438 162.804688 162.941406 155.679688 Z M 162.941406 155.679688 " clip-rule="nonzero"/></clipPath></defs><rect x="-37.5" width="450" fill="#ffffff" y="-37.499999" height="449.999989" fill-opacity="1"/><rect x="-37.5" width="450" fill="#f1e49d" y="-37.499999" height="449.999989" fill-opacity="1"/><g clip-path="url(#a2ba6ee263)"><g clip-path="url(#d51a838e61)"><path fill="#ffde59" d="M 86.507812 108.578125 L 86.507812 266.628906 L 288.257812 266.628906 L 288.257812 108.578125 Z M 86.507812 108.578125 " fill-opacity="1" fill-rule="nonzero"/></g></g></svg>